<svg width="1440" height="1112" viewBox="0 0 1440 1112" fill="none" xmlns="http://www.w3.org/2000/svg">
<path opacity="0.6" d="M526.493 486.112H511.369C511.369 486.112 516.207 451.669 504.716 430.225C493.225 408.782 477.187 380.096 497.753 322.653C505.792 305.656 481.867 265.581 478.239 236.022C474.612 206.463 481.125 192.119 490.803 176.116C500.48 160.113 507.571 124.784 503.119 98.7861C503.119 98.7861 503.33 80.5511 507.767 89.4443C512.204 98.3375 528.333 158.33 514.62 194.777C500.908 231.224 511.326 251.203 519.189 274.083C527.053 296.963 534.022 321.476 521.113 351.909C508.205 382.343 518.449 412.354 522.082 432.787C525.715 453.219 526.493 486.118 526.493 486.118V486.112Z" fill="white"/>
<path opacity="0.6" d="M981.115 485.623H971.276C971.276 485.623 974.424 463.218 966.949 449.269C959.473 435.32 949.041 416.659 962.419 379.293C967.648 368.236 952.086 342.167 949.726 322.939C947.366 303.711 951.603 294.38 957.898 283.97C964.193 273.56 968.806 250.579 965.91 233.667C965.91 233.667 966.047 221.805 968.933 227.59C971.819 233.375 982.311 272.4 973.391 296.109C964.471 319.818 971.248 332.814 976.364 347.698C981.479 362.582 986.012 378.527 977.615 398.324C969.218 418.121 975.882 437.643 978.245 450.935C980.609 464.226 981.115 485.627 981.115 485.627V485.623Z" fill="white"/>
<path fill-rule="evenodd" clip-rule="evenodd" d="M0 447.8L18 454.95C37.2 462.1 74.4 476.4 110.4 476.4C147.6 476.4 184.8 462.1 222 445.417C258 428.733 295.2 409.667 332.4 414.433C369.6 419.2 405.6 447.8 442.8 454.95C480 462.1 517.2 447.8 554.4 452.567C590.4 457.333 627.6 481.167 664.8 474.017C702 466.867 738 428.733 775.2 407.283C812.4 385.833 849.6 381.067 885.6 397.75C922.8 414.433 960 452.567 997.2 471.633C1034.4 490.7 1070.4 490.7 1107.6 490.7C1144.8 490.7 1182 490.7 1218 485.933C1255.2 481.167 1292.4 471.633 1329.6 450.183C1365.6 428.733 1402.8 395.367 1422 378.683L1440 362V505H1422C1402.8 505 1365.6 505 1329.6 505C1292.4 505 1255.2 505 1218 505C1182 505 1144.8 505 1107.6 505C1070.4 505 1034.4 505 997.2 505C960 505 922.8 505 885.6 505C849.6 505 812.4 505 775.2 505C738 505 702 505 664.8 505C627.6 505 590.4 505 554.4 505C517.2 505 480 505 442.8 505C405.6 505 369.6 505 332.4 505C295.2 505 258 505 222 505C184.8 505 147.6 505 110.4 505C74.4 505 37.2 505 18 505H0V447.8Z" fill="#450809"/>
<rect y="486" width="1440" height="626" fill="#450809"/>
<path d="M797.305 751.684V719.263L868.305 702V766L797.305 751.684Z" fill="#02304A"/>
<path d="M723.566 975.761V909.173L677.553 915.722V965.936L723.566 975.761Z" fill="#02304A"/>
<path d="M635.711 650.022H297.147C279.52 650.022 272.964 659.813 271.889 664.709V798.399C267.159 819.79 282.457 823.38 290.698 822.501C394.954 822.878 605.509 823.405 613.678 822.501C623.889 821.371 635.711 822.124 657.208 816.099C678.704 810.073 673.867 779.193 686.765 769.025C697.083 760.891 761.643 760.614 792.634 761.493V769.025H841V704.628H787.797V710.653C752.866 710.653 682.036 707.113 678.166 692.953C675.587 657.403 648.788 649.52 635.711 650.022Z" fill="white"/>
<path d="M529.103 852.768H143.368C137.781 852.768 132.445 862.63 130.475 867.561C130.116 907.01 129.615 989.741 130.475 1005.08C131.334 1020.42 139.429 1029.01 143.368 1031.38H542.533C566.172 1031.38 580.677 986.454 586.049 985.906C590.347 985.468 628.67 979.149 647.294 976.044C648.19 980.244 651.377 988.645 656.964 988.645C662.552 988.645 664.665 980.244 665.023 976.044H677.379C678.096 979.879 680.818 987.769 685.975 988.645C691.133 989.522 692.78 980.61 692.959 976.044H702.092V907.01H692.959C691.526 903.357 687.479 896.052 682.752 896.052C678.024 896.052 677.2 903.357 677.379 907.01H665.023C665.023 903.722 663.411 896.928 656.964 896.052C650.518 895.175 649.622 902.992 649.98 907.01C628.849 905.914 585.405 901.421 580.677 892.217C567.354 863.288 540.743 853.864 529.103 852.768Z" fill="#ACD1FF"/>
<path d="M1065.19 842.884H821.128C802.636 845.075 797.654 858.406 797.475 864.797C797.117 892.007 796.615 953.109 797.475 979.843C798.335 1006.58 813.602 1011.8 821.128 1011.07C893.879 1011.25 1043.47 1011.51 1059.81 1011.07C1080.24 1010.52 1090.45 1003.95 1098.51 977.104C1104.97 955.629 1127.01 946.243 1137.22 944.234V952.999H1145.28V944.234H1153.88L1154.96 954.643L1163.56 956.286V948.617H1168.94V904.789H1163.56L1161.95 893.833H1154.96L1153.88 903.146H1148.51V894.928H1138.83V903.146C1125.39 901.868 1098.51 897.01 1098.51 887.806C1097.22 854.06 1075.76 843.797 1065.19 842.884Z" fill="#ACD1FF"/>
<path d="M1186.23 649.884H942.132C923.637 651.783 918.654 663.339 918.475 668.879C918.117 692.465 917.615 745.431 918.475 768.605C919.335 791.78 934.605 796.307 942.132 795.674C1014.9 795.832 1164.51 796.054 1180.85 795.674C1201.29 795.199 1211.5 789.5 1219.57 766.231C1226.02 747.615 1248.06 739.479 1258.28 737.738H1266.34H1274.95H1283H1289V702.121H1284.62H1274.95H1269.57H1259.89C1246.45 701.013 1219.57 696.802 1219.57 688.824C1218.28 659.571 1196.81 650.675 1186.23 649.884Z" fill="#ACD1FF"/>
<g clip-path="url(#clip0_607_384)">
<path d="M809.191 752.557V718.109L869.191 699.767V767.767L809.191 752.557Z" fill="#31607B"/>
</g>
<g clip-path="url(#clip1_607_384)">
<path d="M726.583 975.76V909.172L679.58 915.722V965.936L726.583 975.76Z" fill="#31607B"/>
</g>
<path d="M1081.41 569.948H1099.27C1099.27 569.948 1105.99 537.598 1094.23 514.067C1082.48 490.536 1076.6 479.756 1095.07 448.384C1113.54 417.011 1083.31 373.637 1083.31 343.122C1083.31 312.608 1122.41 268.489 1101.19 227.314C1079.96 186.139 1058.96 182.462 1059.8 142.759C1060.63 103.056 1071.55 80.9969 1049.72 56C1053.92 56 1053.08 77.3203 1044.68 102.323C1036.28 127.327 1016.13 157.466 1027.88 190.555C1039.64 223.644 1066.52 227.696 1062.32 270.155C1058.12 312.614 1037.96 318.739 1047.2 357.215C1056.43 395.69 1072.83 396.429 1065.89 432.456C1058.96 468.482 1047.2 460.397 1057.28 498.628C1067.36 536.859 1081.63 537.598 1081.63 559.651C1081.41 569.948 1081.41 569.948 1081.41 569.948Z" fill="white"/>
<path d="M1124.97 577.991L1141.9 578.041C1141.9 578.041 1135.13 524.058 1146.98 486.516C1158.82 448.975 1183.38 393.524 1179.15 365.307C1174.91 337.09 1151.21 294.394 1163.91 264.214C1176.61 234.033 1188.46 201.646 1174.91 162.631C1161.37 123.616 1152.94 77.2451 1152.94 77.2451C1152.94 77.2451 1117.34 89.7611 1131.74 158.216C1146.13 226.672 1133.43 228.885 1124.97 262.006C1116.5 295.127 1123.27 336.601 1143.59 380.645C1151.17 405.307 1118.19 457.565 1117.35 480.139C1116.51 502.713 1124.97 577.991 1124.97 577.991H1124.97Z" fill="white"/>
<path d="M1214.74 574.977H1235.91C1235.91 574.977 1229.14 536.911 1245.22 513.211C1261.31 489.512 1283.76 457.808 1254.97 394.322C1243.72 375.537 1277.2 331.246 1282.28 298.577C1287.36 265.909 1278.24 250.056 1264.7 232.369C1251.15 214.682 1241.23 175.637 1247.46 146.904C1247.46 146.904 1247.16 126.751 1240.95 136.579C1234.74 146.408 1212.17 212.712 1231.36 252.993C1250.55 293.275 1235.97 315.355 1224.96 340.642C1213.96 365.93 1204.2 393.021 1222.27 426.656C1240.34 460.291 1226 493.459 1220.92 516.042C1215.83 538.624 1214.74 574.983 1214.74 574.983V574.977Z" fill="white"/>
<path d="M745.666 539.233H724.786C724.786 539.233 731.466 495.929 715.602 468.968C699.738 442.007 677.597 405.94 705.989 333.718C717.087 312.348 684.059 261.961 679.051 224.797C674.043 187.633 683.034 169.598 696.394 149.478C709.754 129.357 719.543 84.9385 713.397 52.2512C713.397 52.2512 713.689 29.3244 719.814 40.5058C725.939 51.6872 748.205 127.115 729.275 172.94C710.345 218.765 724.727 243.883 735.583 272.651C746.439 301.418 756.059 332.237 738.239 370.501C720.418 408.765 734.561 446.498 739.576 472.188C744.592 497.878 745.666 539.24 745.666 539.24V539.233Z" fill="white"/>
<path d="M256.048 563.242C256.048 563.242 285.574 532.198 285.574 511.506C285.574 490.813 294.01 456.473 310.021 422.581C327.074 386.484 320.158 367.485 303.286 321.792C303.286 321.792 299.068 276.744 332.812 258.641C366.555 240.537 307.504 187.501 309.193 167.453C310.881 147.405 315.94 117 315.94 117C315.94 117 276.297 160.98 285.574 186.845C294.85 212.711 310.033 230.825 294.01 254.107C277.986 277.388 258.819 292.524 265.566 329.171C272.314 365.818 282.742 363.253 275.147 388.689C267.552 414.124 251.83 449.417 256.048 482.401C260.266 515.384 264.412 506.327 255.588 529.614C246.765 552.902 243.395 565.187 243.395 565.187L256.048 563.248V563.242Z" fill="white"/>
<path d="M208.384 565.182C216.79 550.945 210.905 523.127 203.745 509C196.585 494.874 194.093 476.757 206.702 451.739C211.742 428.231 195.776 403.428 180.647 370.644C165.518 337.86 179.809 322.548 184.85 307.667C189.89 292.785 203.344 274.668 184.85 235.849C166.355 197.029 180.647 181.497 184.85 167.266C189.052 153.034 223.513 121.325 215.108 142.033C206.702 162.741 204.181 193.149 221.788 224.208C239.394 255.266 233.602 270.793 225.196 292.146C216.79 313.498 200.816 330.32 216.79 363.898C232.764 397.475 237.805 432.547 229.979 460.585C222.153 488.623 222.676 499.189 228.561 518.602C234.447 538.014 220.155 565.187 220.155 565.187" fill="white"/>
<path d="M175.109 567.02L188.574 570.246C188.574 570.246 175.109 536.054 175.109 506.379C175.109 476.704 187.735 466.384 170.062 416.063C152.389 365.742 133.869 381.42 164.168 324.235C194.468 267.051 140.602 239.953 137.232 200.601C133.862 161.248 131.338 155.445 131.338 155.445C131.338 155.445 98.5154 201.892 124.606 260.599C144.803 307.694 110.345 335.429 114.533 362.851C118.72 390.273 128.815 421.234 143.125 438.006C157.436 454.777 145.649 493.053 145.649 493.053C145.649 493.053 154.066 512.193 163.322 536.702C172.579 561.212 175.102 567.02 175.102 567.02H175.109Z" fill="white"/>
<path d="M754.742 535.047L741.277 539.241C741.277 539.241 754.742 494.791 754.742 456.214C754.742 417.636 742.116 404.22 759.79 338.803C777.463 273.385 795.982 293.767 765.683 219.427C735.384 145.087 789.25 109.86 792.62 58.702C795.989 7.54403 798.513 0 798.513 0C798.513 0 831.336 60.3808 805.246 136.7C785.048 197.924 819.506 233.979 815.319 269.628C811.132 305.276 801.037 345.525 786.726 367.328C772.415 389.132 784.202 438.89 784.202 438.89C784.202 438.89 775.785 463.772 766.529 495.634C757.273 527.496 754.749 535.047 754.749 535.047H754.742Z" fill="white"/>
<path d="M161.521 560.072C161.521 557.539 119.48 498.72 113.057 479.743C106.634 460.767 99.8797 432.308 91.4355 420.288C82.9912 408.267 114.236 425.298 121.832 444.932C129.427 464.566 137.721 473.445 144.633 489.442C151.545 505.438 174.188 561.968 174.188 561.968L161.521 560.072Z" fill="white"/>
<path d="M769.183 537.029C769.183 533.305 811.205 446.808 817.625 418.903C824.046 390.998 830.797 349.149 839.237 331.472C847.678 313.796 816.446 338.841 808.854 367.712C801.262 396.584 792.973 409.641 786.064 433.165C779.154 456.689 756.522 539.818 756.522 539.818L769.183 537.029Z" fill="white"/>
<path d="M153.482 560.021C153.482 560.021 157.93 556.184 171.121 562.765C184.311 569.345 190.42 574.384 191.826 576.081" stroke="#ACD1FF" stroke-width="3.91694" stroke-linecap="round"/>
<path d="M196.424 570.42C200.642 568.07 205.626 565.72 215.595 564.152C239.168 560.445 246.654 568.852 259.308 559.843C269.43 552.635 276.179 553.969 272.728 553.967" stroke="#ACD1FF" stroke-width="3.91694" stroke-linecap="round"/>
<path d="M756.523 530.778C755.756 532.084 752.995 535.4 748.087 538.221C743.179 541.041 729.682 538.351 723.547 536.654C720.607 536.131 712.887 535.4 705.525 536.654" stroke="#ACD1FF" stroke-width="3.91694" stroke-linecap="round"/>
<path d="M752.689 543.311C752.689 543.311 758.824 535.086 767.26 537.044C771.734 537.697 781.831 535.087 781.831 535.087" stroke="#ACD1FF" stroke-width="3.91694" stroke-linecap="round"/>
<path d="M1079.26 573.374C1080.44 572.351 1095.95 569.4 1101.46 570.935C1106.96 572.47 1147.32 584.116 1163.45 577.466" stroke="#ACD1FF" stroke-width="3.91694" stroke-linecap="round"/>
<path d="M1206.52 577.229C1211.17 575.473 1223.96 572.253 1231.32 574.009C1237.21 575.414 1241.78 577.912 1243.33 578.985" stroke="#ACD1FF" stroke-width="3.91694" stroke-linecap="round"/>
<defs>
<clipPath id="clip0_607_384">
<rect width="40" height="63" fill="white" transform="translate(801 699.884)"/>
</clipPath>
<clipPath id="clip1_607_384">
<rect width="24.5401" height="66.588" fill="white" transform="translate(677.553 909.173)"/>
</clipPath>
</defs>
</svg>
