<svg width="155" height="155" viewBox="0 0 155 155" fill="none" xmlns="http://www.w3.org/2000/svg">
<circle cx="77.5" cy="77.5" r="77.5" fill="white"/>
<path d="M48.3161 98.0378C41.5481 94.0855 38.0558 91.3082 32.5054 84.9742C27.2033 96.6777 27.7701 103.022 35.2047 112.638C37.3494 111.309 37.5899 109.928 38.2898 107.643C44.5458 115.038 48.4184 118.901 56.7999 124.549C65.8317 127.934 70.6768 130.36 78.395 137.229C85.6071 130.509 90.6516 127.58 101.147 123.781C108.636 118.948 112.494 115.541 118.5 107.643C119.557 110.306 120.379 111.249 121.971 112.638C128.175 103.371 128.097 96.9066 124.67 84.2058C119.749 90.6764 116.59 93.8628 109.631 98.0378C109.975 99.8224 110.463 100.785 113.487 102.264C104.543 111.278 96.9724 116.439 89.5782 114.175C82.184 111.911 84.0577 90.6833 83.0225 65.763H105.003C107.194 62.4603 107.008 60.6095 105.003 57.3101H83.0225V47.3203H72.9962V57.3101H51.7867C48.9818 60.7936 48.5916 62.6634 51.7867 65.763H72.9962L71.8393 91.1218C71.5545 106.503 70.7674 113.26 65.6693 114.175C56.9503 113.296 52.3252 111.07 44.8454 102.264C46.9264 100.623 47.6264 99.6966 48.3161 98.0378Z" fill="#002E4E"/>
<ellipse cx="78.0027" cy="33.6101" rx="14.8349" ry="14.6101" fill="#002E4E"/>
<circle cx="77.5219" cy="33.9286" r="9.3309" fill="white"/>
</svg>
