<svg width="1416" height="2891" viewBox="0 0 1416 2891" fill="none" xmlns="http://www.w3.org/2000/svg">
<path d="M639.758 65.9964C640.369 66.3697 639.847 69.775 638.375 75.048C636.841 99.4249 636.758 164.5 636.758 164.5L592.258 151.313C614.476 139.641 632.93 94.5589 638.375 75.048C638.745 69.1676 639.2 65.6554 639.758 65.9964Z" fill="white" stroke="white" stroke-width="2"/>
<path d="M673.764 587.001C673.764 644.668 671.597 691.501 667.264 727.501C663.264 763.501 656.43 793.168 646.764 816.501C637.43 837.501 627.097 851.334 615.764 858.001C604.43 864.334 593.93 867.501 584.264 867.501C576.93 867.501 572.264 866.501 570.264 864.501C568.264 862.501 567.264 858.668 567.264 853.001V823.001L569.764 821.001H574.764C592.43 821.001 606.097 811.834 615.764 793.501C625.764 775.168 632.764 748.668 636.764 714.001C641.097 679.001 643.264 636.668 643.264 587.001V560.501L602.264 540.501V532.501H878.264V540.501L827.764 560.501V668.001H880.264C908.264 668.001 932.597 671.834 953.264 679.501C973.93 687.168 989.93 698.001 1001.26 712.001C1012.93 726.001 1018.76 742.501 1018.76 761.501C1018.76 780.834 1012.93 798.168 1001.26 813.501C989.93 828.834 973.764 840.834 952.764 849.501C932.097 858.168 907.764 862.501 879.764 862.501H735.264V854.501L775.764 834.501V560.001H673.764V587.001ZM872.764 695.501H827.764V835.001H876.264C905.597 835.001 927.43 828.501 941.764 815.501C956.43 802.168 963.764 785.334 963.764 765.001C963.764 740.668 956.43 723.001 941.764 712.001C927.097 701.001 904.097 695.501 872.764 695.501Z" fill="#02304A"/>
<path d="M90.2637 379V371L122.264 355V176.5H83.2637V153.5H122.264V134.5C122.264 121.5 126.097 107.5 133.764 92.5C141.764 77.5 152.597 63.3333 166.264 50C180.264 36.3333 196.264 25.3333 214.264 17C232.264 8.33331 251.43 3.99997 271.764 3.99997C279.43 3.99997 286.097 4.66664 291.764 5.99997C297.43 6.99998 302.097 8.16665 305.764 9.49999C318.097 13.1666 324.264 18 324.264 24C324.264 27.3333 323.43 30.6666 321.764 34L307.764 60.5H302.764L289.264 54.5C279.93 50.1666 271.43 46.8333 263.764 44.5C256.097 42.1666 246.597 41 235.264 41C210.93 41 193.764 48.3333 183.764 63C174.097 77.3333 169.264 96.3333 169.264 120V153.5H343.264V355L374.264 371V379H264.264V371L296.264 355V176.5H169.264V356L205.764 371V379H90.2637Z" fill="#02304A"/>
<path d="M568.264 380C552.264 380 538.43 378.5 526.764 375.5C515.43 372.833 503.93 368.5 492.264 362.5V306.5H499.764L515.764 333.5C526.764 351.833 543.764 361 566.764 361C580.097 361 590.264 358 597.264 352C604.597 346 608.264 337.667 608.264 327C608.264 318.333 605.93 311.333 601.264 306C596.93 300.667 590.43 296 581.764 292C573.43 288 563.264 283.167 551.264 277.5C533.93 269.833 520.597 261.333 511.264 252C502.264 242.667 497.764 229.833 497.764 213.5C497.764 200.5 501.264 188.833 508.264 178.5C515.597 168.167 524.93 160 536.264 154C547.597 147.667 559.597 144.5 572.264 144.5C584.264 144.5 595.93 146 607.264 149C601.264 141.333 596.264 132.5 592.264 122.5C588.597 112.5 586.764 101.667 586.764 90C586.764 72 590.764 56.3333 598.764 43C606.764 29.3333 617.764 18.8333 631.764 11.5C645.764 3.8333 661.597 -2.98023e-05 679.264 -2.98023e-05C711.93 -2.98023e-05 735.764 9.49998 750.764 28.5C766.097 47.5 773.764 72.6666 773.764 104V149.5H840.764V172.5H773.764V321C773.764 329.667 777.43 336 784.764 340C792.43 344 801.597 346 812.264 346C818.264 346 823.93 345.667 829.264 345C834.597 344.333 839.43 343.5 843.764 342.5H845.264V348.5C841.264 356.167 833.93 363.333 823.264 370C812.93 376.667 799.93 380 784.264 380C768.264 380 754.597 375.667 743.264 367C732.264 358.333 726.764 346.167 726.764 330.5V172.5H686.764V168.5L730.264 148.5V98C730.264 75 725.097 56.6667 714.764 43C704.764 29 688.93 22 667.264 22C649.597 22 634.764 27.8333 622.764 39.5C611.097 50.8333 605.264 67.1667 605.264 88.5C605.264 100.833 607.597 112.667 612.264 124C617.264 135.333 625.764 147.667 637.764 161V216.5H630.764L614.264 190.5C603.264 173.167 589.764 164.5 573.764 164.5C562.764 164.5 553.93 167.333 547.264 173C540.597 178.333 537.264 185.833 537.264 195.5C537.264 206.167 541.097 214.5 548.764 220.5C556.764 226.167 569.097 232.667 585.764 240C595.43 244.333 604.93 249 614.264 254C623.597 258.667 631.264 265.333 637.264 274C643.597 282.333 646.764 294.333 646.764 310C646.764 325.333 642.597 338.167 634.264 348.5C626.264 358.833 616.264 366.667 604.264 372C592.264 377.333 580.264 380 568.264 380Z" fill="#02304A"/>
<path d="M984.264 389V381L1016.26 365V186.5H977.264V163.5H1016.26V144.5C1016.26 131.5 1020.1 117.5 1027.76 102.5C1035.76 87.5 1046.6 73.3333 1060.26 60C1074.26 46.3333 1090.26 35.3333 1108.26 27C1126.26 18.3333 1145.43 14 1165.76 14C1173.43 14 1180.1 14.6666 1185.76 16C1191.43 17 1196.1 18.1667 1199.76 19.5C1202.76 20.5 1205.43 21.5 1207.76 22.5L1224.76 14H1232.76V365L1264.26 381V389H1153.76V381L1185.76 365V60.5C1171.1 52.5 1153.6 48.5 1133.26 48.5C1108.93 48.5 1091.1 56.1666 1079.76 71.5C1068.76 86.8333 1063.26 106.333 1063.26 130V163.5H1127.76V186.5H1063.26V366L1099.76 381V389H984.264Z" fill="#02304A"/>
<path d="M1069.76 862.501V854.501L1101.26 838.501V660.501H1062.26V637.001H1101.26V622.501C1101.26 605.501 1103.93 589.001 1109.26 573.001C1114.93 557.001 1122.93 542.501 1133.26 529.501C1143.6 516.501 1156.1 506.334 1170.76 499.001C1185.76 491.334 1202.76 487.501 1221.76 487.501C1249.43 487.501 1270.6 493.834 1285.26 506.501C1300.26 519.168 1307.76 534.168 1307.76 551.501C1307.76 562.168 1305.6 571.668 1301.26 580.001C1296.93 588.001 1291.6 595.668 1285.26 603.001C1278.93 610.001 1272.43 617.001 1265.76 624.001C1259.43 631.001 1254.1 638.501 1249.76 646.501C1245.43 654.501 1243.26 663.501 1243.26 673.501C1243.26 680.501 1245.1 686.501 1248.76 691.501C1252.76 696.501 1258.43 701.834 1265.76 707.501C1273.43 712.834 1282.76 719.834 1293.76 728.501C1310.76 741.501 1322.43 753.168 1328.76 763.501C1335.43 773.501 1338.76 785.334 1338.76 799.001C1338.76 811.668 1335.1 823.168 1327.76 833.501C1320.76 843.834 1311.43 852.168 1299.76 858.501C1288.1 864.501 1275.26 867.501 1261.26 867.501C1245.93 867.501 1232.6 866.001 1221.26 863.001C1209.93 860.334 1198.43 856.001 1186.76 850.001V794.001H1193.76L1210.26 821.001C1215.26 829.334 1221.6 836.001 1229.26 841.001C1237.26 846.001 1246.6 848.501 1257.26 848.501C1269.6 848.501 1279.6 845.334 1287.26 839.001C1294.93 832.668 1298.76 823.668 1298.76 812.001C1298.76 803.001 1296.26 795.334 1291.26 789.001C1286.6 782.334 1280.1 776.168 1271.76 770.501C1263.43 764.501 1254.1 757.834 1243.76 750.501C1232.43 742.834 1222.76 734.668 1214.76 726.001C1206.76 717.001 1202.76 704.668 1202.76 689.001C1202.76 679.334 1204.76 671.001 1208.76 664.001C1213.1 656.668 1218.26 649.834 1224.26 643.501C1230.26 636.834 1236.26 629.834 1242.26 622.501C1248.26 614.834 1253.26 606.001 1257.26 596.001C1261.6 586.001 1263.76 574.001 1263.76 560.001C1263.76 545.668 1259.1 533.501 1249.76 523.501C1240.76 513.501 1227.43 508.501 1209.76 508.501C1187.43 508.501 1171.6 515.834 1162.26 530.501C1153.26 544.834 1148.76 563.834 1148.76 587.501V862.501H1069.76Z" fill="#02304A"/>
<path d="M66.2656 855V847L106.766 827V553L66.2656 533V525H198.766V533L159.266 553V666H304.266V553L263.766 533V525H407.266V533L356.766 553V666H408.766C437.099 666 461.599 669.833 482.266 677.5C502.932 684.833 518.932 695.333 530.266 709C541.932 722.333 547.766 738.333 547.766 757C547.766 776.333 541.932 793.333 530.266 808C518.932 822.667 502.766 834.167 481.766 842.5C460.766 850.833 436.266 855 408.266 855H263.766V847L304.266 827V693.5H159.266V827L198.766 847V855H66.2656ZM401.766 693.5H356.766V827.5H405.266C434.266 827.5 455.932 821.333 470.266 809C484.932 796.667 492.266 780.5 492.266 760.5C492.266 736.833 484.932 719.833 470.266 709.5C455.599 698.833 432.766 693.5 401.766 693.5Z" fill="#02304A"/>
<path d="M827.215 612.114C840.145 598.401 841.485 556.267 834.032 554.653C826.578 553.039 821.761 571.142 821.761 578.136C821.761 585.131 802.673 599.621 794.492 606.117C786.311 612.612 759.043 621.607 755.861 655.584C753.316 682.766 768.435 698.888 776.313 703.552V673.072C776.313 670.075 772.677 662.08 777.222 653.586C781.767 645.092 817.78 622.12 827.215 612.114Z" fill="#450809"/>
<path d="M765.315 661.052C763.112 657.052 763.174 647.718 763.48 643.552C761.797 646.552 758.707 655.852 759.808 669.052C760.909 682.252 769.446 692.885 773.576 696.552V675.052C771.74 672.052 767.518 665.052 765.315 661.052Z" fill="#D4ECFF"/>
<path d="M770.139 631.783C765.498 639.463 768.205 652.162 770.139 657.552C771.924 649.973 787.097 637.341 789.775 633.804C791.917 630.975 794.535 616.457 795.576 609.552C789.031 613.762 774.78 624.103 770.139 631.783Z" fill="#D4ECFF"/>
<path d="M796.576 630.552L800.29 607.781L822.576 588.552C822.576 592.937 822.298 603.328 821.183 609.805C820.069 616.282 804.314 626.335 796.576 630.552Z" fill="#D4ECFF"/>
<path d="M828.494 599.516C828.494 594.021 825.726 581.034 825.726 580.035C824.836 574.84 828.123 566.215 829.878 562.552C835.414 564.55 833.569 580.035 834.491 583.531C835.414 587.028 828.494 605.01 828.494 599.516Z" fill="#D4ECFF"/>
<path d="M685.163 298.347C714.282 232.302 675.191 129.979 652.255 86.8284V79.501C652.255 79.501 660.888 82.2071 685.662 99.0408C716.577 120.046 745.496 159.126 779.9 210.418C807.424 251.451 825.607 316.096 831.258 343.289C825.607 341.823 804.632 337.622 765.939 332.542C727.246 327.461 667.214 348.352 661.23 351.772L652.754 355.501L651.258 351.772C654.416 350.795 668.011 338.599 685.163 298.347Z" fill="white" stroke="white" stroke-width="2"/>
<path d="M643.258 399.501V33.2163C643.258 31.8721 643.96 30.7893 644.31 30.416C644.31 29.8559 650.1 27.6156 651.679 33.2163C652.942 37.6969 653.258 279.273 653.258 399.501H643.258Z" fill="#450809"/>
<path d="M152.84 223.019C106.44 221.419 61.5065 255.685 44.8398 273.019C44.1732 274.019 42.9398 276.319 43.3398 277.519C43.8398 279.019 51.8398 287.019 56.8398 290.519C61.8398 294.019 92.8398 314.519 111.34 318.519C129.84 322.519 151.34 326.019 172.34 325.019C193.34 324.019 200.34 322.019 231.34 311.519C262.34 301.019 298.84 287.019 304.34 286.019C309.84 285.019 316.84 287.519 321.34 290.019C325.84 292.519 340.84 311.019 352.84 320.519C362.44 328.119 386.84 333.019 397.84 334.519C396.84 330.185 393.44 318.519 387.84 306.519C382.24 294.519 368.507 281.519 362.34 276.519C367.507 272.352 378.84 262.518 382.84 256.518C389.64 250.518 395.673 230.018 397.84 220.518C373.84 220.018 356.84 230.518 349.34 235.018C341.84 239.518 325.84 264.018 316.84 267.018C307.84 270.018 290.34 265.518 273.84 256.518C257.34 247.518 210.84 225.019 152.84 223.019Z" fill="#ACD1FF" stroke="#D4ECFF" stroke-width="5"/>
<path d="M133.341 278.019C134.941 269.619 129.674 257.853 126.841 253.019C126.841 252.686 127.041 251.719 127.842 250.519C128.843 249.019 128.842 249.019 134.842 251.019C140.842 253.019 141.842 261.019 142.342 264.519C142.842 268.019 143.842 279.519 140.842 290.019C137.842 300.519 126.841 306.519 123.341 307.019C119.841 307.519 119.841 304.519 121.341 303.019C122.841 301.519 131.341 288.519 133.341 278.019Z" fill="#450809"/>
<circle cx="92.3418" cy="269.019" r="10" fill="#450809"/>
<path d="M627.758 427.304C566.558 426.199 528.591 404.292 517.258 393.476H523.758C534.958 395.409 724.758 388.298 818.258 384.501C800.758 395.087 762.758 416.879 750.758 419.365C735.758 422.471 704.258 428.685 627.758 427.304Z" fill="#450809"/>
<path d="M680.258 30.1191C665.591 27.4883 653.591 34.0654 652.258 34.7231V75.501C656.924 73.3086 667.058 68.6608 670.258 67.6084C674.258 66.293 688.258 68.9239 698.258 70.2393C708.258 71.5547 719.591 69.5816 727.591 68.9239C733.991 68.3977 753.369 58.6197 762.258 53.7965C751.369 54.0157 727.324 53.0072 718.258 47.2194C706.924 39.9845 694.924 32.75 680.258 30.1191Z" fill="#ACD1FF"/>
<path d="M331.436 415.399C354.758 417.003 386.08 399.044 397.264 391.359C395.247 391.359 385.78 394.95 376.539 397.355C364.989 400.362 345.737 394.348 332.536 392.844C319.335 391.34 305.034 375.803 299.534 373.297C294.034 370.791 279.733 398.358 257.731 402.869C235.729 407.38 204.377 393.847 186.776 389.336C169.175 384.825 152.123 372.294 122.421 361.267C92.7191 350.241 89.4189 356.255 63.017 355.253C41.8955 354.451 23.0475 373.631 16.2637 383.321C25.0643 378.81 46.4058 369.889 61.3669 370.29C80.0682 370.791 104.27 376.304 126.272 389.336C148.273 402.368 186.226 417.906 200.527 422.918C214.828 427.93 244.53 428.932 265.982 425.424C287.433 421.915 294.034 411.39 299.534 410.387C305.034 409.385 302.284 413.395 331.436 415.399Z" fill="#ACD1FF"/>
<path d="M223.445 369.766C215.954 368.942 194.255 359.128 184.342 354.325C179.385 351.408 165.947 344.133 151.848 338.369C134.224 331.163 112.195 330.648 102.281 331.163L102.042 331.175C91.8633 331.703 60.2809 333.34 42.2501 348.148C27.7105 360.089 18.201 377.486 15.2637 384.692C29.0323 367.707 45.5546 358.957 57.671 356.383C69.7874 353.81 107.238 357.413 115.499 361.016C134.004 363.898 164.699 380.06 177.733 387.78C190.033 394.472 222.123 407.339 252.084 405.281C282.044 403.222 296.143 385.893 299.448 377.486C306.975 383.834 327.315 397.251 348.464 400.133C374.9 403.736 400.785 393.957 408.495 386.236C416.426 381.295 420.979 370.795 422.264 366.163C419.51 367.878 411.359 371.825 400.785 373.883C387.567 376.457 372.697 374.398 351.218 371.31C329.739 368.222 317.072 355.354 307.158 349.692C299.227 345.163 284.761 331.677 278.519 325.501C278.703 327.045 278.96 331.986 278.519 339.398C277.969 348.663 275.215 354.325 266.954 362.56C258.692 370.795 232.807 370.795 223.445 369.766Z" fill="#D4ECFF"/>
<path d="M1162.1 783.275C1156.1 795.775 1154.1 816.775 1155.1 825.775C1148.6 818.442 1135.7 800.475 1136.1 787.275C1133.94 784.275 1128.9 775.175 1126.1 762.775C1122.6 747.275 1123.6 732.775 1123.6 729.275C1123.6 725.775 1124.6 711.775 1134.6 712.775C1144.6 713.775 1144.6 725.275 1144.1 737.275C1143.6 749.275 1136.6 770.775 1136.1 787.275C1135.7 800.475 1148.6 818.442 1155.1 825.775C1154.1 816.775 1156.1 795.775 1162.1 783.275C1170.6 762.775 1170.6 741.275 1171.1 723.775C1171.5 709.775 1161.94 695.941 1157.1 690.775C1155.77 685.275 1154.9 673.575 1162.1 670.775C1171.1 667.275 1179.6 674.275 1184.6 688.275C1192.6 699.775 1185.6 734.775 1181.6 746.775C1177.6 758.775 1168.1 770.775 1162.1 783.275Z" fill="#ACD1FF"/>
<path d="M1098.1 698.275C1102.1 713.875 1115.77 737.108 1122.1 746.775C1117.23 727.275 1112.6 702.774 1113.1 690.775C1113.6 678.775 1134.6 669.275 1128.6 654.275C1122.6 639.275 1113.1 645.275 1106.1 651.275C1099.1 657.275 1093.1 678.775 1098.1 698.275Z" fill="#ACD1FF"/>
<path d="M1168.1 847.775C1164.1 843.442 1155.9 832.975 1155.1 825.775M1155.1 825.775C1154.1 816.775 1156.1 795.775 1162.1 783.275M1155.1 825.775C1148.6 818.442 1135.7 800.475 1136.1 787.275M1162.1 783.275C1168.1 770.775 1177.6 758.775 1181.6 746.775C1185.6 734.775 1192.6 699.775 1184.6 688.275C1179.6 674.275 1171.1 667.275 1162.1 670.775C1154.9 673.575 1155.77 685.275 1157.1 690.775C1161.94 695.941 1171.5 709.775 1171.1 723.775C1170.6 741.275 1170.6 762.775 1162.1 783.275ZM1136.1 787.275C1136.6 770.775 1143.6 749.275 1144.1 737.275C1144.6 725.275 1144.6 713.775 1134.6 712.775C1124.6 711.775 1123.6 725.775 1123.6 729.275C1123.6 732.775 1122.6 747.275 1126.1 762.775C1128.9 775.175 1133.94 784.275 1136.1 787.275ZM1122.1 746.775C1115.77 737.108 1102.1 713.875 1098.1 698.275C1093.1 678.775 1099.1 657.275 1106.1 651.275C1113.1 645.275 1122.6 639.275 1128.6 654.275C1134.6 669.275 1113.6 678.775 1113.1 690.775C1112.6 702.774 1117.23 727.275 1122.1 746.775Z" stroke="#450809" stroke-width="5"/>
<path d="M1193.6 791.273C1183.6 802.873 1177.44 834.106 1175.6 848.273C1176.77 833.106 1180.2 800.472 1184.6 791.273C1190.1 779.773 1206.6 740.273 1212.1 734.773C1214.77 720.44 1220.1 689.973 1220.1 682.773C1220.1 673.773 1212.1 651.773 1203.6 643.273C1195.1 634.773 1188.6 622.773 1189.6 615.773C1190.6 608.773 1193.6 603.773 1212.1 615.773C1230.6 627.773 1228.6 665.773 1226.6 686.773C1225 703.573 1216.27 725.773 1212.1 734.773C1217.6 729.273 1245.6 702.773 1252.1 673.773C1252.32 672.829 1252.53 671.862 1252.75 670.875C1255.33 657.904 1257.21 630.384 1247.6 603.773C1234.6 567.773 1234.6 544.273 1234.6 531.273C1234.6 518.273 1246.1 484.273 1259.6 481.773C1270.4 479.773 1275.1 489.273 1276.1 494.273C1277.1 499.607 1277.9 511.673 1273.1 517.273C1267.1 524.273 1251.6 548.773 1249.6 561.773C1248 572.173 1247.6 594.107 1247.6 603.773C1257.21 630.384 1255.33 657.904 1252.75 670.875C1259.22 641.558 1268.27 594.415 1273.1 583.773C1278.1 572.773 1288.6 565.773 1294.1 567.773C1299.6 569.773 1305.6 576.273 1302.6 583.773C1299.6 591.273 1271.1 638.273 1267.1 643.273C1263.9 647.273 1255.77 665.273 1252.1 673.773C1245.6 702.773 1217.6 729.273 1212.1 734.773C1206.6 740.273 1190.1 779.773 1184.6 791.273C1180.2 800.472 1176.77 833.106 1175.6 848.273C1177.44 834.106 1183.6 802.873 1193.6 791.273C1206.1 776.773 1219.6 756.773 1234.6 749.773C1240.27 743.44 1253.9 728.973 1263.1 721.773C1274.6 712.773 1274.6 690.273 1281.6 675.773C1288.6 661.272 1295.6 661.773 1299.6 659.773C1303.6 657.773 1314.1 660.773 1315.6 675.773C1317.1 690.773 1285.1 719.273 1278.1 726.773C1271.1 734.273 1249.6 742.773 1234.6 749.773C1219.6 756.773 1206.1 776.773 1193.6 791.273Z" fill="#ACD1FF"/>
<path d="M1234.6 749.773C1219.6 756.773 1206.1 776.773 1193.6 791.273C1183.6 802.873 1177.44 834.106 1175.6 848.273C1176.77 833.106 1180.2 800.472 1184.6 791.273C1190.1 779.773 1206.6 740.273 1212.1 734.773M1234.6 749.773C1249.6 742.773 1271.1 734.273 1278.1 726.773C1285.1 719.273 1317.1 690.773 1315.6 675.773C1314.1 660.773 1303.6 657.773 1299.6 659.773C1295.6 661.773 1288.6 661.272 1281.6 675.773C1274.6 690.273 1274.6 712.773 1263.1 721.773C1253.9 728.973 1240.27 743.44 1234.6 749.773ZM1212.1 734.773C1217.6 729.273 1245.6 702.773 1252.1 673.773M1212.1 734.773C1216.27 725.773 1225 703.573 1226.6 686.773C1228.6 665.773 1230.6 627.773 1212.1 615.773C1193.6 603.773 1190.6 608.773 1189.6 615.773C1188.6 622.773 1195.1 634.773 1203.6 643.273C1212.1 651.773 1220.1 673.773 1220.1 682.773C1220.1 689.973 1214.77 720.44 1212.1 734.773ZM1252.1 673.773C1258.6 644.773 1268.1 594.773 1273.1 583.773C1278.1 572.773 1288.6 565.773 1294.1 567.773C1299.6 569.773 1305.6 576.273 1302.6 583.773C1299.6 591.273 1271.1 638.273 1267.1 643.273C1263.9 647.273 1255.77 665.273 1252.1 673.773ZM1252.1 673.773C1254.94 662.44 1258 632.574 1247.6 603.773M1247.6 603.773C1234.6 567.773 1234.6 544.273 1234.6 531.273C1234.6 518.273 1246.1 484.273 1259.6 481.773C1270.4 479.773 1275.1 489.273 1276.1 494.273C1277.1 499.607 1277.9 511.673 1273.1 517.273C1267.1 524.273 1251.6 548.773 1249.6 561.773C1248 572.173 1247.6 594.107 1247.6 603.773Z" stroke="#450809" stroke-width="5"/>
<path d="M1119.6 862.773C1133.1 857.107 1162.5 846.273 1172.1 848.273C1184.1 850.773 1199.6 862.773 1213.6 862.773C1224.8 862.773 1231.6 859.44 1233.6 857.773" stroke="#450809" stroke-width="5" stroke-linecap="round"/>
<path d="M1268.6 768.275C1251.1 770.275 1225.1 795.775 1210.6 807.775C1226.6 804.108 1259.6 796.574 1263.6 795.774C1268.6 794.774 1286.6 782.275 1286.1 777.275C1285.6 772.275 1286.1 766.275 1268.6 768.275Z" fill="#ACD1FF"/>
<path d="M1178.6 848.775C1184.44 839.108 1199 817.375 1210.6 807.775M1210.6 807.775C1225.1 795.775 1251.1 770.275 1268.6 768.275C1286.1 766.275 1285.6 772.275 1286.1 777.275C1286.6 782.275 1268.6 794.774 1263.6 795.774C1259.6 796.574 1226.6 804.108 1210.6 807.775Z" stroke="#450809" stroke-width="5"/>
<g clip-path="url(#clip0_667_2)">
<path d="M1069.76 862.501V854.501L1101.26 838.501V660.501H1062.26V637.001H1101.26V622.501C1101.26 605.501 1103.92 589.001 1109.26 573.001C1114.92 557.001 1122.92 542.501 1133.26 529.501C1143.59 516.501 1156.09 506.334 1170.76 499.001C1185.76 491.334 1202.76 487.501 1221.76 487.501C1249.42 487.501 1270.59 493.834 1285.26 506.501C1300.26 519.168 1307.76 534.168 1307.76 551.501C1307.76 562.168 1305.59 571.668 1301.26 580.001C1296.92 588.001 1291.59 595.668 1285.26 603.001C1278.92 610.001 1272.42 617.001 1265.76 624.001C1259.42 631.001 1254.09 638.501 1249.76 646.501C1245.42 654.501 1243.26 663.501 1243.26 673.501C1243.26 680.501 1245.09 686.501 1248.76 691.501C1252.76 696.501 1258.42 701.834 1265.76 707.501C1273.42 712.834 1282.76 719.834 1293.76 728.501C1310.76 741.501 1322.42 753.168 1328.76 763.501C1335.42 773.501 1338.76 785.334 1338.76 799.001C1338.76 811.668 1335.09 823.168 1327.76 833.501C1320.76 843.834 1311.42 852.168 1299.76 858.501C1288.09 864.501 1275.26 867.501 1261.26 867.501C1245.92 867.501 1232.59 866.001 1221.26 863.001C1209.92 860.334 1198.42 856.001 1186.76 850.001V794.001H1193.76L1210.26 821.001C1215.26 829.334 1221.59 836.001 1229.26 841.001C1237.26 846.001 1246.59 848.501 1257.26 848.501C1269.59 848.501 1279.59 845.334 1287.26 839.001C1294.92 832.668 1298.76 823.668 1298.76 812.001C1298.76 803.001 1296.26 795.334 1291.26 789.001C1286.59 782.334 1280.09 776.168 1271.76 770.501C1263.42 764.501 1254.09 757.834 1243.76 750.501C1232.42 742.834 1222.76 734.668 1214.76 726.001C1206.76 717.001 1202.76 704.668 1202.76 689.001C1202.76 679.334 1204.76 671.001 1208.76 664.001C1213.09 656.668 1218.26 649.834 1224.26 643.501C1230.26 636.834 1236.26 629.834 1242.26 622.501C1248.26 614.834 1253.26 606.001 1257.26 596.001C1261.59 586.001 1263.76 574.001 1263.76 560.001C1263.76 545.668 1259.09 533.501 1249.76 523.501C1240.76 513.501 1227.42 508.501 1209.76 508.501C1187.42 508.501 1171.59 515.834 1162.26 530.501C1153.26 544.834 1148.76 563.834 1148.76 587.501V862.501H1069.76Z" fill="#02304A"/>
</g>
<path d="M825.41 730.868V695H837.639C839.134 699.041 842.694 708.64 844.977 714.702C847.831 722.28 845.793 738.446 840.085 757.138C834.378 775.83 822.148 787.954 818.072 793.006C813.995 798.058 801.765 812.708 800.542 818.265C799.32 823.822 790.351 841.504 789.943 848.577C789.536 855.649 786.274 881.919 786.682 887.981C787.008 892.831 790.623 913.577 792.389 923.344C792.933 923.344 794.428 923.849 796.058 925.87C801.602 930.316 815.992 959.212 818.846 976.389L816.807 1077.43H802.988V990.029C802.988 986.661 802.418 979.521 800.135 977.904C797.852 976.288 790.759 959.044 787.497 950.624C784.916 947.425 779.181 939.914 776.898 935.469C774.615 931.023 772.142 918.461 771.191 912.735C770.24 909.367 768.011 901.318 766.707 896.064C765.402 890.81 767.25 876.362 768.338 869.794C768.474 866.258 768.664 857.67 768.338 851.608C767.93 844.03 774.045 830.39 774.452 828.369C774.86 826.348 777.306 815.74 779.752 806.646C782.198 797.553 794.428 791.491 796.058 786.944C797.689 782.397 806.657 770.778 810.734 765.726C814.811 760.674 819.295 758.653 820.11 750.065C820.762 743.195 823.915 734.405 825.41 730.868Z" fill="#450809"/>
<path d="M827.258 726.363V695H833.353C833.988 698.085 835.258 705.386 835.258 709.91C835.258 714.435 829.924 722.764 827.258 726.363Z" fill="#D4ECFF"/>
<path d="M828.197 733.701C832.115 729.198 837.176 716.816 839.217 711.188C839.897 713.234 841.258 718.863 841.258 725.003C841.258 732.678 840.033 739.841 839.217 742.399C837.911 750.177 826.7 754.509 821.258 755.703C821.938 750.245 824.278 738.204 828.197 733.701Z" fill="#D4ECFF"/>
<path d="M818.089 763.987C812.28 772.02 800.582 788.286 800.258 789.089H809.173C814.441 789.089 819.71 784.069 823.357 780.052C827.004 776.036 838.351 751.938 835.919 754.951C833.974 757.36 823.222 761.979 818.089 763.987Z" fill="#D4ECFF"/>
<path d="M794.245 797.183C789.384 799.206 780.473 820.958 779.258 823.487C780.878 823.487 791.545 817.754 796.676 814.888L811.258 795.159C807.207 795.159 798.134 795.564 794.245 797.183Z" fill="#D4ECFF"/>
<path d="M785.333 845.531C783.352 849.122 772.654 859.894 772.258 860.92C772.258 858.013 772.416 850.866 773.05 845.531C773.843 838.862 777.409 834.245 779.39 830.655C780.975 827.782 789.296 825.354 793.258 824.499C791.277 830.313 786.918 842.658 785.333 845.531Z" fill="#D4ECFF"/>
<path d="M782.187 882.959C781.358 886.536 773.903 903.402 773.488 904.424C769.76 896.758 771.832 873.76 771.832 871.715C771.832 870.08 780.116 859.79 784.258 854.85C783.844 863.027 782.849 880.097 782.187 882.959Z" fill="#D4ECFF"/>
<path d="M776.852 919.871C774.563 908.831 779.44 897.554 782.166 893.295C784.209 900.62 788.461 916.395 789.115 920.893C789.769 925.39 788.025 937.417 787.071 942.869C784.618 939.802 779.141 930.91 776.852 919.871Z" fill="#D4ECFF"/>
<path d="M811.758 965.379C811.758 955.616 797.528 933.268 794.028 927.693C793.048 932.254 791.424 943.504 792.768 952.018C794.112 960.532 800.678 970.767 803.758 974.991C805.39 978.538 811.758 968.42 811.758 965.379Z" fill="#D4ECFF"/>
<path d="M794.882 1912.3C794.613 1956.41 794.78 2000.38 795.462 2044.48C795.904 2073.12 796.639 2101.93 808.729 2126.61V2126.61C815.595 2140.63 824.342 2153.27 836.63 2162.75C848.878 2172.2 864.855 2178.66 886.474 2179.98C929.382 2182.61 963.424 2154.04 973.542 2130.5C983.851 2106.51 984.391 2074.88 982.277 2054.8C980.735 2040.16 976.267 2026.02 970.85 2011.92C967.726 2003.79 964.187 1995.44 960.778 1987.09C960.148 1998.72 958.36 2010.26 955.457 2021.53C953.52 2029.05 951.091 2036.44 948.184 2043.64L947.596 2045.08C946.795 2047.01 945.958 2048.93 945.088 2050.83C945.217 2050.72 945.349 2050.61 945.48 2050.5C949.087 2047.41 953.313 2043.61 956.143 2040.5L962.233 2033.79V2067.73L962.23 2067.8C961.249 2094.77 958.899 2109.41 946.687 2126.79V2126.79C931.747 2148.06 903.925 2158.6 878.876 2153.09L878.877 2153.09C850.926 2146.96 832.112 2124.41 826.084 2097.02C825.073 2092.43 824.41 2084.47 823.953 2075.11C823.491 2065.65 823.229 2054.5 823.082 2043.36C822.788 2021.14 822.949 1998.74 822.896 1990.17V1990.09L826.396 1990.14C822.897 1990.09 822.896 1990.09 822.896 1990.09V1990.08C822.897 1990.07 822.897 1990.06 822.897 1990.05C822.898 1990.02 822.899 1989.98 822.899 1989.92C822.901 1989.81 822.904 1989.64 822.907 1989.42C822.914 1988.98 822.923 1988.34 822.936 1987.51C822.961 1985.86 822.998 1983.48 823.044 1980.58C823.135 1974.77 823.26 1966.84 823.4 1958.4C823.681 1941.52 824.02 1922.52 824.251 1914.15C824.268 1913.51 824.287 1912.91 824.305 1912.34C814.495 1912.33 804.688 1912.31 794.882 1912.3Z" fill="#450809" stroke="#450809" stroke-width="7"/>
<path d="M788.543 1851.73H828.413C831.266 1851.73 833.578 1854.08 833.578 1856.97V1908.24C833.578 1911.14 831.266 1913.48 828.413 1913.48H788.543C785.691 1913.48 783.378 1911.14 783.378 1908.24V1856.97C783.378 1854.08 785.691 1851.73 788.543 1851.73Z" fill="#450809"/>
<path d="M827.365 1884.86V1892.93L787.495 1893.74V1884.86H827.365Z" fill="#D4ECFF"/>
<path d="M812.332 1885.22V1893.24L787.496 1893.45V1884.86L812.332 1885.22Z" fill="#D4ECFF"/>
<path d="M828.213 1899.83V1907.91L788.343 1908.71V1899.83H828.213Z" fill="#D4ECFF"/>
<path d="M813.18 1900.2V1908.21L788.344 1908.43V1899.83L813.18 1900.2Z" fill="#D4ECFF"/>
<path d="M828.213 1870.81V1878.89L788.343 1879.69V1870.81H828.213Z" fill="#D4ECFF"/>
<path d="M813.18 1871.18V1879.19L788.344 1879.41V1870.81L813.18 1871.18Z" fill="#D4ECFF"/>
<path d="M828.213 1857.03V1865.1L788.343 1865.91V1857.03H828.213Z" fill="#D4ECFF"/>
<path d="M813.18 1857.4V1865.41L788.344 1865.63V1857.03L813.18 1857.4Z" fill="#D4ECFF"/>
<path d="M808.283 1860.85C781.208 1860.85 759.259 1838.6 759.259 1811.16C759.259 1783.72 781.208 1761.47 808.283 1761.47C835.358 1761.47 857.307 1783.72 857.307 1811.16C857.307 1838.6 835.358 1860.85 808.283 1860.85Z" fill="#450809"/>
<path d="M809.09 1854.92C785.244 1854.92 765.913 1835.33 765.913 1811.16C765.913 1786.99 785.244 1767.4 809.09 1767.4C832.936 1767.4 852.268 1786.99 852.268 1811.16C852.268 1835.33 832.936 1854.92 809.09 1854.92Z" fill="#D4ECFF"/>
<path d="M808.722 1838.32C794.74 1838.32 783.405 1826.83 783.405 1812.66C783.405 1798.48 794.74 1787 808.722 1787C822.704 1787 834.039 1798.48 834.039 1812.66C834.039 1826.83 822.704 1838.32 808.722 1838.32Z" fill="#450809"/>
<path d="M818.331 1794.22C817.876 1794.62 817.415 1795.03 817.328 1795.1C816.861 1795.47 816.366 1795.83 815.872 1796.17C814.723 1796.94 813.507 1797.62 812.224 1798.14C810.633 1798.78 808.91 1799.18 807.192 1799.01C801.713 1798.48 798.834 1794.26 798.827 1794.24C798.787 1794.19 795.7 1796.79 795.446 1797.03C794.016 1798.37 792.793 1799.93 791.811 1801.63C789.853 1805.04 788.851 1809.03 789.118 1812.98C789.559 1819.65 793.575 1825.96 799.381 1829.11C802.248 1830.67 805.488 1831.08 806.571 1831.23C808.375 1831.5 810.58 1831.83 813.293 1831.33C817.85 1830.5 820.83 1827.9 821.832 1827.01C826.262 1823.05 827.485 1818.1 827.859 1816.5C827.859 1816.5 830.064 1807.53 824.645 1799.18C823.983 1798.16 823.262 1797.18 822.46 1796.27C821.511 1795.2 820.422 1794.28 819.293 1793.4C819.273 1793.39 818.805 1793.79 818.324 1794.21L818.331 1794.22Z" fill="#450809"/>
<path d="M796.642 1754.91C796.642 1754.91 800.825 1780.89 798.907 1789.72C796.989 1798.55 812.852 1796.43 814.769 1794.13C816.687 1791.84 820.696 1788.65 820.001 1773.99L820.081 1765.64C820.081 1765.64 828.473 1760.07 828.413 1753.25C828.353 1746.43 825.273 1744.97 825.273 1744.97C825.273 1744.97 830.177 1740.73 829.128 1734.57C828.079 1728.41 825.273 1727.48 825.273 1727.48C825.273 1727.48 830.438 1721.78 828.413 1716.68C827.959 1713.76 823.77 1707.01 813.573 1704.15C803.377 1701.3 797.103 1699.65 793.962 1700.71C790.822 1701.76 787.361 1707.4 789.646 1712.63C791.931 1717.87 794.811 1719.19 794.811 1719.19C794.811 1719.19 789.846 1723.63 790.755 1728.33C791.664 1733.04 794.283 1735.69 794.283 1735.69C794.283 1735.69 790.034 1739.2 789.967 1743.31C789.9 1747.42 796.635 1754.9 796.635 1754.9L796.642 1754.91Z" fill="#450809"/>
<path d="M802.209 1757.7C802.196 1758.25 802.249 1758.8 802.296 1759.34C802.791 1764.63 803.318 1770.02 803.626 1775.37C803.779 1778.1 803.88 1780.83 803.893 1783.56C803.893 1784.93 803.88 1786.31 803.84 1787.67C803.813 1788.51 803.679 1788.86 804.441 1789.17C812.646 1792.53 815.913 1780.19 815.867 1774.34C815.827 1769.58 814.383 1763.71 810.708 1760.45C808.383 1758.4 805.283 1757.58 802.303 1756.8C802.249 1757.1 802.223 1757.39 802.216 1757.69L802.209 1757.7Z" fill="#D4ECFF"/>
<path d="M823.569 1751.66C823.569 1751.66 819.647 1742.59 806.444 1740.4C793.241 1738.21 794.811 1744.38 794.811 1744.38C794.811 1744.38 794.029 1749.68 802.782 1751.66C811.535 1753.65 814.809 1754.85 817.95 1758.02C821.09 1761.2 823.636 1756.36 823.896 1754.12C824.157 1751.87 823.569 1751.66 823.569 1751.66Z" fill="#D4ECFF"/>
<path d="M823.965 1734.37C824.092 1734.18 816.515 1724.63 804.875 1723.18C793.235 1721.72 797.031 1730.86 797.031 1730.86C797.031 1730.86 806.312 1734.58 812.786 1738.02C819.261 1741.47 822 1743.52 823.377 1739.41C824.753 1735.3 823.965 1734.38 823.965 1734.38V1734.37Z" fill="#D4ECFF"/>
<path d="M798.346 1707.17C793.535 1707.98 796.341 1711.57 798.346 1713.26C804.916 1715.52 818.458 1720.31 820.061 1721.39C822.066 1722.74 823.068 1717.67 823.068 1714.96C823.068 1712.25 804.359 1706.15 798.346 1707.17Z" fill="#D4ECFF"/>
<path d="M820.268 1120.87V1707.4L796.268 1702.43V1120.87L799.268 977.428L818.768 974.399L820.268 1120.87Z" fill="#450809"/>
<path d="M1503.83 1222.95C1458.14 1238.8 1414.29 1292.27 1410.64 1297.88L1412.32 1304.13C1412.73 1305.67 1426.08 1309.37 1432.7 1311.03L1416.04 1310.35C1418.35 1313.85 1430.8 1323.91 1462.08 1336.13C1493.36 1348.35 1543.39 1341.13 1564.49 1335.99C1601.8 1352.26 1625.22 1353.2 1634.83 1350.62C1644.44 1348.05 1613.94 1320.68 1613.29 1318.28C1622.68 1316.79 1672.95 1279.63 1680.82 1266.7C1687.11 1256.36 1703.7 1243.23 1711.21 1237.95C1740.83 1253.71 1799.91 1281.15 1799.25 1264.84C1798.59 1248.54 1771.44 1223.19 1757.95 1212.55C1762.13 1200.61 1770.73 1175.33 1771.7 1169.72C1772.91 1162.7 1773.24 1146.64 1765.52 1146.65C1759.34 1146.66 1720.22 1183.17 1701.43 1201.43L1629.79 1195.38L1645.98 1161.68C1647.11 1159.49 1645.3 1155.68 1629.03 1157.98C1612.76 1160.28 1572.36 1190.51 1554.2 1205.33C1552.64 1205.92 1540.38 1210.27 1503.83 1222.95Z" fill="#ACD1FF"/>
<path d="M814.688 1628.33C811.532 1637.36 808.981 1641.15 802.137 1644.16V1608.28C804.762 1600.73 807.74 1597.1 814.688 1591.38V1628.33Z" fill="#D4ECFF"/>
<path d="M814.688 1628.33C811.532 1637.36 808.981 1641.15 802.137 1644.16V1608.28C804.762 1600.73 807.74 1597.1 814.688 1591.38V1628.33Z" fill="#D4ECFF"/>
<path d="M814.688 1579.51C811.532 1588.54 808.981 1592.33 802.137 1595.34V1559.45C804.762 1551.9 807.74 1548.27 814.688 1542.56V1579.51Z" fill="#D4ECFF"/>
<path d="M814.688 1530.68C811.532 1539.71 808.981 1543.5 802.137 1546.52V1510.63C804.762 1503.08 807.74 1499.45 814.688 1493.73V1530.68Z" fill="#D4ECFF"/>
<path d="M814.688 1481.86C811.532 1490.89 808.981 1494.68 802.137 1497.69V1461.8C804.762 1454.25 807.74 1450.62 814.688 1444.91V1481.86Z" fill="#D4ECFF"/>
<path d="M814.688 1433.03C811.532 1442.06 808.981 1445.85 802.137 1448.87V1412.98C804.762 1405.43 807.74 1401.8 814.688 1396.08V1433.03Z" fill="#D4ECFF"/>
<path d="M814.688 1384.21C811.532 1393.24 808.981 1397.03 802.137 1400.04V1364.16C804.762 1356.6 807.74 1352.97 814.688 1347.26V1384.21Z" fill="#D4ECFF"/>
<path d="M814.688 1335.38C811.532 1344.41 808.981 1348.2 802.137 1351.22V1315.33C804.762 1307.78 807.74 1304.15 814.688 1298.43V1335.38Z" fill="#D4ECFF"/>
<path d="M814.688 1286.56C811.532 1295.59 808.981 1299.38 802.137 1302.39V1266.51C804.762 1258.95 807.74 1255.32 814.688 1249.61V1286.56Z" fill="#D4ECFF"/>
<path d="M814.688 1237.73C811.532 1246.76 808.981 1250.55 802.137 1253.57V1217.68C804.762 1210.13 807.74 1206.5 814.688 1200.79V1237.73Z" fill="#D4ECFF"/>
<path d="M814.688 1188.91C811.532 1197.94 808.981 1201.73 802.137 1204.74V1168.86C804.762 1161.3 807.74 1157.67 814.688 1151.96V1188.91Z" fill="#D4ECFF"/>
<path d="M814.688 1140.08C811.532 1149.12 808.981 1152.9 802.137 1155.92V1120.03C804.762 1112.48 807.74 1108.85 814.688 1103.14V1140.08Z" fill="#D4ECFF"/>
<path d="M814.688 1091.26C811.532 1100.29 808.981 1104.08 802.137 1107.09V1071.21C804.762 1063.65 807.74 1060.03 814.688 1054.31V1091.26Z" fill="#D4ECFF"/>
<path d="M814.688 1042.43C811.532 1051.47 808.981 1055.25 802.137 1058.27V1022.38C804.762 1014.83 807.74 1011.2 814.688 1005.49V1042.43Z" fill="#D4ECFF"/>
<path d="M814.258 998.766C811.241 1004.83 808.801 1007.37 802.258 1009.39V985.314C804.768 980.246 807.614 977.812 814.258 973.979V998.766Z" fill="#D4ECFF"/>
<path d="M814.688 1676.63C811.532 1685.66 808.981 1689.45 802.137 1692.46V1656.58C804.762 1649.03 807.74 1645.4 814.688 1639.68V1676.63Z" fill="#D4ECFF"/>
<path d="M232.229 763.747C223.489 788.736 197.269 803.73 193.524 806.229C184.367 812.061 166.305 826.473 167.303 837.469C168.552 851.213 177.292 861.209 193.524 859.959C209.755 858.71 213.501 848.714 227.235 837.469C240.969 826.223 250.958 831.221 265.941 831.221C280.924 831.221 292.161 842.467 317.132 848.714C337.11 853.712 347.93 849.13 350.844 846.215C356.254 842.05 364.828 831.721 355.838 823.724C344.601 813.728 335.861 821.225 317.132 823.724C302.149 825.723 300.901 817.06 302.149 812.479C307.976 806.231 327.371 792.487 358.335 787.489C397.041 781.242 395.792 772.495 412.024 758.751C425.009 747.755 422.429 734.177 419.515 728.763C413.689 724.598 400.787 718.767 395.792 728.763C389.55 741.258 372.07 757.501 360.832 758.751C349.595 760 348.347 748.755 348.347 736.26C348.347 723.765 362.081 711.27 364.578 707.522C367.075 703.773 358.335 687.53 348.347 688.779C338.358 690.029 324.624 712.52 319.629 736.26C314.635 760 309.641 763.747 295.907 776.244C284.919 786.241 266.357 785.407 258.449 783.741L287.167 718.767C292.161 705.439 309.641 674.285 339.607 656.291C377.064 633.798 374.567 615.059 375.815 607.562C377.064 600.064 368.324 595.066 358.335 595.066C348.347 595.066 343.352 613.81 339.607 618.808C335.861 623.806 324.624 625.055 319.629 622.556C314.635 620.057 329.618 570.077 324.624 566.328C319.629 562.58 312.138 558.831 302.149 566.328C294.159 572.326 288.831 612.976 287.167 632.551C283.421 640.464 274.931 656.791 270.935 658.791C265.941 661.291 264.692 658.791 260.946 652.543C254.704 648.796 255.952 621.306 258.449 607.562C260.447 596.566 251.79 588.818 247.212 586.319C243.466 585.07 235.226 585.07 232.229 595.066C229.233 605.061 233.478 640.047 235.975 656.291C242.634 665.037 256.452 685.029 258.449 695.025C260.946 707.52 240.969 738.757 232.229 763.747Z" fill="#ACD1FF" stroke="#D4ECFF" stroke-width="5"/>
<path d="M493.818 2127C572.086 2111.97 678.724 2152.15 688.549 2157.16L691.308 2167.46C691.988 2169.99 675.989 2186.28 667.905 2194.1L691.113 2179.39C690.7 2186.3 681.23 2210.9 646.657 2254.12C612.084 2297.34 534.734 2328.25 500.381 2338.3C460.543 2392.27 427.893 2412.9 412.062 2417.14C396.23 2421.39 417.208 2357.19 416.147 2353.23C401.532 2358.85 299.156 2347.23 277.285 2335.27C259.788 2325.7 225.284 2320.62 210.22 2319.28C180.93 2366.18 119.229 2454.02 106.739 2430.2C94.249 2406.38 112.102 2347.84 122.59 2321.54C106.788 2307.95 73.6816 2278.96 67.6751 2271.74C60.1669 2262.72 46.4637 2240.08 57.4888 2233.73C66.309 2228.65 152.232 2248.52 194.091 2259.09L291.347 2191.44L240.464 2156.69C237.047 2154.49 236.492 2147.57 261.607 2137.44C286.722 2127.32 369.281 2137.17 407.422 2143.36C410.131 2142.92 431.204 2139.02 493.818 2127Z" fill="#02304A"/>
<path d="M644.279 1662.51C693.699 1719.62 711.248 1826.18 711.795 1836.61L704.651 1843.76C702.893 1845.51 681.949 1840.1 671.696 1837.17L694.763 1849.25C688.903 1852.18 664.221 1856.07 612.371 1848.17C560.521 1840.28 498.502 1791.44 473.974 1768.01C410.808 1760.89 378.405 1743.87 367.422 1732.89C356.44 1721.91 419.061 1708.71 421.808 1705.96C410.276 1696.63 371.3 1607.1 370.757 1583.48C370.323 1564.59 358.137 1533.87 352.098 1520.87C299.734 1519.05 198.413 1510.04 212.04 1488.5C225.668 1466.96 282.174 1453.88 308.724 1450.03C312.39 1430.62 320.494 1389.71 323.572 1381.36C327.42 1370.92 339.511 1348.95 349.944 1354.99C358.291 1359.82 382.696 1439.75 393.854 1479.11L495.459 1526.88L499.868 1468.65C500.052 1464.81 505.474 1461.07 525.683 1476.88C545.892 1492.7 576.926 1565.12 589.917 1599.35C591.564 1601.37 604.743 1616.82 644.279 1662.51Z" fill="#02304A"/>
<path d="M512.879 1895.34C588.998 1921.75 662.044 2010.83 668.116 2020.18L665.326 2030.59C664.64 2033.15 642.403 2039.32 631.37 2042.08L659.122 2040.94C655.272 2046.77 634.544 2063.53 582.431 2083.89C530.319 2104.25 446.977 2092.21 411.82 2083.65C349.666 2110.76 310.653 2112.32 294.649 2108.03C278.645 2103.75 329.457 2058.15 330.529 2054.15C314.896 2051.68 231.14 1989.76 218.041 1968.23C207.561 1951.01 179.918 1929.13 167.407 1920.34C118.062 1946.59 19.6471 1992.3 20.7505 1965.14C21.8539 1937.97 67.0754 1895.74 89.5483 1878.02C82.5837 1858.14 68.2521 1816.02 66.6422 1806.67C64.6298 1794.97 64.0787 1768.22 76.9395 1768.24C87.2282 1768.25 152.407 1829.08 183.711 1859.49L303.051 1849.42L276.069 1793.28C274.188 1789.63 277.203 1783.28 304.308 1787.11C331.413 1790.94 398.712 1841.3 428.973 1866C431.569 1866.98 451.984 1874.22 512.879 1895.34Z" fill="#02304A"/>
<path d="M653.666 2355.64C681.195 2276.3 774.142 2200.19 783.899 2193.86L794.765 2196.78C797.439 2197.49 803.886 2220.67 806.776 2232.18L805.571 2203.25C811.66 2207.26 829.157 2228.88 850.428 2283.21C871.699 2337.54 859.169 2424.41 850.246 2461.06C878.564 2525.86 880.207 2566.53 875.737 2583.21C871.267 2599.89 823.66 2546.91 819.481 2545.79C816.906 2562.08 752.315 2649.37 729.848 2663.02C711.875 2673.94 689.048 2702.74 679.881 2715.78C707.298 2767.23 755.045 2869.84 726.693 2868.68C698.341 2867.52 654.248 2820.36 635.745 2796.93C614.992 2804.18 571.044 2819.11 561.28 2820.78C549.074 2822.88 521.154 2823.44 521.165 2810.03C521.174 2799.31 584.637 2731.39 616.367 2698.76L605.812 2574.36L547.225 2602.46C543.415 2604.42 536.792 2601.28 540.78 2573.02C544.768 2544.77 597.299 2474.63 623.067 2443.1C624.09 2440.39 631.643 2419.11 653.666 2355.64Z" fill="#02304A"/>
<path d="M225.531 1940.69L226.064 1938.7L232.633 1939.01L244.913 1893.18L239.069 1890.17L239.602 1888.18L275.248 1897.73L271.794 1910.62L270.203 1910.19L269.569 1899.19L249.836 1893.91L244.144 1915.15L258.625 1919.03L262.384 1912.96L263.975 1913.39L259.732 1929.22L258.141 1928.79L257.879 1921.81L243.398 1917.93L237.258 1940.85L259.218 1946.73L265.48 1936.73L267.072 1937.15L263.405 1950.84L225.531 1940.69ZM271.069 1952.89L271.389 1951.7L276.345 1951.66L290.586 1938.94L284.972 1921.06L280.741 1918.39L281.061 1917.2L295.144 1920.97L294.824 1922.16L289.449 1922.17L289.385 1922.41L293.995 1937.03L304.662 1926.5L304.726 1926.27L300.712 1923.74L301.032 1922.55L312.251 1925.55L311.931 1926.75L307.165 1927.35L294.412 1938.34L300.655 1958.01L304.329 1960.53L304.01 1961.72L290.961 1958.22L291.281 1957.03L296.099 1956.87L296.163 1956.63L290.982 1940.32L279.454 1952.16L279.39 1952.39L283.324 1954.9L283.004 1956.09L271.069 1952.89ZM320.828 1967.08C318.653 1966.5 317.061 1965.33 316.051 1963.58C315.095 1961.85 314.95 1959.73 315.618 1957.24L322.59 1931.22L315.588 1929.35L315.78 1928.63L323.792 1928.65L328.763 1920.6L329.638 1920.83L327.293 1929.58L337.796 1932.4L337.071 1935.1L326.568 1932.29L319.639 1958.15C319.199 1959.79 319.369 1961.17 320.149 1962.29C320.944 1963.36 322.163 1964.11 323.808 1964.55C324.975 1964.86 326.071 1965.02 327.097 1965.01C328.123 1965 329.124 1964.87 330.101 1964.62L330.159 1964.72L330.074 1965.04C329.408 1965.83 328.257 1966.51 326.622 1967.1C324.987 1967.68 323.056 1967.68 320.828 1967.08ZM336.483 1970.42L336.803 1969.23L342.178 1969.22L350.28 1938.98L344.663 1936.71L344.983 1935.52L354.088 1935.91L354.883 1936.12L353.384 1943.31L353.543 1943.35C356.194 1941.73 358.265 1940.58 359.755 1939.9C361.245 1939.22 362.424 1938.85 363.29 1938.8C364.157 1938.75 365.094 1938.86 366.102 1939.13C367.004 1939.37 367.783 1939.75 368.441 1940.27C368.914 1940.62 369.229 1940.93 369.384 1941.2C369.607 1941.43 369.675 1941.71 369.59 1942.03C369.562 1942.13 369.5 1942.26 369.404 1942.4C369.376 1942.51 369.306 1942.66 369.197 1942.86L367.847 1944.71L367.687 1944.67L366.368 1943.55C365.724 1942.98 364.793 1942.53 363.573 1942.2C362.035 1941.79 360.383 1941.8 358.617 1942.24C356.851 1942.68 354.915 1943.75 352.808 1945.46L346.156 1970.28L351.921 1973.28L351.601 1974.47L336.483 1970.42ZM372.499 1980.92C370.059 1980.27 368.208 1979.01 366.948 1977.13C365.701 1975.21 365.426 1972.95 366.123 1970.35C366.805 1967.8 368.275 1965.92 370.534 1964.71C372.845 1963.51 376.265 1962.95 380.792 1963.02L389.123 1963.12L390.892 1956.52C391.504 1954.24 391.172 1952.19 389.897 1950.37C388.636 1948.49 386.945 1947.27 384.823 1946.7C382.542 1946.09 380.797 1946.14 379.586 1946.84C378.443 1947.5 377.658 1948.62 377.231 1950.21L376.357 1953.48L375.853 1953.77L373.784 1953.21C372.935 1952.99 372.414 1952.7 372.22 1952.37C372.026 1952.03 372.028 1951.49 372.227 1950.75C372.497 1949.74 373.119 1948.8 374.093 1947.92C375.067 1947.05 376.33 1946.36 377.884 1945.87C379.558 1945.35 381.196 1944.96 382.799 1944.71C384.469 1944.42 385.967 1944.45 387.293 1944.81C390.476 1945.66 392.777 1947.04 394.196 1948.96C395.683 1950.84 396.029 1953.26 395.233 1956.23L388.603 1980.98C388.928 1981.46 389.327 1981.88 389.8 1982.23C390.327 1982.6 390.962 1982.89 391.704 1983.09L395.842 1984.19L395.9 1984.3L395.857 1984.45C395.344 1984.89 394.585 1985.28 393.58 1985.64C392.574 1985.99 391.356 1985.98 389.924 1985.59C388.067 1985.1 386.763 1984.24 386.011 1983.01C385.259 1981.79 384.947 1980.51 385.076 1979.18L384.917 1979.14C383.168 1980.15 381.192 1980.84 378.988 1981.21C376.836 1981.6 374.673 1981.51 372.499 1980.92ZM370.485 1969.98C369.902 1972.16 370.072 1973.96 370.993 1975.4C371.929 1976.79 373.511 1977.78 375.738 1978.38C377.065 1978.74 378.546 1978.94 380.184 1978.98C381.836 1978.96 383.466 1978.72 385.072 1978.24L388.675 1964.79C384.031 1964.51 380.447 1964.52 377.925 1964.81C375.455 1965.12 373.681 1965.69 372.601 1966.54C371.574 1967.4 370.869 1968.55 370.485 1969.98ZM421.339 1993.16L421.872 1991.17L428.44 1991.48L440.72 1945.65L434.877 1942.63L435.41 1940.64L453.551 1945.51L453.018 1947.49L445.494 1946.93L433.065 1993.32L454.627 1999.09L462.141 1986.01L463.732 1986.44L459.212 2003.31L421.339 1993.16ZM488.964 1958.58C488.115 1958.35 487.477 1957.87 487.05 1957.13C486.623 1956.39 486.523 1955.59 486.75 1954.74C486.978 1953.89 487.461 1953.26 488.201 1952.83C488.941 1952.4 489.735 1952.3 490.584 1952.53C491.433 1952.76 492.07 1953.24 492.498 1953.98C492.925 1954.72 493.025 1955.51 492.797 1956.36C492.57 1957.21 492.086 1957.85 491.346 1958.28C490.607 1958.7 489.812 1958.8 488.964 1958.58ZM469.9 2006.17L470.22 2004.98L475.595 2004.97L483.696 1974.73L478.293 1971.66L478.613 1970.47L487.902 1971.77L488.698 1971.98L479.573 2006.03L484.86 2008.9L484.54 2010.09L469.9 2006.17ZM510.417 2004.15C508.825 2003.72 507.385 2003.05 506.095 2002.14C504.145 2002.41 502.712 2002.88 501.795 2003.55C500.878 2004.21 500.27 2005.1 499.972 2006.21C499.488 2008.02 499.777 2009.49 500.837 2010.62C501.896 2011.76 503.753 2012.68 506.405 2013.39L515.396 2015.8C518.525 2016.64 520.713 2018.02 521.96 2019.95C523.259 2021.89 523.561 2024.16 522.864 2026.76C522.281 2028.93 520.977 2030.83 518.952 2032.45C516.927 2034.06 514.417 2035.15 511.424 2035.72C508.431 2036.28 505.131 2036.08 501.524 2035.11C496.909 2033.87 493.842 2032.06 492.324 2029.66C490.792 2027.32 490.381 2024.82 491.091 2022.17C491.617 2020.2 492.47 2018.61 493.649 2017.4L499.59 2014.64L499.633 2014.48C496.455 2012.55 495.292 2009.99 496.145 2006.81C496.614 2005.06 497.589 2003.75 499.068 2002.9L504.509 2001.37L504.615 2000.98C502.976 1999.46 501.848 1997.62 501.231 1995.46C500.629 1993.26 500.648 1990.96 501.287 1988.57C501.913 1986.24 503.005 1984.28 504.563 1982.71C506.174 1981.15 508.051 1980.09 510.191 1979.53C512.346 1978.91 514.617 1978.92 517.004 1979.56C518.171 1979.88 519.402 1980.38 520.696 1981.06C522.004 1981.7 523.006 1982.31 523.702 1982.89L534.694 1985.16L533.819 1988.42L525.933 1985.71L525.731 1985.82C526.338 1986.95 526.633 1988.4 526.617 1990.16C526.668 1991.88 526.473 1993.56 526.033 1995.2C525.407 1997.54 524.315 1999.49 522.757 2001.06C521.199 2002.63 519.349 2003.7 517.208 2004.26C515.067 2004.83 512.804 2004.79 510.417 2004.15ZM511.639 2002.77C513.92 2003.38 515.965 2002.96 517.774 2001.52C519.651 2000.03 521.037 1997.61 521.932 1994.27C522.913 1990.61 522.796 1987.65 521.582 1985.4C520.382 1983.08 518.535 1981.59 516.042 1980.93C513.602 1980.27 511.437 1980.72 509.546 1982.26C507.669 1983.74 506.291 1986.13 505.409 1989.42C504.429 1993.08 504.545 1996.04 505.76 1998.3C507.027 2000.57 508.986 2002.06 511.639 2002.77ZM494.986 2022.27C494.332 2024.71 494.793 2027.03 496.368 2029.21C497.996 2031.41 500.295 2032.91 503.266 2033.7C505.812 2034.38 508.194 2034.51 510.413 2034.08C512.617 2033.71 514.482 2032.9 516.008 2031.66C517.52 2030.47 518.503 2029.03 518.958 2027.33C519.64 2024.79 519.446 2022.86 518.376 2021.55C517.359 2020.25 515.179 2019.16 511.838 2018.26L503.483 2016.02C502.688 2015.81 501.933 2015.55 501.218 2015.24C499.439 2015.73 498.086 2016.54 497.162 2017.65C496.223 2018.82 495.498 2020.36 494.986 2022.27ZM533.682 2023.26L534.001 2022.07L539.377 2022.06L553.661 1968.75L548.257 1965.68L548.577 1964.49L557.867 1965.78L558.662 1966L550.945 1994.8L551.104 1994.84C553.607 1993.35 555.854 1992.39 557.846 1991.96C559.838 1991.52 561.922 1991.6 564.096 1992.18C567.438 1993.08 569.921 1994.74 571.545 1997.16C573.223 1999.6 573.585 2002.6 572.633 2006.15L566.429 2029.31L571.079 2032L570.759 2033.2L556.119 2029.27L556.439 2028.08L562.451 2028.24L568.079 2007.24C568.946 2004 568.725 2001.32 567.415 1999.21C566.172 1997.06 564.145 1995.61 561.334 1994.85C559.743 1994.43 557.912 1994.36 555.842 1994.66C553.787 1994.91 551.984 1995.59 550.433 1996.71L543.355 2023.12L548.642 2025.99L548.322 2027.18L533.682 2023.26ZM589.286 2039.01C587.111 2038.43 585.519 2037.26 584.509 2035.52C583.553 2033.78 583.409 2031.67 584.077 2029.17L591.048 2003.16L584.046 2001.28L584.238 2000.56L592.25 2000.58L597.221 1992.53L598.096 1992.76L595.751 2001.52L606.254 2004.33L605.529 2007.04L595.026 2004.22L588.097 2030.08C587.657 2031.73 587.827 2033.11 588.607 2034.23C589.402 2035.29 590.621 2036.04 592.266 2036.49C593.433 2036.8 594.529 2036.95 595.555 2036.94C596.581 2036.93 597.582 2036.8 598.559 2036.55L598.617 2036.65L598.532 2036.97C597.866 2037.76 596.715 2038.44 595.08 2039.03C593.445 2039.62 591.514 2039.61 589.286 2039.01Z" fill="#ACD1FF"/>
<path d="M416.79 1595.97L417.623 1595.04L424.359 1596.88L454.111 1566.1L451.191 1559.3L452.024 1558.37L463.599 1568.73L449.71 1610.46L489.597 1592L500.706 1601.94L499.873 1602.87L493.003 1600.6L465.305 1633.53L467.41 1639.61L466.577 1640.54L452.211 1627.68L453.044 1626.75L459.437 1628.38L484.314 1599.42L442.005 1619.07L439.213 1616.57L453.873 1572.8L427.971 1600.22L430.768 1606.81L429.935 1607.74L416.79 1595.97ZM484.364 1657.51C480.564 1654.11 478.583 1650.27 478.421 1646.01C478.259 1641.74 479.878 1637.71 483.28 1633.91C485.848 1631.04 488.72 1629 491.897 1627.79C495.112 1626.62 498.244 1626.28 501.294 1626.77C504.417 1627.27 507.122 1628.53 509.41 1630.58C512.512 1633.36 513.98 1636.59 513.816 1640.29C513.687 1643.94 511.871 1647.77 508.37 1651.76L507.819 1651.79L490.661 1636.43C489.103 1638.25 487.958 1640.19 487.224 1642.26C486.53 1644.36 486.464 1646.5 487.027 1648.68C487.629 1650.9 489.131 1653.08 491.535 1655.23C493.746 1657.21 496.906 1658.71 501.017 1659.74L501.191 1659.89L500.567 1660.59C498.039 1661.54 495.309 1661.82 492.376 1661.43C489.478 1661 486.807 1659.69 484.364 1657.51ZM506.072 1632.2C504.366 1630.68 502.378 1630.05 500.108 1630.32C497.877 1630.63 495.565 1631.81 493.172 1633.86L505.561 1644.95C507.533 1641.96 508.519 1639.46 508.517 1637.43C508.515 1635.4 507.7 1633.66 506.072 1632.2ZM510.26 1680.69C508.36 1678.99 507.088 1676.98 506.443 1674.65C505.799 1672.33 505.812 1669.9 506.482 1667.35C507.187 1664.77 508.632 1662.26 510.819 1659.82C513.769 1656.52 516.889 1654.28 520.177 1653.11C523.539 1651.93 526.805 1651.67 529.975 1652.34C533.218 1653.01 536.12 1654.49 538.679 1656.78C539.726 1657.72 540.622 1658.59 541.366 1659.4C542.111 1660.2 542.727 1661 543.212 1661.78L552.792 1651.08L551.608 1644.68L552.025 1644.21L563.787 1648.98L564.194 1649.34L527.49 1690.35L530.109 1695.73L529.276 1696.66L520.261 1688.59L522.393 1685.16L522.044 1684.85C519.46 1684.77 517.229 1684.41 515.351 1683.78C513.508 1683.11 511.811 1682.08 510.26 1680.69ZM517.646 1663.31C514.8 1666.49 513.512 1669.53 513.783 1672.42C514.089 1675.28 515.346 1677.7 517.557 1679.68C519.418 1681.34 521.687 1682.4 524.365 1682.84L539.047 1666.44C538.854 1664.94 538.504 1663.61 537.998 1662.46C537.565 1661.3 536.806 1660.24 535.721 1659.27C534.247 1657.95 532.58 1657.12 530.718 1656.78C528.891 1656.4 526.863 1656.72 524.634 1657.73C522.44 1658.69 520.11 1660.56 517.646 1663.31ZM570.393 1673.02C569.346 1672.08 568.786 1670.95 568.713 1669.63C568.639 1668.31 569.071 1667.12 570.008 1666.07C570.98 1664.99 572.11 1664.43 573.398 1664.39C574.721 1664.32 575.906 1664.75 576.953 1665.69C578 1666.63 578.56 1667.76 578.633 1669.08C578.741 1670.36 578.309 1671.55 577.337 1672.63C576.4 1673.68 575.27 1674.24 573.947 1674.31C572.624 1674.39 571.44 1673.95 570.393 1673.02ZM534.071 1700.95L534.904 1700.02L540.292 1701.49L555.859 1684.1L554.966 1677.96L555.383 1677.5L566.854 1682L567.261 1682.37L545.759 1706.39L547.699 1711.48L546.866 1712.41L534.071 1700.95ZM562.187 1727.17C559.899 1725.12 558.539 1722.86 558.107 1720.37C557.713 1717.93 558.523 1715.58 560.536 1713.33L575.947 1696.11L573.839 1690.98L574.672 1690.05L583.861 1698.27L568.399 1715.55C566.941 1717.18 566.315 1718.85 566.521 1720.57C566.765 1722.33 567.682 1723.92 569.272 1725.34C570.241 1726.21 571.447 1727.01 572.888 1727.74C574.363 1728.43 575.745 1728.76 577.033 1728.73L592.756 1711.16L590.415 1705.82L591.248 1704.89L600.728 1713.37L579.591 1736.99L582.094 1742.27L581.261 1743.2L571.722 1734.66L575.002 1730.99L574.712 1730.73C571.993 1730.88 569.642 1730.7 567.661 1730.18C565.679 1729.67 563.854 1728.66 562.187 1727.17ZM585.353 1746.86L586.186 1745.93L591.575 1747.4L607.142 1730.01L606.197 1723.93L606.613 1723.46L617.555 1727.39L617.963 1727.75L614.633 1732.52L614.924 1732.79C617.643 1732.63 619.974 1732.8 621.917 1733.28C623.895 1733.73 625.698 1734.68 627.327 1736.13C629.188 1737.8 630.396 1739.65 630.951 1741.68C631.54 1743.68 631.3 1745.66 630.23 1747.64L630.462 1747.85C633.545 1747.6 636.148 1747.7 638.273 1748.13C640.398 1748.57 642.333 1749.57 644.077 1751.13C646.326 1753.14 647.628 1755.35 647.983 1757.77C648.411 1760.18 647.601 1762.52 645.553 1764.81L630.194 1781.97L632.251 1787.16L631.418 1788.09L618.331 1776.38L619.164 1775.45L624.727 1777.08L637.691 1762.59C639.183 1760.93 639.809 1759.25 639.569 1757.57C639.363 1755.85 638.504 1754.31 636.992 1752.96C635.79 1751.88 634.455 1751.07 632.988 1750.53C631.555 1749.94 630.123 1749.71 628.692 1749.82L613.386 1766.92L615.5 1772.17L614.667 1773.1L601.755 1761.54L602.588 1760.61L607.918 1762.03L620.882 1747.55C622.375 1745.88 623.001 1744.21 622.76 1742.52C622.593 1740.84 621.754 1739.32 620.241 1737.96C619.311 1737.13 618.144 1736.37 616.742 1735.67C615.379 1735.01 614.053 1734.69 612.765 1734.73L597.042 1752.29L598.924 1757.33L598.091 1758.26L585.353 1746.86Z" fill="#ACD1FF"/>
<path d="M678.783 2667.67L677.534 2667.25L676.591 2659.2L634.117 2644.92L628.501 2650.77L627.252 2650.35L642.53 2604.91L656.116 2609.47L655.696 2610.72L644.252 2614L638.87 2630.01L657.375 2636.23L661.155 2624.99L655.859 2617.99L656.279 2616.74L674.159 2622.75L673.739 2624L665.449 2626.43L661.669 2637.67L681.813 2644.45L687.746 2626.8L677.278 2615.55L677.698 2614.3L694.797 2620.05L678.783 2667.67ZM696.692 2614.41L695.443 2613.99L694.517 2609.25L685.96 2594.12L665.08 2600.13L661.973 2602.91L660.723 2602.49L668.94 2578.05L670.189 2578.47L670.803 2582.85L671.272 2583.01L680.604 2580.32L675.468 2572.08L674.999 2571.92L671.423 2574.8L670.174 2574.38L675.083 2559.78L676.332 2560.2L677.205 2565.1L684.931 2579.08L707.168 2572.65L710.196 2570.11L711.445 2570.53L703.228 2594.97L701.979 2594.55L701.444 2589.94L700.976 2589.78L690.392 2592.82L696.333 2602.04L696.802 2602.19L700.509 2598.92L701.758 2599.34L696.692 2614.41ZM718.013 2553.58C716.753 2557.33 715.061 2560.12 712.938 2561.95C710.814 2563.79 708.53 2564.3 706.083 2563.47L680.552 2554.89L678.845 2559.96L677.362 2559.47L677.956 2551.24L672.492 2539.06L673.253 2536.79L681.841 2539.68L685.569 2528.59L689.005 2529.75L685.277 2540.83L708.388 2548.61C709.741 2549.06 710.914 2548.85 711.906 2547.96C712.916 2547.03 713.674 2545.81 714.182 2544.3C714.497 2543.36 714.716 2542.53 714.84 2541.82C714.98 2541.06 715.104 2540.26 715.21 2539.43L715.445 2539.25L717.163 2539.82C718.114 2541.3 718.691 2543.38 718.892 2546.05C719.111 2548.68 718.818 2551.18 718.013 2553.58ZM722.41 2537.92L721.16 2537.5L720.473 2531.27L697.206 2523.45L692.116 2527.47L690.867 2527.05L691.567 2508.17L691.987 2506.92L699.485 2508.66L699.616 2508.27C698.041 2506.23 696.899 2504.54 696.191 2503.21C695.482 2501.87 695.086 2500.72 695.001 2499.76C694.934 2498.76 695.085 2497.71 695.452 2496.61C695.61 2496.14 695.828 2495.67 696.107 2495.18C696.386 2494.7 696.683 2494.25 696.996 2493.83C697.554 2493.03 698.094 2492.55 698.615 2492.38C699.102 2492.13 699.58 2492.09 700.048 2492.25C700.413 2492.37 700.803 2492.59 701.219 2492.9L706.444 2497.01L706.26 2497.55L705.319 2498.8C704.709 2499.58 704.239 2500.29 703.907 2500.93C703.541 2501.5 703.191 2502.29 702.859 2503.27C702.474 2504.42 702.401 2505.58 702.641 2506.76C702.829 2507.93 703.217 2509.01 703.805 2510.02L725.199 2517.22L729.981 2511.26L731.23 2511.68L722.41 2537.92ZM738.111 2493.54C737.534 2495.26 736.627 2496.75 735.391 2498.02C734.172 2499.23 732.711 2500.04 731.008 2500.45C729.253 2500.85 727.369 2500.68 725.357 2499.94C723.344 2499.21 721.818 2498.32 720.779 2497.28C719.705 2496.16 719.032 2494.54 718.76 2492.43C718.436 2490.29 718.391 2487.32 718.627 2483.52L719.143 2475.52L714.926 2474.1C712.792 2473.39 710.978 2473.35 709.482 2474.01C707.987 2474.67 706.916 2475.96 706.268 2477.88C705.306 2480.75 705.944 2482.55 708.182 2483.31L712.71 2484.83L712.944 2485.17L710.949 2491.1C710.476 2492.51 709.381 2492.92 707.664 2492.34C706.518 2491.96 705.6 2491.07 704.909 2489.68C704.218 2488.29 703.649 2486.62 703.203 2484.67C702.619 2482.1 702.373 2479.91 702.465 2478.08C702.556 2476.26 702.935 2474.36 703.6 2472.38C704.615 2469.36 705.941 2466.79 707.579 2464.68C709.165 2462.55 711.001 2461.05 713.087 2460.19C715.173 2459.33 717.439 2459.31 719.886 2460.13L739.561 2466.74C740.066 2466.45 740.51 2466.08 740.893 2465.63C741.294 2465.12 741.616 2464.51 741.861 2463.78L742.439 2462.06L742.856 2461.85L744.496 2462.41C745.136 2463.26 745.628 2464.55 745.971 2466.29C746.313 2468.03 746.074 2470.12 745.251 2472.57C744.358 2475.22 743.164 2477.22 741.667 2478.57C740.135 2479.86 738.258 2480.62 736.034 2480.85L735.929 2481.16C737.105 2483.01 737.951 2484.97 738.467 2487.06C739 2489.09 738.881 2491.25 738.111 2493.54ZM727.086 2486.01C728.7 2486.56 730.063 2486.55 731.176 2486C732.306 2485.39 733.116 2484.36 733.606 2482.9C733.851 2482.18 733.975 2481.38 733.977 2480.51L722.734 2476.73C722.467 2479.42 722.644 2481.48 723.265 2482.9C723.887 2484.33 725.16 2485.37 727.086 2486.01ZM754.82 2441.52L753.571 2441.1L752.628 2433.05L710.153 2418.77L704.538 2424.62L703.288 2424.2L712.818 2395.85C714.13 2391.95 715.745 2388.61 717.663 2385.84C719.545 2382.99 721.643 2380.98 723.956 2379.78C726.234 2378.52 728.675 2378.33 731.277 2379.2C733.932 2380.1 736.011 2382.01 737.514 2384.95C739.035 2387.84 739.572 2391.41 739.127 2395.66C741.641 2390.6 744.533 2386.91 747.804 2384.59C751.075 2382.27 754.428 2381.69 757.863 2382.84C760.726 2383.8 762.962 2385.69 764.569 2388.49C766.125 2391.27 766.959 2394.65 767.07 2398.63C767.199 2402.55 766.51 2406.75 765.005 2411.23L754.82 2441.52ZM715.379 2402.45L714.907 2403.86L733.802 2410.21L734.405 2408.41C735.508 2405.13 735.533 2402.3 734.479 2399.92C733.444 2397.49 731.547 2395.81 728.788 2394.88C725.613 2393.81 722.886 2393.91 720.608 2395.17C718.347 2396.38 716.604 2398.81 715.379 2402.45ZM738.654 2407.41L737.315 2411.39L757.85 2418.29L759.372 2413.77C760.58 2410.17 760.545 2407 759.267 2404.26C757.989 2401.51 755.84 2399.63 752.821 2398.61C749.438 2397.48 746.555 2397.7 744.171 2399.27C741.806 2400.79 739.966 2403.5 738.654 2407.41ZM781.926 2363.49C780.631 2367.34 778.626 2370.46 775.911 2372.85C773.143 2375.22 770.074 2376.77 766.704 2377.49C763.298 2378.14 759.93 2377.9 756.599 2376.78C753.267 2375.66 750.441 2373.81 748.121 2371.24C745.818 2368.61 744.307 2365.52 743.587 2361.98C742.866 2358.43 743.154 2354.74 744.449 2350.88C745.744 2347.03 747.749 2343.91 750.464 2341.52C753.18 2339.13 756.24 2337.61 759.645 2336.96C763.068 2336.26 766.445 2336.47 769.777 2337.59C773.108 2338.71 775.925 2340.58 778.228 2343.21C780.496 2345.77 782.016 2348.83 782.789 2352.39C783.509 2355.94 783.221 2359.63 781.926 2363.49ZM778.024 2361.39C778.392 2360.3 778.1 2359.19 777.147 2358.05C776.195 2356.92 774.809 2355.88 772.988 2354.92C771.132 2353.89 769.007 2352.97 766.613 2352.17C763.698 2351.19 760.947 2350.49 758.361 2350.09C755.774 2349.68 753.569 2349.69 751.744 2350.12C749.937 2350.5 748.798 2351.39 748.325 2352.8C747.923 2353.99 748.197 2355.16 749.15 2356.29C750.05 2357.4 751.428 2358.47 753.283 2359.5C755.104 2360.46 757.238 2361.35 759.684 2362.18C762.547 2363.14 765.298 2363.83 767.936 2364.26C770.54 2364.61 772.746 2364.6 774.553 2364.22C776.377 2363.79 777.534 2362.85 778.024 2361.39ZM788.91 2340.13L787.66 2339.71L786.973 2333.48L741.063 2318.05L735.973 2322.07L734.724 2321.65L736.468 2302.25L736.888 2301L791.698 2319.43L795.693 2315.82L796.942 2316.24L788.91 2340.13ZM803.202 2300.21C802.484 2302.34 801.142 2304.18 799.176 2305.72C797.227 2307.21 794.846 2308.17 792.031 2308.62C789.217 2309.06 786.17 2308.73 782.891 2307.63C778.57 2306.18 775.042 2304.18 772.304 2301.64C769.567 2299.09 767.769 2296.17 766.909 2292.87C766.049 2289.57 766.241 2286.07 767.483 2282.37C767.851 2281.28 768.253 2280.26 768.69 2279.3C769.144 2278.3 769.667 2277.34 770.26 2276.44L756.596 2271.85L751.219 2276.21L750.126 2275.84L752.001 2256.05L752.421 2254.8L807.466 2273.31L811.541 2268.68L812.79 2269.1L806.516 2287.76L802.481 2287.1L802.297 2287.65C803.28 2290.06 803.839 2292.28 803.973 2294.29C804.124 2296.26 803.867 2298.23 803.202 2300.21ZM784.805 2292.63C788.813 2293.98 792.016 2294.27 794.415 2293.51C796.779 2292.69 798.214 2291.52 798.722 2290.01C798.967 2289.28 799.09 2288.66 799.092 2288.13C799.058 2287.54 798.973 2286.85 798.836 2286.05L775.882 2278.33C775.221 2278.4 774.595 2278.71 774.004 2279.27C773.36 2279.8 772.906 2280.46 772.644 2281.24C772.241 2282.44 772.238 2283.65 772.634 2284.89C773.031 2286.12 774.165 2287.4 776.037 2288.73C777.874 2289.98 780.797 2291.28 784.805 2292.63Z" fill="#ACD1FF"/>
<path d="M290.657 2301.35C287.235 2302.15 284.166 2302.54 281.449 2302.5C278.773 2302.39 276.029 2301.99 273.215 2301.3L269.27 2288.09L270.713 2287.75L277.769 2295.83C281.724 2297.78 285.519 2298.33 289.154 2297.47C292.148 2296.77 294.385 2295.48 295.864 2293.61C297.33 2291.69 297.743 2289.36 297.103 2286.64C296.627 2284.61 295.763 2283.09 294.512 2282.08C293.302 2281.02 291.615 2280.2 289.452 2279.63C287.277 2279.02 284.475 2278.38 281.048 2277.71C276.879 2276.77 273.534 2275.5 271.013 2273.89C268.48 2272.23 266.793 2269.61 265.952 2266.03C265.475 2264 265.525 2261.93 266.102 2259.82C266.679 2257.71 267.626 2255.73 268.945 2253.9C270.317 2252.06 271.945 2250.46 273.829 2249.12C275.767 2247.76 277.859 2246.82 280.104 2246.29C282.777 2245.66 285.338 2245.4 287.788 2245.5C290.278 2245.54 292.724 2245.87 295.126 2246.49L298.94 2259.13L297.576 2259.45L290.614 2251.78C288.788 2250.97 287.137 2250.42 285.663 2250.15C284.188 2249.87 282.595 2249.94 280.885 2250.34C278.639 2250.87 276.944 2252.05 275.798 2253.9C274.706 2255.74 274.43 2257.8 274.969 2260.1C275.534 2262.51 276.794 2264.27 278.749 2265.39C280.692 2266.46 283.741 2267.44 287.898 2268.32C291.51 2269.05 294.528 2269.9 296.952 2270.85C299.376 2271.81 301.309 2273.07 302.751 2274.65C304.194 2276.23 305.229 2278.36 305.856 2281.03C306.458 2283.6 306.43 2286 305.772 2288.24C305.154 2290.42 304.073 2292.42 302.528 2294.25C301.024 2296.01 299.231 2297.5 297.148 2298.73C295.066 2299.95 292.902 2300.82 290.657 2301.35ZM335.751 2290.77C330.405 2292.02 325.784 2291.44 321.89 2289.03C318.049 2286.6 315.513 2282.77 314.283 2277.53C313.33 2273.47 313.345 2269.68 314.328 2266.18C315.311 2262.68 316.985 2259.72 319.351 2257.3C321.771 2254.87 324.691 2253.26 328.113 2252.45C332.39 2251.45 336.076 2252.14 339.172 2254.51C342.268 2256.89 344.47 2260.74 345.778 2266.08L345.552 2266.55L322.456 2271.97C323.021 2274.38 323.969 2276.5 325.301 2278.33C326.621 2280.11 328.387 2281.38 330.6 2282.16C332.801 2282.89 335.479 2282.88 338.633 2282.14C340.13 2281.79 341.684 2281.2 343.294 2280.37C344.904 2279.54 346.526 2278.39 348.159 2276.94L348.399 2276.88L348.663 2278.01C347.995 2280.93 346.558 2283.58 344.352 2285.96C342.147 2288.34 339.279 2289.94 335.751 2290.77ZM327.356 2256.44C325.217 2256.94 323.66 2258.24 322.684 2260.33C321.708 2262.42 321.403 2265.08 321.769 2268.33L337.247 2264.69C335.9 2261.12 334.409 2258.73 332.775 2257.54C331.14 2256.34 329.334 2255.97 327.356 2256.44ZM357.152 2284.9L356.851 2283.62L361.461 2279.83L355.777 2255.61L349.958 2253.17L349.77 2252.36L361.33 2244.66L362.132 2244.47L364.246 2250.23L364.647 2250.14C366.12 2247.76 367.62 2245.86 369.146 2244.43C370.725 2242.99 372.691 2241.99 375.043 2241.44C377.609 2240.84 379.939 2240.91 382.033 2241.66C384.168 2242.34 385.793 2243.74 386.908 2245.85L387.148 2245.79C388.772 2243.1 390.382 2240.94 391.977 2239.33C393.626 2237.7 395.707 2236.59 398.219 2236C401.32 2235.27 404.054 2235.51 406.421 2236.7C408.788 2237.89 410.342 2240.07 411.082 2243.22L416.634 2266.88L422.449 2268.22L422.75 2269.5L403.504 2274.02L403.203 2272.74L407.332 2269.06L402.589 2248.85C402.112 2246.82 401.16 2245.41 399.733 2244.61C398.293 2243.77 396.638 2243.56 394.767 2244C393.323 2244.34 391.996 2244.93 390.785 2245.78C389.561 2246.58 388.602 2247.54 387.906 2248.66L393.458 2272.32L398.712 2273.79L399.013 2275.07L380.568 2279.4L380.267 2278.12L384.156 2274.5L379.413 2254.29C378.936 2252.26 377.984 2250.85 376.557 2250.05C375.117 2249.21 373.462 2249 371.591 2249.44C370.415 2249.72 369.208 2250.23 367.972 2250.97C366.79 2251.7 365.832 2252.54 365.098 2253.5L370.763 2277.64L375.776 2279.17L376.078 2280.46L357.152 2284.9ZM426.989 2220.19C425.438 2220.56 424.036 2220.35 422.782 2219.57C421.515 2218.74 420.7 2217.55 420.336 2216C419.972 2214.45 420.179 2213.05 420.956 2211.8C421.733 2210.54 422.897 2209.73 424.448 2209.37C425.998 2209 427.4 2209.21 428.655 2209.99C429.962 2210.75 430.798 2211.91 431.162 2213.46C431.526 2215.01 431.299 2216.45 430.48 2217.77C429.703 2219.02 428.539 2219.83 426.989 2220.19ZM428.112 2268.24L427.811 2266.96L432.421 2263.17L426.737 2238.95L420.862 2236.27L420.655 2235.39L433.092 2227.82L433.894 2227.63L441.724 2260.99L447.218 2262.41L447.519 2263.69L428.112 2268.24ZM475.041 2257.23L474.74 2255.95L480.705 2251.08L470.428 2207.29L462.921 2205.59L462.619 2204.3L486.116 2198.79C489.805 2197.92 493.226 2197.6 496.38 2197.82C499.521 2197.98 502.128 2198.75 504.199 2200.13C506.311 2201.44 507.681 2203.43 508.309 2206.1C508.949 2208.83 508.549 2211.57 507.111 2214.34C505.713 2217.03 503.309 2219.29 499.9 2221.11C505.035 2220.63 509.289 2221.21 512.662 2222.85C516.089 2224.47 518.222 2227.07 519.063 2230.65C519.753 2233.59 519.412 2236.47 518.039 2239.27C516.654 2242.02 514.434 2244.46 511.38 2246.59C508.325 2248.71 504.66 2250.28 500.383 2251.28L475.041 2257.23ZM484.024 2203.93L480.415 2204.78L484.913 2223.95L489.003 2222.99C492.639 2222.13 495.278 2220.64 496.92 2218.5C498.616 2216.36 499.119 2213.81 498.429 2210.87C496.898 2204.35 492.097 2202.04 484.024 2203.93ZM492.449 2226.49L485.873 2228.04L490.767 2248.89L497.904 2247.21C501.914 2246.27 504.842 2244.57 506.689 2242.1C508.577 2239.57 509.158 2236.76 508.43 2233.66C507.602 2230.13 505.817 2227.81 503.076 2226.71C500.322 2225.55 496.78 2225.48 492.449 2226.49ZM548.945 2240.73C545.31 2241.58 541.875 2241.49 538.64 2240.44C535.458 2239.38 532.759 2237.62 530.544 2235.15C528.316 2232.63 526.788 2229.6 525.96 2226.07C525.132 2222.54 525.16 2219.18 526.046 2215.98C526.919 2212.73 528.544 2209.93 530.923 2207.56C533.355 2205.19 536.389 2203.57 540.024 2202.72C543.713 2201.85 547.148 2201.95 550.33 2203.01C553.511 2204.07 556.216 2205.86 558.444 2208.38C560.66 2210.85 562.181 2213.85 563.009 2217.38C563.838 2220.91 563.815 2224.3 562.942 2227.55C562.057 2230.74 560.425 2233.52 558.046 2235.89C555.668 2238.25 552.634 2239.87 548.945 2240.73ZM549.023 2236.74C550.841 2236.31 552.16 2235.32 552.982 2233.78C553.857 2232.22 554.317 2230.33 554.362 2228.12C554.408 2225.91 554.154 2223.63 553.602 2221.28C552.925 2218.39 551.937 2215.75 550.64 2213.34C549.384 2210.87 547.872 2209 546.106 2207.72C544.339 2206.45 542.333 2206.07 540.088 2206.6C538.27 2207.02 536.924 2208.02 536.049 2209.58C535.174 2211.13 534.687 2213.03 534.588 2215.25C534.543 2217.46 534.796 2219.74 535.348 2222.09C536.026 2224.98 536.987 2227.63 538.23 2230.05C539.528 2232.45 541.093 2234.31 542.925 2235.63C544.745 2236.89 546.778 2237.26 549.023 2236.74ZM573.372 2234.15L573.071 2232.87L577.762 2229.06L566.695 2181.91L560.72 2179.16L560.532 2178.36L573.05 2170.77L573.772 2170.6L586.984 2226.9L592.478 2228.31L592.779 2229.6L573.372 2234.15ZM612.573 2225.8C610.007 2226.4 607.524 2226.28 605.125 2225.43C602.78 2224.57 600.704 2223.06 598.897 2220.89C597.091 2218.71 595.798 2215.97 595.02 2212.66C593.966 2208.17 593.892 2204.12 594.796 2200.53C595.741 2196.86 597.457 2193.84 599.942 2191.45C602.415 2189.01 605.443 2187.37 609.025 2186.53C611.644 2185.91 613.946 2185.62 615.93 2185.67L612.524 2171.15L606.21 2168.4L606.04 2167.68L618.879 2160.01L619.6 2159.84L632.869 2216.38L639.109 2217.37L639.41 2218.65L625.296 2221.97L623.713 2218.11L623.152 2218.24C621.522 2220.43 619.886 2222.11 618.244 2223.28C616.602 2224.46 614.711 2225.3 612.573 2225.8ZM603.796 2208.23C604.8 2212.51 606.556 2215.42 609.064 2216.98C611.56 2218.48 614.144 2218.91 616.817 2218.29C618.956 2217.79 620.944 2216.64 622.781 2214.86L617.417 2192C616.242 2191.32 615.063 2190.86 613.881 2190.63C612.739 2190.34 611.527 2190.34 610.244 2190.64C608.426 2191.07 606.882 2191.94 605.611 2193.25C604.327 2194.51 603.468 2196.38 603.032 2198.85C602.638 2201.25 602.892 2204.38 603.796 2208.23Z" fill="#ACD1FF"/>
<path d="M493.812 2127C572.081 2111.97 678.718 2152.15 688.543 2157.16L691.303 2167.46C691.982 2169.99 675.983 2186.28 667.899 2194.1L691.107 2179.39C690.694 2186.3 681.224 2210.9 646.651 2254.12C612.078 2297.34 534.728 2328.25 500.375 2338.3C460.537 2392.27 427.887 2412.9 412.056 2417.14C396.224 2421.39 417.203 2357.19 416.141 2353.23C401.526 2358.85 299.15 2347.23 277.279 2335.27C259.782 2325.7 225.278 2320.62 210.214 2319.28C180.924 2366.18 119.223 2454.02 106.733 2430.2C94.2431 2406.38 112.097 2347.84 122.585 2321.54C106.782 2307.95 73.6758 2278.96 67.6692 2271.74C60.161 2262.72 46.4578 2240.08 57.483 2233.73C66.3031 2228.65 152.226 2248.52 194.085 2259.09L291.341 2191.44L240.458 2156.69C237.041 2154.49 236.486 2147.57 261.601 2137.44C286.716 2127.32 369.276 2137.17 407.416 2143.36C410.125 2142.92 431.198 2139.02 493.812 2127Z" fill="#02304A"/>
<path d="M644.271 1662.51C693.691 1719.62 711.24 1826.18 711.787 1836.61L704.643 1843.76C702.885 1845.51 681.941 1840.1 671.688 1837.17L694.755 1849.25C688.895 1852.18 664.213 1856.07 612.363 1848.17C560.513 1840.28 498.494 1791.44 473.966 1768.01C410.8 1760.89 378.397 1743.87 367.415 1732.89C356.432 1721.91 419.053 1708.71 421.8 1705.96C410.268 1696.63 371.293 1607.1 370.749 1583.48C370.315 1564.59 358.129 1533.87 352.09 1520.87C299.726 1519.05 198.405 1510.04 212.032 1488.5C225.66 1466.96 282.166 1453.88 308.716 1450.03C312.383 1430.62 320.486 1389.71 323.564 1381.36C327.412 1370.92 339.503 1348.95 349.937 1354.99C358.284 1359.82 382.688 1439.75 393.846 1479.11L495.451 1526.88L499.86 1468.65C500.045 1464.81 505.466 1461.07 525.675 1476.88C545.885 1492.7 576.918 1565.12 589.909 1599.35C591.556 1601.37 604.735 1616.82 644.271 1662.51Z" fill="#02304A"/>
<path d="M512.873 1895.35C588.992 1921.75 662.038 2010.83 668.11 2020.18L665.321 2030.59C664.634 2033.15 642.397 2039.32 631.364 2042.08L659.116 2040.94C655.266 2046.77 634.538 2063.53 582.426 2083.89C530.313 2104.25 446.971 2092.22 411.814 2083.65C349.66 2110.76 310.648 2112.32 294.643 2108.03C278.639 2103.75 329.451 2058.15 330.524 2054.15C314.891 2051.68 231.135 1989.76 218.035 1968.23C207.555 1951.01 179.912 1929.13 167.401 1920.34C118.056 1946.59 19.6412 1992.3 20.7446 1965.14C21.848 1937.97 67.0696 1895.74 89.5425 1878.02C82.5779 1858.14 68.2462 1816.03 66.6363 1806.67C64.624 1794.98 64.0728 1768.22 76.9336 1768.24C87.2223 1768.25 152.401 1829.08 183.705 1859.49L303.045 1849.42L276.063 1793.28C274.182 1789.63 277.197 1783.28 304.302 1787.11C331.407 1790.94 398.706 1841.3 428.967 1866C431.563 1866.98 451.979 1874.22 512.873 1895.35Z" fill="#02304A"/>
<path d="M653.66 2355.64C681.189 2276.3 774.137 2200.19 783.893 2193.86L794.759 2196.78C797.433 2197.49 803.881 2220.67 806.77 2232.18L805.565 2203.25C811.654 2207.26 829.152 2228.88 850.422 2283.21C871.693 2337.54 859.163 2424.41 850.24 2461.06C878.558 2525.86 880.201 2566.53 875.731 2583.21C871.261 2599.89 823.654 2546.91 819.475 2545.79C816.9 2562.08 752.309 2649.37 729.842 2663.02C711.869 2673.94 689.042 2702.74 679.875 2715.78C707.292 2767.23 755.039 2869.84 726.687 2868.68C698.335 2867.52 654.242 2820.36 635.739 2796.93C614.986 2804.18 571.038 2819.11 561.274 2820.78C549.068 2822.88 521.148 2823.44 521.159 2810.03C521.168 2799.31 584.631 2731.39 616.361 2698.76L605.806 2574.36L547.219 2602.46C543.409 2604.42 536.787 2601.28 540.774 2573.02C544.762 2544.77 597.294 2474.63 623.061 2443.1C624.084 2440.39 631.637 2419.11 653.66 2355.64Z" fill="#02304A"/>
<path d="M1056.83 2325.07C1038.25 2271.52 975.575 2220.12 968.996 2215.85L961.672 2217.81C959.87 2218.3 955.529 2233.94 953.584 2241.71L954.39 2222.18C950.285 2224.89 938.496 2239.47 924.17 2276.14C909.845 2312.8 918.312 2371.44 924.336 2396.18C905.262 2439.91 904.165 2467.35 907.182 2478.61C910.199 2489.87 942.278 2454.12 945.095 2453.37C946.835 2464.37 990.397 2523.3 1005.54 2532.51C1017.66 2539.89 1033.06 2559.34 1039.24 2568.14C1020.77 2602.86 988.61 2672.1 1007.72 2671.32C1026.83 2670.55 1056.55 2638.73 1069.01 2622.92C1083 2627.82 1112.63 2637.9 1119.21 2639.03C1127.44 2640.45 1146.26 2640.84 1146.25 2631.79C1146.24 2624.55 1103.45 2578.69 1082.05 2556.67L1089.14 2472.7L1128.64 2491.69C1131.21 2493.01 1135.67 2490.89 1132.97 2471.82C1130.28 2452.75 1094.85 2405.4 1077.47 2384.11C1076.78 2382.28 1071.69 2367.92 1056.83 2325.07Z" fill="#02304A"/>
<path opacity="0.7" d="M417.28 2450.06C463.708 2417.54 544.609 2412.61 552.443 2413L557.229 2418.88C558.407 2420.33 552.76 2435.55 549.789 2442.98L560.574 2426.68C562.314 2431.28 563.325 2450.01 553.456 2488.12C543.588 2526.22 502.375 2568.79 483.003 2585.3C472.843 2631.92 457.653 2654.81 448.611 2662.16C439.57 2669.52 434.514 2621.76 432.673 2619.5C424.82 2627.39 354.994 2649.63 337.318 2648.23C323.178 2647.1 299.308 2653.85 289.14 2657.36C283.771 2696.32 269.273 2771.27 254.239 2759.45C239.204 2747.62 233.763 2704.43 232.922 2684.31C218.712 2680.09 188.792 2670.9 182.794 2667.97C175.296 2664.29 159.815 2653.58 165.125 2646.25C169.372 2640.39 230.921 2628.3 261.164 2622.98L304.61 2550.78L261.476 2543.03C258.619 2542.6 256.244 2538.26 269.6 2524.39C282.956 2510.51 339.407 2492.89 365.963 2485.81C367.592 2484.74 380.137 2476.08 417.28 2450.06Z" fill="#ACD1FF"/>
<path opacity="0.7" d="M743.35 1490.92C752.087 1536.42 728.726 1598.42 725.815 1604.13L719.829 1605.74C718.356 1606.13 708.889 1596.83 704.34 1592.13L712.89 1605.62C708.878 1605.38 694.572 1599.88 669.447 1579.78C644.321 1559.68 626.351 1514.71 620.506 1494.74C589.132 1471.58 577.137 1452.6 574.671 1443.39C572.205 1434.19 609.523 1446.38 611.826 1445.77C608.562 1437.27 615.315 1377.75 622.271 1365.04C627.836 1354.87 630.785 1334.81 631.563 1326.05C604.3 1309.02 553.236 1273.15 567.082 1265.89C580.928 1258.63 614.963 1269.01 630.25 1275.11C638.152 1265.92 655.004 1246.67 659.201 1243.18C664.447 1238.82 677.611 1230.85 681.301 1237.26C684.254 1242.39 672.701 1292.34 666.556 1316.67L705.887 1373.21L726.089 1343.63C727.367 1341.65 731.393 1341.32 737.28 1355.92C743.166 1370.53 737.439 1418.52 733.839 1440.7C734.097 1442.27 736.359 1454.52 743.35 1490.92Z" fill="#ACD1FF"/>
<path opacity="0.7" d="M248.761 1649.48C271.913 1672.97 282.576 1718.91 283.109 1723.45L280.199 1726.76C279.482 1727.58 270.202 1725.81 265.651 1724.82L276.045 1729.44C273.574 1730.88 262.928 1733.27 240.11 1731.3C217.291 1729.32 188.882 1709.8 177.53 1700.28C149.802 1698.96 135.2 1692.47 130.103 1687.99C125.006 1683.51 151.922 1675.99 153.042 1674.72C147.752 1670.97 128.234 1633.06 127.329 1622.79C126.605 1614.57 120.425 1601.52 117.426 1596.03C94.5548 1596.72 50.1456 1595.66 55.4749 1585.89C60.8042 1576.12 85.0582 1568.81 96.519 1566.38C97.5678 1557.82 99.9416 1539.77 101.047 1536.04C102.428 1531.38 107.075 1521.47 111.793 1523.8C115.567 1525.67 128.464 1559.81 134.441 1576.65L180.069 1594.59L180.343 1569.09C180.315 1567.41 182.572 1565.63 191.826 1571.95C201.08 1578.27 216.654 1608.95 223.284 1623.5C224.058 1624.33 230.239 1630.69 248.761 1649.48Z" fill="#ACD1FF"/>
<path d="M1027.34 1708.26C1003.15 1759.52 935.335 1803.92 928.338 1807.46L921.266 1804.73C919.525 1804.05 916.882 1788.03 915.778 1780.11L914.491 1799.61C910.701 1796.47 900.538 1780.71 890.216 1742.73C879.893 1704.74 894.582 1647.34 903.216 1623.4C888.928 1577.88 890.772 1550.47 894.976 1539.59C899.18 1528.72 927.252 1567.7 929.972 1568.75C932.878 1558 982.492 1504.07 998.539 1496.52C1011.38 1490.49 1028.76 1472.8 1035.85 1464.7C1021.2 1428.21 996.627 1355.93 1015.55 1358.74C1034.47 1361.56 1060.6 1396.37 1071.31 1413.42C1085.74 1410.05 1116.28 1403.19 1122.95 1402.77C1131.28 1402.24 1150.03 1403.87 1149.06 1412.86C1148.27 1420.06 1100.82 1461.08 1077.19 1480.69L1075.26 1564.93L1116.56 1550.28C1119.25 1549.24 1123.47 1551.82 1118.75 1570.5C1114.03 1589.17 1073.74 1632.46 1054.18 1651.77C1053.3 1653.51 1046.7 1667.25 1027.34 1708.26Z" fill="#02304A"/>
<path opacity="0.7" d="M1117.78 1712.22C1043.9 1756.7 987.103 1866.15 982.812 1877.29L988.036 1887.57C989.321 1890.1 1013.97 1891.65 1026.14 1892.1L996.823 1897.04C1002.14 1902.3 1027.56 1915.26 1086.64 1925.06C1145.72 1934.86 1230.34 1903.82 1265.27 1887.08C1336.35 1901.73 1377.56 1894.73 1393.37 1886.7C1409.18 1878.67 1345.88 1842.16 1343.88 1838.2C1359.7 1832.16 1433.72 1748.79 1442.68 1723.34C1449.85 1702.99 1473.96 1673.96 1485.12 1661.99C1542.6 1678.57 1655.78 1704.67 1648.62 1676.47C1641.45 1648.27 1584.75 1614.04 1557.3 1600.45C1560.2 1578.09 1565.89 1530.81 1565.51 1520.66C1565.03 1507.97 1559.69 1479.83 1546.23 1482.69C1535.45 1484.98 1480.64 1563.1 1454.59 1601.87L1327.38 1617.72L1343.22 1552.95C1344.38 1548.71 1339.82 1542.74 1312.28 1552.74C1284.74 1562.75 1225.39 1630.37 1199.16 1662.93C1196.66 1664.53 1176.88 1676.63 1117.78 1712.22Z" fill="#ACD1FF"/>
<path d="M1219.71 1999.39C1158.89 1987.71 1076.02 2018.93 1068.38 2022.82L1066.24 2030.83C1065.71 2032.79 1078.14 2045.45 1084.43 2051.53L1066.39 2040.1C1066.71 2045.46 1074.07 2064.59 1100.94 2098.17C1127.81 2131.76 1187.91 2155.78 1214.61 2163.59C1245.57 2205.53 1270.94 2221.56 1283.24 2224.86C1295.55 2228.16 1279.24 2178.27 1280.07 2175.19C1291.43 2179.56 1370.98 2170.53 1387.98 2161.23C1401.58 2153.79 1428.39 2149.85 1440.1 2148.81C1462.86 2185.25 1510.8 2253.51 1520.51 2235C1530.22 2216.5 1516.34 2171 1508.19 2150.57C1520.47 2140 1546.2 2117.48 1550.87 2111.87C1556.7 2104.86 1567.35 2087.26 1558.78 2082.33C1551.93 2078.38 1485.16 2093.82 1452.63 2102.04L1377.05 2049.46L1416.59 2022.46C1419.25 2020.75 1419.68 2015.37 1400.16 2007.5C1380.65 1999.63 1316.49 2007.29 1286.85 2012.1C1284.74 2011.75 1268.37 2008.73 1219.71 1999.39Z" fill="#02304A"/>
<path opacity="0.7" d="M1096.96 2296.79C1070.6 2272.23 1056.81 2222.58 1056.02 2217.66L1059.04 2213.9C1059.79 2212.98 1070 2214.48 1075.01 2215.34L1063.45 2210.79C1066.08 2209.1 1077.59 2205.99 1102.59 2207.08C1127.59 2208.17 1159.51 2228.16 1172.35 2238.02C1202.68 2238.17 1218.92 2244.58 1224.69 2249.23C1230.47 2253.87 1201.44 2263.34 1200.27 2264.79C1206.22 2268.62 1229.3 2309.1 1230.76 2320.27C1231.94 2329.21 1239.29 2343.16 1242.82 2349.02C1267.76 2347.2 1316.28 2346.29 1310.92 2357.2C1305.56 2368.12 1279.42 2377.22 1267.03 2380.41C1266.28 2389.8 1264.53 2409.62 1263.5 2413.74C1262.21 2418.89 1257.6 2429.93 1252.34 2427.6C1248.13 2425.73 1232.46 2389.07 1225.15 2370.97L1174.51 2353.51L1175.4 2381.36C1175.51 2383.19 1173.13 2385.24 1162.73 2378.78C1152.33 2372.31 1133.9 2339.54 1125.99 2323.97C1125.1 2323.1 1118.06 2316.44 1096.96 2296.79Z" fill="#ACD1FF"/>
<path d="M966.768 315.309C939.668 321.253 922.877 311.892 917.268 307.853C917.268 310.804 917.964 317.546 920.749 320.901C924.231 325.095 934.676 337.212 949.762 338.61C964.849 340.008 985.739 337.212 987.48 337.212C989.221 337.212 1013.59 331.153 1031 319.037C1048.41 306.92 1065.82 295.27 1082.64 286.881C1096.11 280.171 1114.42 271.503 1121.58 273.367C1130.48 274.92 1150.84 271.503 1143.88 273.367C1136.91 275.231 1122.16 283.93 1121.58 286.881C1120.81 293.25 1127.95 314.846 1149.77 310C1177.04 303.942 1164.77 273.367 1164.77 273.367C1164.77 273.367 1161.26 257.126 1128.77 252C1102.77 247.899 1051.1 276.752 1040.27 282.5C1023.27 291.521 993.445 309.457 966.768 315.309Z" fill="#D4ECFF" stroke="#D4ECFF" stroke-width="4.53545"/>
<path d="M1010.81 397.246C983.69 399.202 947.272 377.306 934.268 367.936C936.613 367.936 947.62 372.314 958.364 375.247C971.795 378.913 994.179 371.581 1009.53 369.747C1024.88 367.914 1041.51 348.971 1047.9 345.915C1054.3 342.86 1070.92 376.469 1096.51 381.969C1122.09 387.469 1158.54 370.969 1179.01 365.47C1199.47 359.971 1219.3 344.693 1253.83 331.25C1288.37 317.806 1292.21 325.139 1322.91 323.917C1347.46 322.939 1369.38 346.323 1377.27 358.137C1367.03 352.638 1342.22 341.76 1324.82 342.249C1303.08 342.86 1274.94 349.582 1249.36 365.47C1223.78 381.358 1179.65 400.301 1163.02 406.412C1146.39 412.523 1111.86 413.745 1086.91 409.468C1061.97 405.19 1054.3 392.357 1047.9 391.135C1041.51 389.913 1044.7 394.802 1010.81 397.246Z" fill="#ACD1FF"/>
<path d="M1136.33 343.691C1145.03 342.785 1170.25 331.99 1181.77 326.706C1187.53 323.498 1203.15 315.496 1219.53 309.154C1240.02 301.228 1265.62 300.662 1277.14 301.228L1277.42 301.242C1289.25 301.822 1325.95 303.623 1346.9 319.912C1363.8 333.047 1374.85 352.184 1378.27 360.11C1362.27 341.427 1343.06 331.802 1328.98 328.971C1314.9 326.14 1271.38 330.103 1261.78 334.066C1240.27 337.237 1204.6 355.015 1189.45 363.507C1175.16 370.868 1137.86 385.022 1103.04 382.757C1068.23 380.493 1051.84 361.431 1048 352.184C1039.25 359.167 1015.61 373.925 991.035 377.096C960.312 381.059 930.23 370.302 921.269 361.809C912.052 356.374 906.761 344.824 905.268 339.728C908.468 341.615 917.941 345.956 930.23 348.221C945.591 351.052 962.872 348.787 987.835 345.39C1012.8 341.993 1027.52 327.838 1039.04 321.61C1048.26 316.628 1065.07 301.794 1072.32 295C1072.11 296.699 1071.81 302.134 1072.32 310.287C1072.96 320.478 1076.16 326.706 1085.76 335.765C1095.36 344.824 1125.45 344.824 1136.33 343.691Z" fill="#D4ECFF"/>
<path d="M1000.17 348.65C971.918 353.697 938.91 332.965 938.268 332.404C962.021 331.469 1000.17 335.977 1027.77 317.244C1047.13 304.107 1081.06 277.425 1102.88 269.013C1120.35 262.283 1138.64 268.351 1144.63 272.464C1130.76 273.361 1120.64 283.781 1118.29 288.642C1113.58 295.932 1108.53 314.439 1125.99 330.142C1143.46 345.846 1171.79 326.8 1185.27 322.5C1182.49 325.491 1168.62 345.733 1155.27 352.015C1138.58 359.866 1124.37 360.427 1096.77 352.015C1074.68 345.285 1070.78 321.543 1074.64 310.514C1067.57 319.487 1028.41 343.602 1000.17 348.65Z" fill="#ACD1FF"/>
<defs>
<clipPath id="clip0_667_2">
<rect width="200" height="239" fill="white" transform="translate(1150.26 644.501)"/>
</clipPath>
</defs>
</svg>
