<svg width="1440" height="972" viewBox="0 0 1440 972" fill="none" xmlns="http://www.w3.org/2000/svg">
<path d="M-2 489.614H1429.54L1435 913.577H-2V489.614Z" fill="#ACD1FF"/>
<path d="M-2 248.825C-2 248.825 131.88 335.222 150.064 337.054C168.247 338.886 224.575 349.925 270.01 373.811C315.446 397.697 339.075 401.385 366.339 392.19C393.603 382.995 464.479 417.92 508.103 445.493C551.728 473.067 595.34 489.614 595.34 489.614H-2V248.825Z" fill="#ACD1FF"/>
<path d="M-2 356.196C-2 356.196 75.6923 376.419 101.145 395.408C126.597 414.397 161.722 430.333 221.091 432.787C280.46 435.242 328.323 456.075 338.622 460.972C348.922 465.869 413.748 489.614 413.748 489.614H-2V356.196Z" fill="#450809"/>
<path d="M863.715 490.347C863.715 490.347 1023.21 457.285 1090.12 453.577C1157.04 449.869 1212.04 388.684 1243.21 380.333C1274.38 371.981 1298.21 373.841 1330.3 354.378C1362.38 334.915 1388.97 321.008 1420.13 321.008H1440V490.359H863.727L863.715 490.347Z" fill="#ACD1FF"/>
<path d="M879.332 738.377L925.952 197.965H1067.72L1112.7 750.778L879.332 738.377Z" fill="white"/>
<path d="M924.851 210.775C924.851 210.775 1025.46 220.64 1030.91 237.797C1036.36 254.954 1033.34 688.195 1033.34 688.195L1105.2 658.695L1067.71 197.975H925.943L924.84 210.787L924.851 210.775Z" fill="#DEF1FD"/>
<path d="M1061.92 97.2979H933.791V183.695H1061.92V97.2979Z" fill="#FFECDF"/>
<path d="M979.413 265.982H960.637V313.778H979.413V265.982Z" fill="#450809"/>
<path d="M975.79 400.162H955.795V449.179H975.79V400.162Z" fill="#450809"/>
<path d="M970.031 534.955H950.953V581.518H970.031V534.955Z" fill="#450809"/>
<path d="M1086.19 156.451H909.605V162.299L914.146 162.006V181.559H909.605V197.964H1086.19V182.475H1081.65L1081.05 162.006H1086.19V156.451ZM950.687 183.684H920.242V161.736H950.687V183.684ZM978.74 182.874H955.912V161.736L978.74 162.088V182.874ZM1008.16 183.684H983.06V161.736H1008.16V183.684ZM1037.69 182.874H1013.16V161.736H1037.69V182.874ZM1075.97 182.874H1043.37V161.736C1043.72 162.088 1075.97 161.736 1075.97 161.736V182.874Z" fill="#450809"/>
<path d="M922.666 97.2985L1072 96.6056C1072 96.6056 1072.78 96.0654 1072.74 95.1494C1072.71 94.3274 1072.07 93.8929 1072 93.8459C1048.45 76.1837 1024.89 58.5097 1001.35 40.8475L1000.59 1.63599C999.929 0.414667 998.629 -0.207737 997.444 0.0623628C996.225 0.344207 995.668 1.47158 995.586 1.63599C995.18 14.8592 994.774 28.0823 994.379 41.3055L922.666 93.6932C922.574 93.7519 921.738 94.2686 921.645 95.3021C921.575 96.0889 921.97 96.864 922.666 97.2985Z" fill="#450809"/>
<path d="M561.109 913.506L813.5 732.987L939.5 737.034L1165.67 629.286L1245.18 536.396L1440 461.529V914.864L561.121 913.506H561.109Z" fill="#450809"/>
<path d="M600.564 337.49H586.055C585.594 337.834 584.327 338.315 582.945 337.49C581.564 336.665 580.297 332.565 579.836 330.618C577.902 330.618 574.655 322.601 573.273 318.592C566.594 315.958 551.993 310.277 547.018 308.628C542.044 306.978 512.933 308.628 499 309.658C513.394 305.421 542.735 296.945 544.945 296.945C547.156 296.945 565.212 305.421 573.964 309.658C574.424 309.429 575.898 308.903 578.109 308.628C580.32 308.353 586.17 310.804 588.818 312.064C596.648 309.888 613.207 305.535 616.8 305.535C620.393 305.535 653.764 322.944 670 331.649C654.109 327.526 621.222 319.21 616.8 318.936C612.378 318.661 600.218 322.486 594.691 324.433C594.115 325.12 592.964 326.907 592.964 328.556C592.964 330.206 598.03 335.199 600.564 337.49Z" fill="#BA8485"/>
<path fill-rule="evenodd" clip-rule="evenodd" d="M1640 763.937C1586.51 700.838 1521.29 665.817 1390.07 681.791C1283.89 686.696 1086.53 804.04 980.349 808.945C874.17 813.85 788.178 754.127 735.488 744.317L682 734.507V969.945H735.488C788.178 969.945 895.155 969.945 1001.33 969.945C1107.51 969.945 1214.49 969.945 1320.67 969.945C1426.84 969.945 1533.82 969.945 1586.51 969.945H1640V763.937Z" fill="#ACD1FF"/>
<path d="M770.454 406.688C769.539 407.242 767.326 406.458 766.334 405.996C768.089 403.153 771.37 397.465 770.454 397.465C769.31 397.465 764.274 398.387 763.13 398.387C761.985 398.387 758.781 396.312 757.179 395.62C755.577 394.928 751.228 394.467 749.854 394.237C748.481 394.006 742.301 392.161 740.012 392.161C737.723 392.161 736.808 389.164 735.664 388.703C734.519 388.241 732.459 388.703 731.315 388.011C730.399 387.458 731.696 386.397 732.459 385.936C740.47 386.627 757.087 388.011 759.468 388.011C761.848 388.011 769.005 390.009 772.285 391.008C772.819 390.009 774.071 388.011 774.803 388.011C775.719 388.011 779.61 390.086 781.212 390.086C782.814 390.086 787.849 387.55 789.681 385.936C791.512 384.322 802.956 381.324 804.1 381.324C805.245 381.324 813.713 379.479 816.46 379.018C818.657 378.649 825.921 375.483 829.278 373.945C829.583 374.253 830.147 375.098 829.964 376.021C829.735 377.173 816.46 382.246 814.629 382.707C812.798 383.169 805.016 385.936 804.1 386.858C803.185 387.78 792.198 391.7 789.681 392.161C787.666 392.53 783.195 395.851 781.212 397.465L784.416 400.693L779.609 403.549L781.212 407.841C780.449 407.841 778.923 407.611 778.923 406.688C778.923 405.766 776.939 406.15 775.947 406.458L777.092 410.147C776.863 410.531 776.222 411.208 775.49 410.839C774.757 410.47 775.185 407.457 775.49 405.996C774.193 405.996 771.37 406.135 770.454 406.688Z" fill="#BA8485"/>
<path fill-rule="evenodd" clip-rule="evenodd" d="M1440 800.378L1424.27 806.074C1407.33 811.769 1375.87 823.16 1343.2 823.16C1310.53 823.16 1279.07 811.769 1246.4 811.769C1213.73 811.769 1182.27 823.16 1149.6 828.856C1116.93 834.551 1085.47 834.551 1052.8 840.247C1020.13 845.943 988.67 857.334 956 874.42C923.33 891.507 891.87 914.289 859.2 885.811C826.53 857.334 795.07 777.596 762.4 749.118C729.73 720.641 698.27 743.423 665.6 777.596C632.93 811.769 601.47 857.334 568.8 863.029C536.13 868.725 504.67 834.551 472 800.378C439.33 766.205 407.87 732.032 375.2 732.032C342.53 732.032 311.07 766.205 278.4 794.683C245.73 823.16 214.27 845.943 181.6 840.247C148.93 834.551 117.47 800.378 84.8 766.205C52.13 732.032 20.67 697.858 3.7301 680.772L-12 663.685V971.245H3.7301C20.67 971.245 52.13 971.245 84.8 971.245C117.47 971.245 148.93 971.245 181.6 971.245C214.27 971.245 245.73 971.245 278.4 971.245C311.07 971.245 342.53 971.245 375.2 971.245C407.87 971.245 439.33 971.245 472 971.245C504.67 971.245 536.13 971.245 568.8 971.245C601.47 971.245 632.93 971.245 665.6 971.245C698.27 971.245 729.73 971.245 762.4 971.245C795.07 971.245 826.53 971.245 859.2 971.245C891.87 971.245 923.33 971.245 956 971.245C988.67 971.245 1020.13 971.245 1052.8 971.245C1085.47 971.245 1116.93 971.245 1149.6 971.245C1182.27 971.245 1213.73 971.245 1246.4 971.245C1279.07 971.245 1310.53 971.245 1343.2 971.245C1375.87 971.245 1407.33 971.245 1424.27 971.245H1440V800.378Z" fill="#D4ECFF"/>
<path d="M535.855 594.888H421C435.481 575.439 467.18 534.457 478.13 526.122C489.08 517.786 510.067 561.548 519.192 584.47C521.969 583.081 530.856 576.343 544.187 560.506C560.85 540.709 615.812 539.85 645.95 545.918C670.566 550.874 693.511 571.966 707 594.888H675.913H535.855Z" fill="#450809"/>
</svg>
