<svg width="1426" height="891" viewBox="0 0 1426 891" fill="none" xmlns="http://www.w3.org/2000/svg">
<rect width="1426" height="891" fill="#D4ECFF"/>
<path d="M35.6736 297.016C35.6736 297.016 33.8036 263.927 42.2148 260.941C50.6261 257.954 55.2893 254.678 55.2893 251.699C55.2893 248.72 67.4327 248.72 67.4327 244.842V238.579C67.4327 238.579 80.5071 240.964 83.3162 238.579C86.1252 236.195 95.7699 235.303 95.7699 235.303C95.7699 235.303 70.8624 234.412 67.4327 232.324C64.0029 230.237 45.0159 230.237 40.9655 228.446C36.915 226.656 30.3818 210.26 33.4932 203.997C36.6047 197.735 37.854 193.262 35.984 179.548C34.1139 165.834 34.1139 141.987 42.8355 136.616C51.5571 131.245 71.1728 130.65 74.2842 123.793C77.3957 116.936 82.3772 114.552 80.5151 110.971C78.653 107.39 61.8305 100.838 58.719 93.676C55.6076 86.5143 56.849 78.4688 55.9179 72.5108C54.9869 66.5528 49.0664 50.1494 52.4961 40.0163C55.9259 29.8832 53.7455 21.5329 60.5891 20.0396C67.4327 18.5463 102.311 19.7425 114.462 18.2492C126.614 16.7559 168.957 11.9864 187.331 20.0396C205.705 28.0927 220.339 33.4564 220.96 39.1173C221.581 44.7781 229.371 68.9299 236.215 68.9299C243.058 68.9299 241.817 71.3146 244.936 61.7758C248.056 52.237 253.658 34.3478 270.162 29.8756C286.666 25.4033 293.208 13.914 314.693 15.4835C336.179 17.053 354.864 14.074 358.596 20.931C362.328 27.788 360.776 42.3934 365.137 45.38C369.498 48.3666 373.859 52.237 378.211 50.1494C382.564 48.0618 385.373 34.3478 393.466 28.687C401.559 23.0262 395.336 17.6549 417.443 16.7635C439.549 15.8721 455.743 15.4149 459.165 15.3464C462.587 15.2778 467.886 12.596 470.377 12.8931C472.868 13.1902 469.756 13.7845 485.632 14.9807C501.507 16.1768 516.15 17.0682 527.672 18.5615C539.195 20.0548 538.885 19.4529 549.158 16.474C559.431 13.495 576.556 21.5405 594.93 20.0548C613.305 18.5692 755.293 20.6491 780.519 19.1634C805.745 17.6777 836.565 14.394 841.865 14.394C847.165 14.394 849.647 31.6889 877.364 31.986C877.364 31.986 886.706 33.4793 888.266 22.15C888.266 19.4682 980.75 18.8739 988.222 20.6567C995.694 22.4395 1007.84 23.9328 1016.25 59.4139C1016.25 63.292 1021.54 62.9948 1022.79 58.5225C1024.04 54.0503 1021.54 39.4449 1024.35 35.864C1027.16 32.2831 1034.93 26.028 1038.05 17.9749C1041.17 9.92173 1050.51 18.272 1050.51 18.272C1050.51 18.272 1049.89 15.8873 1053.31 15.8873C1056.73 15.8873 1099.7 15.5902 1107.8 18.272C1115.9 20.9539 1122.13 42.4239 1126.18 43.9095C1130.23 45.3952 1135.83 25.7233 1135.83 25.7233C1135.83 25.7233 1146.73 17.6701 1156.07 17.0759C1165.4 16.4816 1227.37 16.7787 1230.18 17.0759C1232.98 17.373 1238.59 41.5248 1246.99 38.843C1255.39 36.1611 1252.59 23.6357 1264.42 20.0625C1276.26 16.4892 1354.42 18.5692 1360.64 20.0625C1366.86 21.5558 1370.29 32.5803 1370.29 32.5803C1370.29 32.5803 1381.51 36.7554 1384.62 36.7554C1387.73 36.7554 1391.47 52.2598 1388.36 54.9417C1385.25 57.6235 1389.53 59.7111 1389.53 59.7111C1389.53 59.7111 1389.46 118.742 1389.53 122.018C1389.6 125.294 1378.7 129.47 1378.39 132.456C1378.08 135.443 1379.02 140.509 1377.15 141.995C1375.28 143.481 1357.53 148.555 1351.61 146.467C1345.69 144.38 1341.34 144.974 1339.47 146.764C1339.47 146.764 1348.19 147.359 1353.17 151.831C1358.15 156.303 1368.42 154.81 1369.98 158.688C1371.54 162.566 1371.54 171.51 1372.47 174.787C1373.41 178.063 1385.55 183.731 1385.55 195.952C1385.55 208.172 1385.55 213.247 1388.04 215.929C1390.53 218.61 1391.78 356.649 1391.78 356.649C1391.78 356.649 1389.6 357.243 1387.11 362.912C1384.62 368.58 1391.47 410.019 1386.8 415.383C1382.13 420.747 1375.59 420.747 1375.59 420.747C1375.59 420.747 1379.33 444.297 1374.03 452.35C1368.73 460.403 1386.79 472.327 1388.04 478.886C1389.29 485.446 1389.91 574.884 1389.91 574.884C1389.91 574.884 1385.24 579.654 1385.86 583.532C1386.48 587.41 1390.53 628.254 1387.11 633.618C1383.69 638.982 1376.83 648.223 1373.41 647.332C1369.98 646.441 1369.67 644.65 1366.86 645.542C1364.06 646.433 1363.12 650.905 1360.32 651.507C1357.52 652.109 1352.54 648.231 1349.42 649.42C1346.3 650.608 1344.44 655.385 1340.7 655.08C1336.96 654.776 1322.64 656.277 1320.77 657.762C1318.91 659.248 1342.88 658.357 1348.17 661.038C1353.46 663.72 1360 663.126 1362.18 664.619C1364.37 666.113 1368.73 665.815 1373.09 666.707C1377.45 667.598 1388.66 673.267 1387.41 677.739C1386.16 682.211 1384.3 683.4 1387.72 684.893C1391.14 686.386 1393.32 686.981 1393.32 693.838C1393.32 700.695 1392.7 729.913 1385.85 734.088C1379 738.263 1373.71 735.284 1373.71 735.284C1373.71 735.284 1373.09 743.338 1367.79 746.019C1362.5 748.701 1358.45 746.019 1358.45 746.019C1358.45 746.019 1381.5 757.051 1385.54 763.314C1389.58 769.577 1389.28 806.544 1386.16 810.719C1383.04 814.894 1379.93 814.597 1379.93 814.597C1379.93 814.597 1387.09 818.178 1380.24 823.839C1373.39 829.499 1368.1 830.101 1368.1 830.101C1368.1 830.101 1368.72 840.234 1367.17 842.322C1365.61 844.41 1350.35 870.047 1344.75 870.641C1339.15 871.236 1324.51 871.236 1320.15 873.323C1315.79 875.411 1293.69 873.026 1287.76 873.323C1281.84 873.62 1271.26 870.344 1263.79 872.729C1256.32 875.114 1248.84 874.755 1243.23 874.192C1237.62 873.628 1192.79 873.331 1192.79 873.331C1192.79 873.331 1182.83 865.278 1182.52 860.211C1182.52 860.211 1173.48 859.617 1171.61 857.232C1169.74 854.847 1157.91 841.133 1148.26 839.046C1138.61 836.958 1123.66 838.154 1123.66 838.154C1123.66 838.154 1125.84 844.417 1121.17 846.505C1116.5 848.592 1109.65 860.813 1109.03 864.691C1108.41 868.569 1107.47 872.744 1107.47 872.744C1107.47 872.744 1097.19 873.94 1093.76 872.15C1090.33 870.359 1086.91 874.717 1085.04 874.626C1083.17 874.535 1073.52 876.508 1071.34 874.626C1069.16 872.744 1066.98 870.954 1057.33 870.954C1047.67 870.954 1047.98 872.447 1043.31 873.338C1038.64 874.23 1021.83 873.041 1008.12 873.041C994.421 873.041 1001.89 877.834 979.166 875.441C956.439 873.049 947.097 877.811 943.978 870.359C940.858 862.908 941.797 860.226 943.047 856.051C944.296 851.876 939.625 847.404 938.686 844.425C937.747 841.446 938.065 847.701 931.524 853.369C924.983 859.038 917.2 855.457 912.219 860.226C907.237 864.996 911.598 867.975 903.187 870.062C894.775 872.15 847.761 877.986 840.6 876.112C833.438 874.237 834.058 870.954 827.835 871.251C821.613 871.548 820.984 872.447 811.331 873.636C801.679 874.824 802.299 876.615 792.957 873.041C783.615 869.468 777.384 876.02 771.161 873.933C764.938 871.845 761.508 862.901 756.837 861.712C752.166 860.523 742.203 862.009 739.402 864.097C736.601 866.184 735.662 870.656 734.731 872.15C733.8 873.643 730.68 869.765 723.829 871.853C716.977 873.94 713.245 876.919 708.574 874.832C703.903 872.744 712.314 872.15 693.629 871.853C674.945 871.556 528.906 874.535 523.924 874.237C518.943 873.94 509.911 868.874 509.911 868.874C509.911 868.874 506.489 872.752 500.258 872.15C494.027 871.548 446.703 873.643 439.852 872.447C433 871.251 429.268 857.842 429.268 857.842C429.268 857.842 423.355 866.489 418.055 867.38C412.756 868.272 402.172 866.489 396.57 867.975C390.968 869.46 382.246 873.041 379.755 873.636C377.264 874.23 277.929 872.439 277.929 872.439C277.929 872.439 268.276 847.099 265.785 837.56C265.785 837.56 262.364 844.417 257.064 848.592C251.764 852.767 245.852 851.274 245.231 853.956C244.61 856.638 247.101 859.32 245.231 862.603C243.361 865.887 239.629 870.657 234.957 870.657C230.286 870.657 226.236 870.359 225.305 872.447C224.374 874.535 224.374 876.63 218.453 876.477C212.533 876.325 148.394 878.138 135.932 876.485C123.471 874.832 116.627 871.251 102.924 872.447C89.2208 873.643 86.1093 873.338 79.2578 873.338C72.4062 873.338 56.841 860.821 56.841 857.834C56.841 854.847 55.5917 851.571 55.5917 851.571C55.5917 851.571 41.2679 849.781 41.2679 847.99C41.2679 846.2 33.1829 736.161 34.7426 731.094C36.3023 726.027 38.1644 723.346 38.1644 722.447C38.1644 721.548 36.915 722.149 36.915 714.096C36.915 706.043 35.6657 683.087 38.7851 678.615C41.9045 674.143 44.3873 673.846 44.3873 670.265C44.3873 666.684 38.7851 663.408 37.5357 658.341C36.2864 653.275 37.2254 655.362 39.4058 649.694C41.5862 644.026 36.2943 644.033 35.984 641.344C35.6736 638.654 34.7346 600.499 34.7346 600.499C34.7346 600.499 44.3873 576.05 44.0769 572.179C43.7666 568.309 36.915 547.731 36.915 547.731L37.2254 507.48C37.2254 507.48 43.1379 501.217 42.8276 496.151C42.5172 491.084 40.0265 460.67 42.8276 456.799C45.6287 452.929 50.2998 450.536 50.6102 447.855C50.9205 445.173 49.3608 446.079 51.8595 442.049C54.3582 438.019 73.9659 433.546 77.3957 433.546C80.8254 433.546 83.3082 436.823 87.669 435.931C92.0298 435.04 93.8999 432.053 96.701 431.756C99.5021 431.459 105.423 431.756 108.534 431.162C111.645 430.567 98.2607 426.392 87.3587 425.501C76.4567 424.609 71.7855 423.413 63.3822 423.116C54.9789 422.819 45.6366 421.92 45.6366 421.92C45.6366 421.92 35.6736 422.217 35.6736 411.787C35.6736 401.357 40.3448 393.898 37.5437 385.555C34.7426 377.212 34.7426 350.676 35.6736 340.535C36.6047 330.395 41.5862 319.37 41.9045 316.383C42.2228 313.397 39.7241 307.439 38.1644 303.561C36.6047 299.683 35.6736 297.001 35.6736 297.001V297.016Z" fill="#ACD1FF"/>
<path d="M224.873 202.162C229.544 201.248 234.295 200.882 239.093 201.256C257.133 202.68 273.542 214.444 291.598 213.194C318.161 211.366 331.179 184.814 354.933 177.043C362.119 174.689 369.83 174.391 377.413 174.11C389.254 174.11 401.175 173.226 413.016 172.791C424.586 172.365 437.247 173.241 448.627 171.275C473.327 167.016 481.118 149.15 497.423 134.293C509.964 122.873 528.267 119.642 545.535 118.537C568.27 117.082 591.872 118.568 612.387 128.061C632.902 137.554 649.812 156.304 651.603 178.048C652.502 188.959 649.605 199.968 644.433 209.728C638.154 221.567 628.398 231.807 616.263 238.23C603.26 245.117 588.379 247.289 573.761 248.401C560.917 249.376 544.851 247.098 534.904 256.63C527.805 263.426 522.744 272.728 521.407 282.29C520.261 290.48 522.195 299.257 527.718 305.611C534.991 313.977 547.055 316.925 558.395 317.695C569.734 318.472 581.321 317.581 592.318 320.346C607.183 324.087 614.17 336.003 619.852 348.574C626.393 363.042 634.43 378.029 649.247 386.173C664.629 394.63 683.489 393.571 701.227 393.617C718.964 393.663 738.58 395.887 750.437 408.519C756.27 414.736 759.493 422.828 761.379 430.995C763.679 440.976 763.981 452.016 758.546 460.815C754.058 468.091 746.203 472.922 738.071 476.206C729.938 479.489 721.296 481.501 713.131 484.724C699.206 490.209 686.99 499.245 677.37 510.285C672.866 515.45 668.362 521.279 665.282 527.336C661.765 534.239 659.831 541.347 653.298 546.436C644.059 553.636 630.825 553.095 619.008 551.64C607.191 550.185 594.459 548.318 583.947 553.69C576.108 557.69 570.864 565.095 563.893 570.367C548.105 582.321 525.323 581.857 506.28 575.624C487.237 569.392 470.423 558.246 452.247 549.956C446.55 547.358 440.47 544.989 434.16 545.195C427.411 545.415 420.99 548.669 416.358 553.37C411.162 558.642 408.034 566.162 409.626 573.255C411.074 579.716 416.191 584.988 422.143 588.34C435.998 596.15 452.327 595.472 467.056 600.553C488.192 607.845 499.102 636.606 493.301 656.384C488.988 671.112 474.314 681.253 458.972 685.504C443.629 689.763 427.372 689.26 411.401 689.702C398.255 690.068 384.703 691.218 373.084 697.107C354.989 706.288 345.336 724.391 331.068 737.647C314.707 752.847 289.624 761.677 267.208 763.993C247.68 766.012 227.077 762.256 211.186 751.209C192.398 738.15 181.265 716.01 160.631 705.8C150.477 700.772 138.89 699.126 128.251 695.126C105.293 686.487 88.2397 665.565 95.9586 641.497C100.63 626.945 111.221 617.422 119.641 605.041C128.736 591.654 135.405 576.942 142.702 562.627C153.286 541.865 166.209 520.86 186.947 509.035C205.074 498.704 227.165 497.028 247.544 500.944C266.261 504.54 284.635 516.586 304.267 514.285C324.169 511.953 344.922 501.081 360.448 489.424C368.835 483.124 376.618 475.627 380.859 466.263C385.1 456.899 385.284 445.38 379.228 436.976C372.201 427.224 358.299 423.727 346.1 425.715C333.901 427.704 323.063 434.233 313.028 441.159C298.664 451.079 285.884 462.271 267.112 460.541C235.345 457.616 184.4 452.252 160.129 422.851C159.349 421.906 158.514 421.007 157.575 420.207C152.88 416.215 153.548 411.971 152.339 406.714C150.867 400.322 146.904 394.722 142.225 390.051C135.858 383.705 128.179 378.577 122.434 371.705C115.527 363.454 111.818 353.107 109.932 342.692C105.142 316.179 112.829 288.941 128.227 266.74C145.201 242.276 170.673 228.981 196.201 213.933C205.066 208.707 214.775 204.135 224.873 202.155V202.162Z" fill="#E3EFFF"/>
<path d="M713.346 221.049C713.712 220.859 714.078 220.676 714.444 220.493C732.579 211.426 753.587 213.369 770.84 203.983C801.262 187.427 805.384 141.318 842.841 133.729C855.653 131.131 869.666 134.788 881.69 129.821C887.905 127.253 892.894 122.628 898.218 118.628C917.659 104.038 942.622 97.3947 967.291 96.2214C988.426 95.2081 1010.14 98.1109 1028.94 107.406C1047.63 116.655 1056.89 132.792 1072.08 144.944C1088.65 158.209 1112.42 164.639 1133.75 163.968C1159.07 163.176 1183.89 152.319 1201.09 134.521C1209.7 125.623 1216.55 115.01 1226.68 107.733C1244.94 94.6214 1274.59 96.7014 1287.56 114.682C1295.31 125.417 1296.27 139.337 1295.31 152.357C1294.34 165.378 1291.71 178.421 1293.29 191.389C1295.4 208.653 1304.75 224.196 1313.23 239.571C1321.5 254.557 1329.25 270.32 1330.73 287.211C1332.21 304.102 1326.28 322.517 1311.82 332.3C1303.87 337.679 1294.18 340.01 1285.23 343.698C1251.72 357.511 1223.35 394.957 1234.24 430.408C1239.74 448.328 1252.13 463.535 1265.25 477.356C1278.37 491.176 1292.62 504.235 1303.11 519.983C1313.6 535.731 1320.11 554.984 1315.76 573.193C1312.5 586.816 1303.08 598.983 1290.41 605.924C1277.74 612.865 1262.02 614.488 1248.1 610.282C1225.61 603.486 1210.3 583.365 1189.08 573.529C1166.46 563.045 1139.22 565.163 1116.53 554.824C1104.64 549.407 1093.94 540.577 1080.85 539.236C1061.18 537.225 1044.32 552.851 1034.42 569.239C1029.28 577.75 1025.02 586.938 1017.94 594.054C1005.15 606.899 982.299 601.429 966.248 600.606C956.166 600.088 944.993 601.779 938.412 609.116C935.062 612.85 933.295 617.634 931.959 622.388C928.791 633.672 927.646 645.474 923.428 656.43C913.258 682.898 884.961 681.511 862.305 692.01C832.4 705.869 820.758 739.811 786.763 750.195C761.895 757.791 735.102 751.529 709.231 748.222C688.748 745.609 667.804 744.847 648.164 738.691C628.533 732.535 609.769 719.704 603.363 700.901C598.516 686.669 601.485 670.646 609.259 657.656C617.034 644.666 629.241 634.51 642.689 626.868C658.899 617.657 677.974 611.097 688.597 596.195C698.258 582.648 698.871 564.851 707.194 550.512C716.903 533.789 735.516 524.097 751.63 512.783C765.309 503.184 777.779 491.854 792.691 484.114C807.604 476.373 826.05 472.601 841.52 479.276C853.663 484.51 863.165 495.74 876.39 497.241C888.112 498.574 899.022 491.771 908.3 484.784C933.598 465.722 955.736 442.827 973.625 417.205C983.827 402.592 992.906 386.836 1006.83 375.385C1025.8 359.789 1052.94 356.36 1075.91 348.97C1104.68 339.713 1123.83 323.584 1132.96 294.922C1136.4 284.133 1136.53 271.867 1130.62 262.107C1126.19 254.77 1118.78 249.483 1110.98 245.475C1099.93 239.807 1086.89 236.287 1074.81 239.51C1047.78 246.732 1038.13 282.838 1011.08 290.015C997.673 293.573 982.991 288.933 969.606 292.567C956.643 296.087 947.213 306.723 940.107 317.679C933.001 328.635 927.256 340.627 917.794 349.816C901.003 366.112 874.894 370.821 851.204 367.697C827.514 364.573 805.487 354.677 783.699 345.237C761.919 335.797 739.439 326.57 715.59 324.932C701.282 323.95 685.589 325.39 673.971 317.336C664.517 310.784 660.101 298.96 660.714 287.806C661.326 276.652 666.364 266.099 672.746 256.743C682.892 241.879 697.001 229.437 713.346 221.034V221.049Z" fill="#E3EFFF"/>
<path d="M876.351 736.116C880.059 729.16 886.879 723.948 893.834 718.958C903.471 712.055 913.211 705.091 924.201 700.406C935.19 695.72 947.723 693.457 959.366 696.353C974.963 700.231 991.92 716.946 1008.93 710.646C1013.25 709.038 1016.78 705.968 1020.58 703.415C1032.87 695.195 1046.61 695.583 1060.87 693.656C1076.79 691.499 1092.57 688.399 1108.52 686.471C1131.45 683.698 1152.58 687.759 1172.93 698.341C1182.94 703.545 1192.04 711.149 1196.42 721.213C1201.66 733.22 1198.61 745.167 1194.96 757.075C1192.16 766.218 1188.73 775.627 1181.61 782.286C1175.39 788.092 1166.94 791.215 1158.47 793.059C1135.4 798.095 1111.42 794.59 1089.04 788.191C1067.46 782.027 1045.72 769.966 1022.56 771.94C1003.86 773.532 985.753 778.781 967.069 780.686C946.379 782.804 925.458 782.804 904.776 780.671C898.768 780.054 892.553 779.177 887.484 776.023C878.038 770.149 873.319 757.624 873.479 747.216C873.542 743.026 874.593 739.376 876.335 736.116H876.351Z" fill="#E3EFFF"/>
<path d="M173.772 375.569V370.636C185.216 357.482 194.62 346.499 201.987 337.686C209.353 328.873 215.075 321.572 219.152 315.785C223.362 309.865 226.387 304.867 228.228 300.789C230.202 296.712 231.385 293.028 231.78 289.74C232.306 286.32 232.569 282.637 232.569 278.691C232.569 270.667 230.465 264.353 226.255 259.749C222.046 255.014 216.916 252.646 210.865 252.646C204.025 252.646 198.764 254.488 195.081 258.171C191.398 261.722 189.556 267.115 189.556 274.35V283.229L188.57 284.61H179.494C176.863 284.61 174.89 284.15 173.574 283.229C172.259 282.308 171.601 280.006 171.601 276.323C171.601 272.903 172.588 269.417 174.561 265.866C176.666 262.183 179.822 258.894 184.032 256.001C187.452 253.633 190.674 251.528 193.7 249.687C196.857 247.714 200.211 246.201 203.762 245.149C207.445 243.965 211.852 243.373 216.982 243.373C223.69 243.373 229.61 244.951 234.74 248.108C240.001 251.265 244.145 255.474 247.17 260.736C250.195 265.997 251.708 271.851 251.708 278.296C251.708 282.637 251.182 286.649 250.13 290.332C249.077 293.883 247.301 297.567 244.802 301.381C242.435 305.196 239.08 309.668 234.74 314.798C230.53 319.796 225.137 325.913 218.56 333.148C212.115 340.251 204.354 348.998 195.278 359.389H241.645L251.511 340.251H254.668L252.695 375.569H173.772Z" fill="#BA8485"/>
<g clip-path="url(#clip0_516_2295)">
<path d="M173.772 376.487V371.555C185.216 358.401 194.62 347.417 201.987 338.604C209.353 329.791 215.075 322.491 219.152 316.703C223.362 310.784 226.387 305.786 228.228 301.708C230.202 297.63 231.385 293.947 231.78 290.659C232.306 287.239 232.569 283.556 232.569 279.61C232.569 271.586 230.465 265.272 226.255 260.668C222.046 255.933 216.916 253.565 210.865 253.565C204.025 253.565 198.764 255.407 195.081 259.09C191.398 262.641 189.556 268.034 189.556 275.269V284.148L188.57 285.529H179.494C176.863 285.529 174.89 285.068 173.574 284.148C172.259 283.227 171.601 280.925 171.601 277.242C171.601 273.822 172.588 270.336 174.561 266.785C176.666 263.101 179.822 259.813 184.032 256.919C187.452 254.552 190.674 252.447 193.7 250.605C196.857 248.632 200.211 247.12 203.762 246.067C207.445 244.883 211.852 244.292 216.982 244.292C223.69 244.292 229.61 245.87 234.74 249.027C240.001 252.184 244.145 256.393 247.17 261.655C250.195 266.916 251.708 272.77 251.708 279.215C251.708 283.556 251.182 287.568 250.13 291.251C249.077 294.802 247.301 298.485 244.802 302.3C242.435 306.114 239.08 310.587 234.74 315.717C230.53 320.715 225.137 326.832 218.56 334.066C212.115 341.169 204.354 349.917 195.278 360.308H241.645L251.511 341.169H254.668L252.695 376.487H173.772Z" fill="#450809"/>
</g>
<path d="M214.016 390.424C226.064 408.904 258.974 441.607 294.228 424.579C338.295 403.294 344.237 368.149 396.227 375.574C437.818 381.514 465.051 397.189 473.468 404.284" stroke="#450809" stroke-width="4.87847" stroke-linecap="round" stroke-dasharray="14.64 14.64"/>
<path d="M344.928 310.985C345.196 315.753 345.04 349.452 344.928 365.706H263.639" stroke="#450809" stroke-width="1.95139"/>
<path d="M549.758 450.958H480.789L472.703 440.572L494.583 409.931C502.51 408.027 519.222 404.219 522.646 404.219C526.071 404.219 542.148 435.378 549.758 450.958Z" fill="#450809"/>
<path d="M513.011 518.147C496.462 518.147 483.411 513.115 473.857 503.049C464.303 492.983 459.526 479.676 459.526 463.127C459.526 450.331 462 439.071 466.947 429.346C472.066 419.451 478.719 411.774 486.908 406.314C495.268 400.684 504.31 397.869 514.035 397.869C527.513 397.869 538.091 402.561 545.768 411.944C553.616 421.328 557.54 434.806 557.54 452.378L556.26 453.658H479.743C479.914 461.506 481.449 468.927 484.349 475.922C487.25 482.746 491.856 488.291 498.169 492.556C504.652 496.822 513.267 498.954 524.016 498.954C533.399 498.954 544.403 495.542 557.028 488.718H557.796V491.277C553.872 498.613 547.986 504.925 540.138 510.214C532.461 515.503 523.418 518.147 513.011 518.147ZM509.94 409.129C501.751 409.129 495.012 412.03 489.724 417.83C484.605 423.46 481.449 431.479 480.255 441.886H538.091C536.214 430.285 532.887 421.925 528.11 416.807C523.504 411.689 517.447 409.129 509.94 409.129Z" fill="#BA8485"/>
<path d="M568.807 418.74H664.592V435.57" stroke="#450809" stroke-width="1.95139"/>
<path d="M827.858 336.757C820.249 336.757 813.935 334.571 808.916 330.2C803.897 325.667 801.388 319.434 801.388 311.502C801.388 303.569 804.302 296.688 810.13 290.86C816.12 285.032 826.077 280.499 840 277.261L863.069 271.919V254.192C863.069 248.687 860.803 243.992 856.27 240.107C851.899 236.06 846.88 234.036 841.214 234.036C835.062 234.036 830.772 235.736 828.343 239.136C825.915 242.373 824.701 246.744 824.701 252.249V259.048L823.486 260.263H810.859C808.43 260.263 806.731 259.858 805.759 259.048C804.95 258.239 804.545 256.377 804.545 253.463C804.545 249.901 805.597 246.259 807.702 242.535C809.807 238.812 813.044 235.574 817.415 232.822C821.948 229.908 826.643 227.479 831.5 225.537C836.519 223.594 841.861 222.622 847.528 222.622C853.194 222.622 858.698 223.432 864.041 225.051C869.545 226.67 873.997 229.422 877.397 233.307C880.797 237.031 882.496 242.292 882.496 249.092V318.058C883.63 319.192 885.249 320.163 887.353 320.972C889.458 321.782 892.372 322.187 896.095 322.187H905.323L906.052 322.672V323.401C904.109 326.962 901.195 330.119 897.31 332.872C893.586 335.462 888.972 336.757 883.468 336.757C878.449 336.757 874.321 335.462 871.083 332.872C868.007 330.119 865.821 326.558 864.526 322.187H863.069C858.86 326.396 853.599 329.877 847.285 332.629C841.133 335.381 834.657 336.757 827.858 336.757ZM820.33 306.645C820.33 316.682 826.401 321.701 838.543 321.701C842.428 321.701 846.232 321.296 849.956 320.487C853.841 319.677 858.213 318.22 863.069 316.116V280.175C850.118 282.604 840.647 285.194 834.657 287.946C828.667 290.537 824.782 293.37 823.001 296.446C821.22 299.522 820.33 302.921 820.33 306.645Z" fill="#BA8485"/>
<g clip-path="url(#clip1_516_2295)">
<path d="M827.883 336.624C820.274 336.624 813.96 334.438 808.941 330.067C803.923 325.534 801.413 319.301 801.413 311.368C801.413 303.436 804.328 296.555 810.156 290.727C816.146 284.899 826.102 280.366 840.025 277.128L863.095 271.786V254.058C863.095 248.554 860.828 243.859 856.295 239.974C851.924 235.926 846.905 233.903 841.239 233.903C835.087 233.903 830.797 235.602 828.369 239.002C825.94 242.24 824.726 246.611 824.726 252.116V258.915L823.512 260.129H810.884C808.456 260.129 806.756 259.725 805.785 258.915C804.975 258.106 804.57 256.244 804.57 253.33C804.57 249.768 805.623 246.126 807.727 242.402C809.832 238.678 813.07 235.441 817.441 232.688C821.974 229.774 826.669 227.346 831.526 225.403C836.544 223.461 841.887 222.489 847.553 222.489C853.219 222.489 858.724 223.299 864.066 224.918C869.57 226.536 874.022 229.289 877.422 233.174C880.822 236.898 882.522 242.159 882.522 248.959V317.925C883.655 319.058 885.274 320.03 887.379 320.839C889.483 321.649 892.397 322.053 896.121 322.053H905.349L906.077 322.539V323.268C904.135 326.829 901.221 329.986 897.335 332.738C893.612 335.329 888.998 336.624 883.493 336.624C878.475 336.624 874.346 335.329 871.108 332.738C868.032 329.986 865.847 326.424 864.552 322.053H863.095C858.885 326.263 853.624 329.743 847.31 332.495C841.158 335.248 834.682 336.624 827.883 336.624ZM820.355 306.512C820.355 316.549 826.426 321.568 838.568 321.568C842.453 321.568 846.258 321.163 849.981 320.353C853.867 319.544 858.238 318.087 863.095 315.982V280.042C850.143 282.471 840.673 285.061 834.682 287.813C828.692 290.403 824.807 293.236 823.026 296.312C821.245 299.388 820.355 302.788 820.355 306.512Z" fill="#450809"/>
</g>
<path d="M719.057 277.068V252.813H795.803" stroke="#450809" stroke-width="1.95139"/>
<path d="M193.438 570.112L175.891 561.2V556.743H227.696C244.593 556.743 258.241 558.786 268.639 562.871C279.223 566.956 284.515 574.383 284.515 585.153C284.515 591.837 282.286 597.872 277.83 603.257C273.559 608.641 265.668 612.355 254.156 614.398C264.182 615.512 271.981 617.647 277.552 620.804C283.308 623.96 287.393 627.674 289.807 631.944C292.22 636.029 293.427 640.207 293.427 644.478C293.427 656.919 287.857 666.296 276.716 672.609C265.575 678.922 248.492 682.079 225.468 682.079H175.891V677.622L193.438 668.71V570.112ZM236.052 568.72H215.719V610.22H235.216C244.314 610.22 250.813 608.27 254.713 604.371C258.798 600.471 260.84 595.644 260.84 589.887C260.84 584.131 258.983 579.211 255.27 575.126C251.556 570.855 245.15 568.72 236.052 568.72ZM234.937 620.804H215.719V670.102H233.823C245.893 670.102 254.62 668.152 260.005 664.253C265.575 660.168 268.36 654.412 268.36 646.985C268.36 638.815 265.668 632.409 260.283 627.767C255.084 623.125 246.635 620.804 234.937 620.804Z" fill="#BA8485"/>
<g clip-path="url(#clip2_516_2295)">
<path d="M193.996 570.262L176.449 561.349V556.893H228.254C245.152 556.893 258.799 558.935 269.197 563.02C279.781 567.105 285.073 574.533 285.073 585.302C285.073 591.987 282.845 598.021 278.389 603.406C274.118 608.791 266.226 612.505 254.714 614.547C264.741 615.661 272.54 617.797 278.11 620.953C283.866 624.11 287.951 627.823 290.365 632.094C292.779 636.179 293.986 640.357 293.986 644.628C293.986 657.068 288.415 666.445 277.275 672.758C266.134 679.072 249.051 682.228 226.026 682.228H176.449V677.772L193.996 668.859V570.262ZM236.61 568.869H216.278V610.369H235.775C244.873 610.369 251.372 608.42 255.271 604.52C259.356 600.621 261.399 595.793 261.399 590.037C261.399 584.281 259.542 579.36 255.828 575.275C252.115 571.005 245.709 568.869 236.61 568.869ZM235.496 620.953H216.278V670.252H234.382C246.451 670.252 255.178 668.302 260.563 664.403C266.134 660.318 268.919 654.562 268.919 647.134C268.919 638.964 266.226 632.558 260.842 627.916C255.643 623.274 247.194 620.953 235.496 620.953Z" fill="#450809"/>
</g>
<path d="M297.199 574.069H377.412V622.579" stroke="#450809" stroke-width="1.95139"/>
<path d="M1186.85 479.263C1186.85 493.506 1186.12 505.575 1184.67 515.472C1183.35 525.37 1181.11 533.154 1177.98 538.827C1176.04 542.327 1173.75 544.983 1171.1 546.793C1168.44 548.604 1165.3 549.509 1161.68 549.509C1159.15 549.509 1157.52 549.147 1156.79 548.423C1156.07 547.698 1155.71 546.31 1155.71 544.259V535.206L1156.43 534.482H1159.15C1164.46 534.482 1168.44 532.31 1171.1 527.965C1173.75 523.619 1175.5 517.343 1176.35 509.136C1177.31 500.928 1177.79 490.971 1177.79 479.263V474.918L1165.3 469.125V466.228H1239.35V469.125L1227.94 474.918V539.008L1239.35 544.802V547.698H1202.05V544.802L1213.46 539.008V474.737H1186.85V479.263Z" fill="#BA8485"/>
<g clip-path="url(#clip3_516_2295)">
<path d="M1186.85 479.263C1186.85 493.506 1186.12 505.575 1184.67 515.472C1183.35 525.37 1181.11 533.154 1177.98 538.827C1176.04 542.327 1173.75 544.983 1171.1 546.793C1168.44 548.604 1165.3 549.509 1161.68 549.509C1159.15 549.509 1157.52 549.147 1156.79 548.423C1156.07 547.698 1155.71 546.31 1155.71 544.259V535.206L1156.43 534.482H1159.15C1164.46 534.482 1168.44 532.31 1171.1 527.965C1173.75 523.619 1175.5 517.343 1176.35 509.136C1177.31 500.928 1177.79 490.971 1177.79 479.263V474.918L1165.3 469.125V466.228H1239.35V469.125L1227.94 474.918V539.008L1239.35 544.802V547.698H1202.05V544.802L1213.46 539.008V474.737H1186.85V479.263Z" fill="#450809"/>
</g>
<path d="M725.67 727.642V724.832L736.735 719.212V689.005C728.071 688.654 720.46 686.663 713.903 683.034C707.347 679.404 702.254 674.545 698.624 668.457C694.994 662.251 693.18 655.343 693.18 647.733C693.18 640.122 694.994 633.273 698.624 627.185C702.254 620.979 707.347 616.062 713.903 612.432C720.46 608.803 728.071 606.812 736.735 606.461V575.551L726.197 566.419V565.189L749.731 555.53H750.785V606.461C759.449 606.812 767.001 608.861 773.44 612.608C779.88 616.237 784.914 621.096 788.544 627.185C792.174 633.273 793.988 640.122 793.988 647.733C793.988 655.343 792.174 662.193 788.544 668.281C784.914 674.369 779.88 679.287 773.44 683.034C767.001 686.663 759.449 688.654 750.785 689.005V719.212L761.849 724.832V727.642H725.67ZM708.986 644.045C708.986 649.782 709.923 655.343 711.796 660.729C713.786 666.115 716.831 670.681 720.928 674.428C725.026 678.175 730.295 680.399 736.735 681.102V613.837C730.295 613.837 725.026 615.301 720.928 618.228C716.831 621.155 713.786 624.96 711.796 629.644C709.923 634.21 708.986 639.01 708.986 644.045ZM778.182 651.245C778.182 645.508 777.246 639.947 775.372 634.561C773.499 629.175 770.513 624.609 766.415 620.862C762.434 617.116 757.224 614.891 750.785 614.189V681.453C757.107 681.453 762.259 679.989 766.24 677.062C770.338 674.135 773.323 670.389 775.197 665.822C777.187 661.139 778.182 656.28 778.182 651.245Z" fill="#BA8485"/>
<g clip-path="url(#clip4_516_2295)">
<path d="M726.371 728.224V725.414L737.436 719.794V689.586C728.772 689.235 721.161 687.245 714.605 683.615C708.048 679.985 702.955 675.127 699.325 669.038C695.696 662.833 693.881 655.925 693.881 648.314C693.881 640.704 695.696 633.855 699.325 627.766C702.955 621.561 708.048 616.643 714.605 613.014C721.161 609.384 728.772 607.394 737.436 607.043V576.133L726.898 567V565.771L750.432 556.111H751.486V607.043C760.15 607.394 767.702 609.443 774.141 613.189C780.581 616.819 785.616 621.678 789.245 627.766C792.875 633.855 794.69 640.704 794.69 648.314C794.69 655.925 792.875 662.774 789.245 668.863C785.616 674.951 780.581 679.868 774.141 683.615C767.702 687.245 760.15 689.235 751.486 689.586V719.794L762.55 725.414V728.224H726.371ZM709.687 644.626C709.687 650.363 710.624 655.925 712.497 661.311C714.488 666.697 717.532 671.263 721.63 675.009C725.728 678.756 730.996 680.981 737.436 681.683V614.419C730.996 614.419 725.728 615.882 721.63 618.809C717.532 621.737 714.488 625.542 712.497 630.225C710.624 634.791 709.687 639.592 709.687 644.626ZM778.883 651.827C778.883 646.09 777.947 640.528 776.073 635.143C774.2 629.757 771.214 625.19 767.116 621.444C763.136 617.697 757.925 615.473 751.486 614.77V682.034C757.808 682.034 762.96 680.571 766.941 677.644C771.039 674.717 774.024 670.97 775.898 666.404C777.888 661.72 778.883 656.862 778.883 651.827Z" fill="#450809"/>
</g>
<path d="M805.707 642.873H857.201V585.948" stroke="#450809" stroke-width="1.95139"/>
<path d="M1191.65 190.885L1179.16 184.537V181.363H1220.02V184.537L1207.53 190.885V242.07L1251.17 197.829V190.885L1238.67 184.537V181.363H1279.54V184.537L1267.04 190.885V261.116L1279.54 267.464V270.639H1238.67V267.464L1251.17 261.116V209.931L1207.53 254.172V261.116L1220.02 267.464V270.639H1179.16V267.464L1191.65 261.116V190.885Z" fill="#BA8485"/>
<g clip-path="url(#clip5_516_2295)">
<path d="M1191.65 191.554L1179.16 185.206V182.032H1220.02V185.206L1207.53 191.554V242.739L1251.17 198.498V191.554L1238.67 185.206V182.032H1279.54V185.206L1267.04 191.554V261.785L1279.54 268.133V271.308H1238.67V268.133L1251.17 261.785V210.6L1207.53 254.841V261.785L1220.02 268.133V271.308H1179.16V268.133L1191.65 261.785V191.554Z" fill="#450809"/>
</g>
<path d="M1168.64 190.938H1102.29" stroke="#450809" stroke-width="1.95139"/>
<path d="M1105.96 697.446L1096.01 692.393V689.866H1128.54V692.393L1118.59 697.446V738.192L1153.34 702.974V697.446L1143.39 692.393V689.866H1175.92V692.393L1165.97 697.446V753.353L1175.92 758.407V760.933H1143.39V758.407L1153.34 753.353V712.607L1118.59 747.825V753.353L1128.54 758.407V760.933H1096.01V758.407L1105.96 753.353V697.446ZM1109.43 649.278H1123.02C1123.02 655.28 1124.02 660.175 1126.02 663.966C1128.12 667.651 1131.44 669.493 1135.97 669.493C1140.49 669.493 1143.76 667.651 1145.76 663.966C1147.86 660.175 1148.92 655.28 1148.92 649.278H1162.5C1162.5 656.964 1160.23 663.281 1155.71 668.23C1151.18 673.178 1144.6 675.652 1135.97 675.652C1127.33 675.652 1120.75 673.178 1116.22 668.23C1111.7 663.281 1109.43 656.964 1109.43 649.278Z" fill="#BA8485"/>
<g clip-path="url(#clip6_516_2295)">
<path d="M1106.14 697.461L1096.19 692.407L1096.19 689.88L1128.73 689.881L1128.73 692.408L1118.78 697.461L1118.78 738.206L1153.52 702.99L1153.52 697.463L1143.57 692.409L1143.57 689.882L1176.11 689.884L1176.11 692.41L1166.16 697.463L1166.16 753.369L1176.11 758.423L1176.11 760.95L1143.57 760.948L1143.57 758.421L1153.52 753.368L1153.52 712.624L1118.78 747.839L1118.78 753.367L1128.73 758.421L1128.73 760.947L1096.2 760.946L1096.2 758.419L1106.15 753.366L1106.14 697.461ZM1109.61 649.294L1123.2 649.294C1123.2 655.296 1124.2 660.191 1126.2 663.982C1128.3 667.667 1131.62 669.509 1136.15 669.509C1140.68 669.51 1143.94 667.667 1145.94 663.982C1148.04 660.192 1149.1 655.297 1149.1 649.296L1162.68 649.296C1162.68 656.982 1160.42 663.299 1155.89 668.247C1151.36 673.195 1144.78 675.669 1136.15 675.668C1127.51 675.668 1120.93 673.194 1116.41 668.245C1111.88 663.296 1109.61 656.979 1109.61 649.294Z" fill="#450809"/>
</g>
<path d="M1040.9 668.614H1095.86" stroke="#450809" stroke-width="1.95139"/>
<path d="M450.691 493.335C427.582 491.811 390.779 488.928 368.498 522.588C355.656 541.987 344.036 545.889 330.462 551.372C319.603 555.759 297.819 561.731 288.285 564.168" stroke="#450809" stroke-width="4.87847" stroke-linecap="round" stroke-dasharray="14.64 14.64"/>
<path d="M273.021 697.705C276.455 711.61 327.469 747.303 378.974 742.246C430.478 737.189 481.492 696.796 523.677 691.739C565.862 686.683 561.938 742.246 610.009 742.246C648.465 742.246 697.648 711.921 713.508 688.956" stroke="#450809" stroke-width="4.87847" stroke-linecap="round" stroke-dasharray="14.64 14.64"/>
<path d="M892.852 622.578C904.075 602.118 932.463 561.198 956.229 561.198C985.938 561.198 1025.05 515.163 1047.33 513.183C1069.62 511.203 1123.59 545.853 1138.44 529.518C1144.88 520.608 1097.34 506.253 1088.43 493.878" stroke="#450809" stroke-width="4.87847" stroke-linecap="round" stroke-dasharray="14.64 14.64"/>
<path d="M1095.86 398.344C1105.1 385.969 1128.64 358.051 1148.84 345.379C1174.09 329.539 1169.63 258.259 1155.77 246.874C1141.91 235.489 1087.94 201.829 1060.21 215.689C1032.48 229.549 1015.65 252.814 973.064 260.734C938.998 267.07 910.676 273.934 900.773 276.574" stroke="#450809" stroke-width="4.87847" stroke-linecap="round" stroke-dasharray="14.64 14.64"/>
<path d="M708.164 462.693C753.717 449.328 789.367 431.013 799.765 418.638C810.163 406.263 827.988 388.938 834.92 375.573C840.465 364.881 842.512 351.648 842.842 346.368" stroke="#450809" stroke-width="4.87847" stroke-linecap="round" stroke-dasharray="14.64 14.64"/>
<path d="M1149.83 477.048C1147.85 477.444 1104.77 477.213 1083.48 477.048H1034.96V461.208" stroke="#450809" stroke-width="1.95139"/>
<path d="M1315.09 812.648H1250.9H1249.73C1250.38 809.148 1251.75 801.914 1252.06 800.98C1252.38 800.047 1254.53 800.073 1255.57 800.203L1266.07 722.028C1264.51 722.339 1263.09 720.861 1262.57 720.083C1262.31 718.268 1261.95 714.327 1262.57 713.082C1263.19 711.838 1266.46 712.045 1268.02 712.305L1268.4 695.192C1267.63 695.321 1265.99 695.347 1265.68 694.414C1265.37 693.48 1266.59 692.469 1267.24 692.08C1268.17 688.347 1272.29 684.82 1274.24 683.524C1275.67 682.617 1279.84 681.035 1285.13 681.968C1290.42 682.902 1294.6 689.358 1296.03 692.469C1296.54 692.729 1297.5 693.481 1297.19 694.414C1296.88 695.347 1295.25 695.322 1294.47 695.192L1295.25 712.305H1299.53C1302.64 712.305 1301.47 717.361 1301.47 719.305C1301.47 720.861 1299.4 722.028 1298.36 722.417L1309.25 800.592C1309.64 800.462 1310.73 800.281 1311.98 800.592C1313.22 800.903 1314.57 808.759 1315.09 812.648Z" fill="white"/>
<path d="M1292.53 712.304H1270.74L1271.52 695.191H1291.36L1292.53 712.304Z" fill="#ACD1FF"/>
<ellipse cx="1281.63" cy="678.857" rx="4.66845" ry="4.66714" fill="white"/>
<path d="M121.372 143.964C113.196 139.19 108.977 135.836 102.272 128.187C95.8666 142.321 96.5513 149.983 105.533 161.597C108.124 159.991 108.414 158.324 109.26 155.565C116.817 164.495 121.496 169.16 131.621 175.982C142.532 180.07 148.385 183 157.709 191.295C166.422 183.18 172.516 179.642 185.195 175.054C194.242 169.218 198.903 165.103 206.158 155.565C207.435 158.78 208.428 159.919 210.351 161.597C217.846 150.405 217.752 142.598 213.612 127.259C207.667 135.073 203.85 138.922 195.444 143.964C195.86 146.119 196.449 147.281 200.102 149.068C189.297 159.955 180.151 166.187 171.219 163.453C162.286 160.719 164.55 135.082 163.299 104.985H189.853C192.499 100.996 192.275 98.761 189.853 94.7763H163.299V82.7114H151.187V94.7763H125.565C122.176 98.9833 121.705 101.241 125.565 104.985H151.187L149.789 135.611C149.445 154.188 148.494 162.348 142.336 163.453C131.803 162.391 126.215 159.703 117.179 149.068C119.693 147.086 120.539 145.967 121.372 143.964Z" fill="white"/>
<ellipse cx="157.234" cy="66.1546" rx="17.9213" ry="17.6448" fill="white"/>
<ellipse cx="156.655" cy="66.5401" rx="11.2722" ry="11.2691" fill="#ACD1FF"/>
<path d="M521.875 806.85V732.6L555.544 806.85H521.875Z" fill="white"/>
<path d="M515.934 806.85V718.74L473.352 806.85H515.934Z" fill="white"/>
<path d="M484.629 821.7L475.332 813.78H561.486L552.499 821.7H484.629Z" fill="white"/>
<path d="M376.801 822.04H83.1836C100.678 811.975 140.917 790.558 161.911 785.409C188.153 778.974 222.318 797.784 235.191 801.744C248.065 805.704 274.307 796.795 301.54 791.845C323.326 787.885 360.791 810.325 376.801 822.04Z" fill="white"/>
<path d="M502.486 217.885H447.605C454.525 208.759 469.672 189.53 474.904 185.618C480.136 181.707 490.164 202.241 494.524 212.997C495.851 212.345 500.098 209.183 506.467 201.752C514.429 192.463 540.692 192.06 555.092 194.907C566.854 197.233 577.818 207.13 584.264 217.885H569.41H502.486Z" fill="white"/>
<path d="M502.486 217.885H447.605C454.525 208.759 469.672 189.53 474.904 185.618C480.136 181.707 490.164 202.241 494.524 212.997C495.851 212.345 500.098 209.183 506.467 201.752C514.429 192.463 540.692 192.06 555.092 194.907C566.854 197.233 577.818 207.13 584.264 217.885H569.41H502.486Z" fill="white"/>
<path d="M964.035 197.755H850.648C860.881 186.535 879.664 169.43 888.774 167.45C897.885 165.47 955.288 184.885 964.035 197.755Z" fill="white"/>
<path d="M964.035 197.755H850.648C860.881 186.535 879.664 169.43 888.774 167.45C897.885 165.47 955.288 184.885 964.035 197.755Z" fill="white"/>
<path d="M927.89 758.34H990.277C984.647 747.03 974.313 729.787 969.3 727.791C964.287 725.795 932.703 745.366 927.89 758.34Z" fill="white"/>
<path d="M927.89 758.34H990.277C984.647 747.03 974.313 729.787 969.3 727.791C964.287 725.795 932.703 745.366 927.89 758.34Z" fill="white"/>
<path d="M710.523 79.2229C714.485 79.0579 723.397 79.7179 727.358 83.6779C732.31 88.6279 737.756 89.617 744.193 86.6474C750.63 83.6779 755.581 79.2229 762.018 79.2229C768.455 79.2229 773.406 90.6074 783.309 88.6274C791.231 87.0434 804.435 84.6677 810.046 83.6779" stroke="#450809" stroke-width="1.95139" stroke-linecap="round"/>
<path d="M659.031 139.612C661.837 141.922 669.924 145.552 679.827 141.592C692.206 136.642 694.681 131.692 704.089 136.642C713.497 141.592 718.448 148.027 725.38 146.047C732.312 144.067 742.215 131.692 748.651 132.682C755.088 133.672 753.603 141.097 762.515 143.572C769.645 145.552 778.03 143.077 781.331 141.592" stroke="#450809" stroke-width="1.95139" stroke-linecap="round"/>
<path d="M384.723 109.762C381.917 107.452 373.83 103.822 363.927 107.782C351.548 112.732 349.073 117.682 339.665 112.732C330.257 107.782 325.306 101.347 318.374 103.327C311.442 105.307 301.539 117.682 295.103 116.692C288.666 115.702 290.151 108.278 281.239 105.802C274.109 103.822 265.724 106.297 262.423 107.782" stroke="#450809" stroke-width="1.95139" stroke-linecap="round"/>
<path d="M649.623 110.902C654.905 114.532 667.151 120.703 673.885 116.347C682.302 110.902 691.215 98.5273 699.632 103.477C708.049 108.427 718.447 121.792 725.379 116.347C732.311 110.902 744.195 100.507 753.107 103.477C762.02 106.447 771.922 116.347 778.854 116.347" stroke="#450809" stroke-width="1.95139" stroke-linecap="round"/>
<path d="M453.051 131.683C447.769 128.053 435.523 121.882 428.789 126.238C420.372 131.683 411.459 144.058 403.042 139.108C394.624 134.158 384.226 120.793 377.295 126.238C370.363 131.683 358.479 142.078 349.567 139.108C340.654 136.138 330.751 126.238 323.82 126.238" stroke="#450809" stroke-width="1.95139" stroke-linecap="round"/>
<path d="M850.648 417.841C857.415 414.211 873.128 407.149 881.842 407.941C892.735 408.931 894.221 421.74 903.133 421.74C910.263 421.74 917.162 414.15 919.473 410.85" stroke="#450809" stroke-width="1.95139" stroke-linecap="round"/>
<path d="M1352.22 434.549C1345.46 438.179 1329.75 445.241 1321.03 444.449C1310.14 443.459 1308.65 430.65 1299.74 430.65C1292.61 430.65 1285.71 438.24 1283.4 441.54" stroke="#450809" stroke-width="1.95139" stroke-linecap="round"/>
<path d="M851.639 430.783C854.61 432.702 859.066 435.685 865.998 432.702C870.454 430.783 879.366 422.368 884.318 425.338C889.269 428.308 900.357 438.702 905.609 437.652C910.56 436.662 913.036 431.279 914.026 430.783" stroke="#450809" stroke-width="1.95139" stroke-linecap="round"/>
<path d="M1318.06 412.842C1315.09 410.924 1310.63 407.94 1303.7 410.924C1299.25 412.842 1290.33 421.257 1285.38 418.287C1280.43 415.317 1269.34 404.924 1264.09 405.974C1259.14 406.964 1256.66 412.347 1255.67 412.842" stroke="#450809" stroke-width="1.95139" stroke-linecap="round"/>
<path d="M641.699 805.155C646.486 807.795 656.85 812.283 660.019 809.115C663.98 805.155 670.912 796.74 675.864 798.72C680.815 800.7 690.223 809.115 702.601 809.115C714.98 809.115 723.892 798.72 730.329 798.72C736.766 798.72 750.63 813.075 758.552 809.115C766.474 805.155 779.348 790.8 787.765 793.275C796.183 795.75 803.61 805.155 812.027 807.135C818.761 808.719 825.396 806.475 827.871 805.155" stroke="#450809" stroke-width="1.95139" stroke-linecap="round"/>
<path d="M127.746 486.505C129.727 484.03 137.649 476.11 142.6 478.585C147.552 481.06 158.94 492.444 166.862 489.475C174.784 486.505 184.687 472.644 190.629 475.615C195.382 477.991 199.871 481.225 201.522 482.545" stroke="#450809" stroke-width="1.95139" stroke-linecap="round"/>
<path d="M1175.96 87.61C1173.97 90.085 1166.05 98.005 1161.1 95.53C1156.15 93.055 1144.76 81.6708 1136.84 84.6404C1128.92 87.61 1119.01 101.471 1113.07 98.5004C1108.32 96.1241 1103.83 92.8902 1102.18 91.5703" stroke="#450809" stroke-width="1.95139" stroke-linecap="round"/>
<path d="M75.2617 502.92C78.2326 508.365 84.9309 510.497 88.5176 506.959C91.1058 504.405 96.6804 494.743 102.217 496.812C107.753 498.88 115.529 512.872 122.795 509.355C127.746 506.959 134.929 495 140.125 495C149.037 495 152.503 505.89 155.969 510.345" stroke="#450809" stroke-width="1.95139" stroke-linecap="round"/>
<path d="M1156.4 110.972C1153.43 116.418 1146.73 118.55 1143.14 115.011C1140.56 112.457 1134.98 102.795 1129.45 104.864C1123.91 106.933 1116.13 120.924 1108.87 117.407C1103.92 115.011 1096.73 103.052 1091.54 103.053C1082.62 103.053 1079.16 113.942 1075.69 118.397" stroke="#450809" stroke-width="1.95139" stroke-linecap="round"/>
<defs>
<clipPath id="clip0_516_2295">
<rect width="100.128" height="47.3807" fill="white" transform="translate(163.512 359.368)"/>
</clipPath>
<clipPath id="clip1_516_2295">
<rect width="41.0782" height="44.352" fill="white" transform="translate(790 221)"/>
</clipPath>
<clipPath id="clip2_516_2295">
<rect width="73" height="60" fill="white" transform="translate(215 555)"/>
</clipPath>
<clipPath id="clip3_516_2295">
<rect width="132.301" height="64.295" fill="white" transform="translate(1150.82 412.698)"/>
</clipPath>
<clipPath id="clip4_516_2295">
<rect width="58.8225" height="92.07" fill="white" transform="translate(751.539 606.145)"/>
</clipPath>
<clipPath id="clip5_516_2295">
<rect width="56.3798" height="23.485" fill="white" transform="translate(1169.63 167.938)"/>
</clipPath>
<clipPath id="clip6_516_2295">
<rect width="56.9833" height="49.0899" fill="white" transform="matrix(0.981995 -0.18891 0.189012 0.981975 1106.91 638.293)"/>
</clipPath>
</defs>
</svg>
