<svg width="915" height="835" viewBox="0 0 915 835" fill="none" xmlns="http://www.w3.org/2000/svg">
<path d="M659.613 752.197H193.113C155.613 747.196 133.613 708.197 129.613 704.197C125.613 700.197 120.113 692.697 123.113 690.697C126.113 688.697 134.613 697.197 159.113 700.197C183.613 703.197 255.613 700.697 280.613 700.197C305.613 699.697 431.613 683.697 481.113 673.197C530.613 662.697 680.613 646.697 686.113 643.197C691.613 639.697 695.113 634.197 689.613 630.197C684.113 626.197 545.613 645.697 507.613 653.197C469.613 660.697 355.613 677.697 290.613 683.697C225.613 689.697 122.113 684.697 118.113 683.697C114.113 682.697 109.113 669.697 108.113 665.197C107.313 661.597 135.113 663.697 149.113 665.197C167.279 645.697 203.413 606.297 202.613 604.697C201.613 602.697 130.613 601.697 112.613 600.697C94.6127 599.697 97.1127 594.697 100.113 589.697C103.113 584.697 211.113 592.697 215.613 592.697C219.213 592.697 251.446 549.697 267.113 528.197C283.613 517.697 315.613 453.697 329.113 437.197C342.613 420.697 382.113 327.197 386.113 321.197C390.113 315.197 389.113 308.197 387.113 307.697C385.113 307.197 271.613 241.697 264.113 236.697C256.613 231.697 262.613 226.697 264.113 226.697C265.313 226.697 291.613 239.696 304.613 246.196C317.113 237.696 427.613 54.1968 433.113 47.1968C437.513 41.5968 440.279 32.1968 441.113 28.1968V4.19635C446.713 -3.40365 453.113 1.02969 455.613 4.19635V79.6964L504.5 226.5C505.5 231.333 506.3 236.6 507.5 239C509 242 512 249.5 508.5 246.5C504.1 240.1 469.613 144.196 455.613 97.1964C455.946 159.03 456.413 287.096 455.613 304.696C454.613 326.696 512.113 502.696 518.113 518.696C522.913 531.496 545.779 583.363 556.613 607.696C560.213 620.096 563.779 621.196 565.113 620.196C598.446 617.196 659.365 613.149 683.5 612C715 610.5 883.613 551.697 890.613 549.697C897.613 547.697 899.113 553.197 898.613 556.697C898.113 560.197 867.113 568.697 865.113 570.697C863.113 572.697 685.613 711.697 680.613 714.197C676.613 716.197 664.946 740.363 659.613 752.197Z" fill="#450809"/>
<path d="M243.478 658.697L175 657.197L222.14 603.697L277.22 606.197L243.478 658.697Z" fill="#D4ECFF"/>
<path d="M433.514 340.138C435.458 343.632 434.424 347.593 435.043 351.31C435.981 356.983 435.838 362.851 436.104 368.642C436.824 384.63 437.292 400.632 436.816 416.627C436.585 424.402 435.872 432.157 436.246 439.946C435.906 468.157 435.866 496.368 436.464 524.579C436.98 549.087 437.721 573.532 438.088 598.047L427.865 597.525C399.128 596.857 370.391 596.391 341.661 595.423C331.174 595.068 321.048 594.652 310.561 594.583C310.51 594.58 301.472 594.09 301.424 594.101V594.086C296.197 594.01 290.977 593.934 285.75 593.857C288.149 587.022 292.561 581.356 296.122 575.209C324.954 525.4 355.458 476.635 384.854 427.18C401.412 399.324 417.297 371.071 432.188 342.241C432.569 341.503 433.072 340.834 433.514 340.138ZM397.638 312.824C407.999 317.399 417.802 323.12 427.843 328.341C430.009 329.466 431.256 331.57 431.638 334.097C422.46 353.373 411.968 371.92 401.462 390.453C375.844 435.643 347.991 479.437 321.297 523.954C308.536 545.236 295.903 566.595 283.23 587.933C282.815 588.634 282.59 589.454 282.276 590.217C281.929 590.821 281.575 591.419 281.228 592.016C280.035 593.405 278.413 593.029 276.941 592.988C261.319 592.543 245.703 591.871 230.073 591.739C229.378 591.739 228.683 591.767 228.165 591.169C226.08 590.788 225.488 590.266 227.226 588.252C241.404 571.81 255.017 554.881 268.282 537.667C298.165 498.894 325.194 458.161 349.422 415.485C368.124 382.545 384.079 348.271 397.638 312.824ZM272 241.5C272.036 241.521 279.432 245.709 281.5 247C307 261.5 335.277 277.107 360.909 291.381C370.14 296.524 379.385 301.661 388.833 306.393C390.797 307.374 392.959 308.203 393.768 310.638C393.992 311.494 393.965 312.344 393.768 313.193C376.435 360.002 353.732 404.021 327.767 446.37C305.227 483.144 280.464 518.268 253.771 551.98C244.446 563.755 234.95 575.378 225.189 586.771C223.823 588.365 222.497 590.014 220.825 591.316C218.772 592.408 216.549 591.914 214.388 592.053C187.022 592.06 159.698 590.467 132.346 590.216C130.341 589.576 128.288 589.457 126.201 589.464C124.706 589.464 123.108 589.666 122 588.211C132.672 571.063 143.459 553.999 153.981 536.76C170.805 509.208 186.465 480.979 200.358 451.75C201.079 450.232 201.664 448.652 202.316 447.1V447.108C202.989 445.653 203.662 444.191 204.335 442.737C210.908 429.959 215.992 416.493 221.634 403.284C224.849 395.76 227.806 388.125 230.878 380.54C239.327 357.267 247.117 333.758 253.88 309.921C260.106 287.978 266.324 263.604 272 241.5ZM397.638 312.824C397.636 312.823 397.634 312.822 397.633 312.822H397.64L397.638 312.824Z" fill="white"/>
<path d="M309 254.524C332.022 226.026 352.067 195.382 371.901 164.578C395.114 128.53 416.914 91.5932 439.021 54.8438C440.632 53.8297 440.127 50.9126 442.633 50.6973C443.165 51.9405 442.995 53.1977 442.701 54.4549C443.206 65.9707 441.555 77.6124 441.986 89.1422C442.484 102.381 440.661 124.521 439.5 137.697C439.964 145.296 437.232 151.624 435.594 158.848C425.824 201.883 415.562 244.793 401.552 286.661C398 295.197 397 295.197 397 295.197C393 298.197 386 295.697 386 295.697C384.491 295.551 382.777 294.163 381.33 293.475C356.573 281.73 332.643 268.401 309.007 254.51L309 254.524Z" fill="white"/>
<path d="M423.127 298.389C416.399 297.5 409.616 296.895 402.963 295.616C399.014 294.858 400.999 290.696 400.999 290.696C400.999 290.696 402.172 287.718 402.681 286.224C415.849 247.509 425.508 207.821 434.878 168.057C435.353 166.041 436.057 164 437.999 164C439.941 164 440.024 167.091 439.941 169.294C439.46 182.287 438.242 195.225 437.066 208.162C435.538 224.909 433.22 241.558 431.369 258.271C430 270.617 428.026 282.908 426.347 295.219C426.113 296.909 425.989 299.21 423.12 298.396L423.127 298.389Z" fill="white"/>
<path d="M441 297.736C439 301.736 430.5 299 428.5 299C434.167 258 441 173.436 441 168.236C441 163.036 438 161.736 436.5 161.736C438 155.5 440 144.2 442 145C444.5 146 443 293.736 441 297.736Z" fill="#D4ECFF"/>
<path d="M254.134 659.941C252.134 658.341 272.968 622.607 283.634 604.941C285.234 602.28 385 603.499 439.5 604.941V639.697C428.5 645.197 256.634 661.941 254.134 659.941Z" fill="#D4ECFF"/>
<path d="M461.134 641.163C458.334 639.963 458.967 616.663 459.634 605.163C466.8 602.496 481.629 595.801 485.634 594.163C507.634 585.163 535.634 582.163 538.134 582.163C540.634 582.163 555.634 621.663 555.134 624.663C554.634 627.663 464.634 642.663 461.134 641.163Z" fill="#D4ECFF"/>
<path d="M564.633 623.663C559.833 623.263 549.966 596.163 545.633 582.663C589.233 571.463 647.133 594.663 670.633 607.663C674.799 609.33 681.233 612.563 673.633 612.163C664.133 611.663 570.633 624.163 564.633 623.663Z" fill="#D4ECFF"/>
<path d="M496.89 467C508.956 505.225 522.734 542.775 538.101 579.706C538.815 581.431 538.5 582.5 538.5 582.5C525.762 583.901 511.515 587.288 499.123 590.637C486.745 593.986 464.557 603.439 460 605C460.506 601.877 467.634 582.933 470.387 573.059C479.346 540.841 488.375 508.646 494.824 475.753C495.399 472.814 495.205 469.666 496.89 467Z" fill="#ACD1FF"/>
<path d="M543.789 578.681C532.533 552.862 518.114 519.514 508.878 492.896C505.35 482.732 501.801 472.583 498.467 462.357C497.581 459.646 496.841 456.927 497.325 454.029C498.639 448.996 499.685 439.702 499.685 439.702C499.685 439.702 501.137 430.295 501.697 426.034C504.416 405.262 506.153 384.414 507.183 363.468C508.29 341.083 507.993 318.713 507.619 296.356C507.363 281.25 506.561 266.102 505.212 251.016C505.073 249.459 504.236 241.506 504.195 239.935C504.416 237.766 504.845 242.118 504.195 239.935C503.724 238.364 502.59 224.147 504.195 223C514.98 246.156 527.108 281.736 537.686 304.983C550.886 333.999 560.509 364.135 565.434 395.752C569.281 420.438 570.215 445.276 569.399 470.157C568.748 489.907 566.687 509.573 563.151 529.052C563.055 529.587 563.048 530.136 562.944 531.339C586.348 524.38 609.898 520.633 633.973 520.557C636.567 521.53 637.785 523.803 639.065 526.007C648.826 542.914 658.346 559.953 667.153 577.388C670.854 584.708 674.396 592.111 678.229 599.369C678.623 600.12 679.031 600.871 679.301 601.677C679.785 603.123 680.878 604.84 679.501 606.029C678.104 607.238 676.603 605.82 675.295 605.104C649.954 591.263 622.918 582.81 594.27 579.737C580.274 578.236 566.237 576.943 552.124 578.681C549.523 579 543.789 578.681 543.789 578.681Z" fill="#ACD1FF"/>
<path d="M456 18C457.776 24.0581 464.386 31.5243 467.654 36.7269C486.566 66.8017 506.805 95.9584 527.486 124.781C544.226 148.116 561.456 171.083 579.326 193.542C592.22 209.747 604.766 226.245 617.591 242.507C628.96 256.911 640.492 271.177 651.977 285.484C665.735 302.622 679.241 319.982 693.36 336.8C706.505 352.464 719.113 368.565 732.013 384.423C743.845 398.967 755.207 413.907 766.759 428.694C769.857 432.666 772.88 436.7 775.929 440.706C777.631 441.45 778.863 442.737 780.021 444.184C800.083 469.278 818.899 495.354 837.81 521.346C838.471 522.257 838.954 523.28 839.587 524.212C847.184 533.949 853.658 544.542 861.385 554.189C862.74 555.879 864.5 558.5 864.5 558.5C864.5 558.5 860.389 559.837 859 560.289C851.838 562.619 842.263 565.997 835 568C833.5 565 832.351 564.093 829.587 562.987C784.085 544.841 737.494 530.84 688.84 525.011C678.002 523.711 667.062 522.8 656.095 522.953C648.893 523.057 641.69 523.008 634.488 522.897C612.642 523.46 591.137 526.395 570.068 532.44C569.4 532.634 568.733 532.829 568.053 532.954C564.451 533.608 563.369 532.753 563.682 529.011C564.288 521.812 565.867 514.745 566.705 507.567C569.36 484.893 570.272 462.128 569.605 439.329C568.461 400.469 560.728 362.952 546.949 326.715C541.673 312.839 535.451 299.388 529.14 285.999C521.502 269.8 514.027 253.524 506.893 237.089C505.838 232.575 503.816 228.311 503.489 223.602C504.538 218.567 502.652 213.795 501.91 209.003C499.48 193.347 497.199 177.656 493.768 162.173C485.973 126.944 466.204 67.0888 456 32.5C455.122 28.3338 455.999 20 456 18Z" fill="white"/>
<g clip-path="url(#clip0_756_937)">
<path fill-rule="evenodd" clip-rule="evenodd" d="M1442 679.447L1421.57 672.965C1402.35 666.482 1361.49 653.518 1321.83 676.206C1282.18 698.895 1241.32 757.236 1201.67 760.478C1162.01 763.719 1121.16 711.859 1081.5 705.377C1041.85 698.895 1000.99 737.789 961.333 747.513C921.678 757.236 880.822 737.789 841.167 718.342C801.512 698.895 760.655 679.447 721 672.965C681.345 666.482 640.488 672.965 600.833 689.171C561.178 705.377 520.322 731.307 480.667 737.789C441.012 744.272 400.155 731.307 360.5 728.066C320.845 724.824 279.988 731.307 240.333 737.789C200.678 744.272 159.822 750.754 120.167 737.789C80.5117 724.824 39.6551 692.412 20.4284 676.206L3.05772e-05 660V835.026H20.4284C39.6551 835.026 80.5117 835.026 120.167 835.026C159.822 835.026 200.678 835.026 240.333 835.026C279.988 835.026 320.845 835.026 360.5 835.026C400.155 835.026 441.012 835.026 480.667 835.026C520.322 835.026 561.178 835.026 600.833 835.026C640.488 835.026 681.345 835.026 721 835.026C760.655 835.026 801.512 835.026 841.167 835.026C880.822 835.026 921.678 835.026 961.333 835.026C1000.99 835.026 1041.85 835.026 1081.5 835.026C1121.16 835.026 1162.01 835.026 1201.67 835.026C1241.32 835.026 1282.18 835.026 1321.83 835.026C1361.49 835.026 1402.35 835.026 1421.57 835.026H1442V679.447Z" fill="#D4ECFF"/>
</g>
<defs>
<clipPath id="clip0_756_937">
<rect width="915" height="175" fill="white" transform="translate(0 660)"/>
</clipPath>
</defs>
</svg>
