<svg width="1340" height="655" viewBox="0 0 1340 655" fill="none" xmlns="http://www.w3.org/2000/svg">
<g clip-path="url(#clip0_592_29)">
<rect width="654.386" height="1340" transform="matrix(0 -1 1 0 0 654.386)" fill="white"/>
<rect x="945" y="16" width="371" height="512" fill="#450809"/>
<g clip-path="url(#clip1_592_29)">
<path d="M185.955 231.823V228.539L51.1034 228.539V231.823L185.955 231.823Z" fill="#450809"/>
<path d="M185.953 244.959V241.675L51.1014 241.675V244.959L185.953 244.959Z" fill="#450809"/>
<path d="M185.953 258.096V248.244L51.1014 248.244V258.096H185.953Z" fill="#450809"/>
<path d="M185.953 271.232V261.379H51.1014V271.232H185.953Z" fill="#450809"/>
<path d="M185.953 277.801V274.517H51.1014V277.801H185.953Z" fill="#450809"/>
<path d="M185.953 290.935V281.083H51.1014V290.935H185.953Z" fill="#450809"/>
<path d="M185.953 297.505V294.221H51.1014V297.505H185.953Z" fill="#450809"/>
<path d="M185.953 310.641V307.357H51.1014V310.641H185.953Z" fill="#450809"/>
<path d="M185.953 317.207V313.923H51.1014V317.207H185.953Z" fill="#450809"/>
<path d="M185.953 330.344V320.492H51.1014V330.344H185.953Z" fill="#450809"/>
<path d="M185.953 336.914V333.63H51.1014V336.914H185.953Z" fill="#450809"/>
<path d="M185.953 350.047V340.195H51.1014V350.047H185.953Z" fill="#450809"/>
<path d="M185.953 363.187V359.903H51.1014V363.187H185.953Z" fill="#450809"/>
<path d="M185.953 369.755V366.471H51.1014V369.755H185.953Z" fill="#450809"/>
<path d="M185.953 382.89V373.038H51.1014V382.89H185.953Z" fill="#450809"/>
<path d="M185.953 396.026V386.174H51.1014V396.026H185.953Z" fill="#450809"/>
<path d="M185.953 409.162V399.31H51.1014V409.162H185.953Z" fill="#450809"/>
<path d="M185.953 422.299V419.015H51.1014V422.299H185.953Z" fill="#450809"/>
<path d="M185.953 428.869V425.585H51.1014V428.869H185.953Z" fill="#450809"/>
<path d="M185.953 435.434V432.15H51.1014V435.434H185.953Z" fill="#450809"/>
<path d="M185.953 442V438.716H51.1014V442H185.953Z" fill="#450809"/>
<path d="M185.953 448.572V445.288H51.1014V448.572H185.953Z" fill="#450809"/>
<path d="M185.953 468.275V458.423H51.1014V468.275H185.953Z" fill="#450809"/>
<path d="M185.953 474.843V471.559H51.1014V474.843H185.953Z" fill="#450809"/>
<path d="M185.953 487.98V478.128H51.1014V487.98H185.953Z" fill="#450809"/>
<path d="M185.953 501.118V491.266H51.1014V501.118H185.953Z" fill="#450809"/>
<path d="M185.953 507.684V504.4H51.1014V507.684H185.953Z" fill="#450809"/>
<path d="M185.953 527.984V518.132H51.1014V527.984H185.953Z" fill="#450809"/>
<path d="M185.953 533.958V530.674H51.1014V533.958H185.953Z" fill="#450809"/>
<path d="M185.953 540.526V537.242H51.1014V540.526H185.953Z" fill="#450809"/>
<path d="M185.953 547.093V543.809H51.1014V547.093H185.953Z" fill="#450809"/>
<path d="M185.953 560.23V550.378H51.1014V560.23H185.953Z" fill="#450809"/>
<path d="M185.953 579.937V570.085H51.1014V579.937H185.953Z" fill="#450809"/>
<path d="M185.953 586.505V583.221H51.1014V586.505H185.953Z" fill="#450809"/>
<path d="M185.953 593.072V589.788H51.1014V593.072H185.953Z" fill="#450809"/>
<path d="M185.953 599.638V596.354H51.1014V599.638H185.953Z" fill="#450809"/>
<path d="M185.953 606.207V602.923H51.1014V606.207H185.953Z" fill="#450809"/>
<path d="M185.953 619.343V616.059H51.1014V619.343H185.953Z" fill="#450809"/>
</g>
<rect x="24.6309" y="16.1138" width="189.212" height="616.479" stroke="#450809"/>
<rect x="24.8406" y="16.3235" width="188.792" height="194.47" fill="#450809" stroke="#450809" stroke-width="1.41949"/>
<rect x="213.807" y="528.692" width="1102" height="104" stroke="#450809"/>
<mask id="path-43-inside-1_592_29" fill="white">
<path d="M1220.79 308.029H1315.9V407.394H1220.79V308.029Z"/>
</mask>
<path d="M1220.79 407.394H1222.36V308.029H1220.79H1219.22V407.394H1220.79Z" fill="white" mask="url(#path-43-inside-1_592_29)"/>
<path d="M88.0441 142.725C83.0742 156.887 68.1642 165.385 66.0342 166.801C60.8275 170.106 50.5562 178.273 51.1242 184.505C51.8342 192.294 56.8042 197.959 66.0342 197.251C75.2642 196.543 77.3942 190.878 85.2042 184.505C93.0141 178.132 98.6941 180.964 107.214 180.964C115.734 180.964 122.124 187.337 136.324 190.878C147.684 193.71 153.837 191.114 155.494 189.462C158.571 187.101 163.446 181.248 158.334 176.716C151.944 171.051 146.974 175.299 136.324 176.716C127.804 177.849 127.094 172.939 127.804 170.343C131.117 166.802 142.146 159.013 159.754 156.18C181.764 152.64 181.054 147.683 190.284 139.894C197.668 133.662 196.201 125.968 194.544 122.899C191.231 120.539 183.894 117.234 181.054 122.899C177.504 129.98 167.564 139.186 161.174 139.894C154.784 140.602 154.074 134.229 154.074 127.148C154.074 120.067 161.884 112.986 163.304 110.861C164.724 108.737 159.754 99.5314 154.074 100.24C148.394 100.948 140.584 113.694 137.744 127.148C134.904 140.602 132.064 142.725 124.254 149.807C118.006 155.473 107.451 155.001 102.954 154.056L119.284 117.234C122.124 109.681 132.064 92.0252 149.104 81.8275C170.404 69.0803 168.984 58.461 169.694 54.2118C170.404 49.9626 165.434 47.13 159.754 47.13C154.074 47.13 151.234 57.7528 149.104 60.5853C146.974 63.4177 140.584 64.1259 137.744 62.7096C134.904 61.2934 143.424 32.9684 140.584 30.8441C137.744 28.7197 133.484 26.5954 127.804 30.8441C123.26 34.243 120.231 57.2802 119.284 68.374C117.154 72.8585 112.326 82.1109 110.054 83.2443C107.214 84.6612 106.504 83.2443 104.374 79.7038C100.824 77.5801 101.534 62.001 102.954 54.2118C104.09 47.9804 99.1675 43.5897 96.5641 42.1732C94.4341 41.4651 89.7481 41.4651 88.0441 47.13C86.3401 52.7949 88.7541 72.622 90.1741 81.8275C93.9608 86.7843 101.818 98.1141 102.954 103.779C104.374 110.86 93.0141 128.563 88.0441 142.725Z" fill="#450809" stroke="white" stroke-width="7.09746"/>
<rect x="213.5" y="16.999" width="734" height="194" stroke="#450809"/>
<path d="M933.055 190.655C937.479 164.02 945.442 112.874 945.442 111.499L958.273 190.655L980.836 176.049L965.794 197.529L1018 207.999L965.794 220.727L980.836 243.066L958.273 227.601L945.442 304.499L933.055 227.601L910.933 243.066L928.188 220.727L872 209.987L928.188 197.529L910.933 173.901L933.055 190.655Z" fill="white" stroke="#450809" stroke-width="1.00366"/>
<path d="M1219 104.675C1220.37 95.9708 1223.12 78.4502 1223.12 78.001L1226.84 104.675L1233.86 99.9017L1229.18 106.921L1245.42 110.992L1229.18 114.502L1233.86 121.802L1226.84 116.748L1222.85 141.878L1219 116.748L1212.11 121.802L1217.48 114.502L1200 110.992L1217.48 106.921L1212.11 99.1998L1219 104.675Z" fill="white"/>
<path d="M1033 396.173C1034.37 387.469 1037.12 369.948 1037.12 369.499L1040.84 396.173L1047.86 391.4L1043.18 398.419L1059.42 402.491L1043.18 406L1047.86 413.3L1040.84 408.246L1036.85 433.376L1033 408.246L1026.11 413.3L1031.48 406L1014 402.491L1031.48 398.419L1026.11 390.698L1033 396.173Z" fill="white"/>
<path d="M1034 43.173C1035.37 34.4688 1038.12 16.9483 1038.12 16.499L1041.84 43.173L1048.86 38.3997L1044.18 45.4192L1060.42 49.4905L1044.18 53.0002L1048.86 60.3005L1041.84 55.2465L1037.85 80.3761L1034 55.2465L1027.11 60.3005L1032.48 53.0002L1015 49.4905L1032.48 45.4192L1027.11 37.6978L1034 43.173Z" fill="white"/>
<rect x="943.235" y="13.6136" width="94.9954" height="96.9954" stroke="white" stroke-width="1.00459"/>
<rect x="945.809" y="208.216" width="92.4223" height="97.4453" stroke="white" stroke-width="1.00459"/>
<rect x="943.235" y="305.614" width="94.9954" height="96.9954" stroke="white" stroke-width="1.00459"/>
<mask id="path-54-inside-2_592_29" fill="white">
<path d="M941.732 402.111H1038.73V501.111H941.732V402.111Z"/>
</mask>
<path d="M941.732 402.111V401.107H940.728V402.111H941.732ZM941.732 501.111H940.728V502.116H941.732V501.111ZM941.732 402.111V403.116H1038.73V402.111V401.107H941.732V402.111ZM1038.73 501.111V500.107H941.732V501.111V502.116H1038.73V501.111ZM941.732 501.111H942.737V402.111H941.732H940.728V501.111H941.732Z" fill="white" mask="url(#path-54-inside-2_592_29)"/>
<rect x="1038.23" y="13.3255" width="92.4223" height="97.4453" stroke="white" stroke-width="1.00459"/>
<rect x="1038.23" y="110.771" width="92.4223" height="97.4453" stroke="white" stroke-width="1.00459"/>
<rect x="1038.23" y="208.216" width="92.4223" height="97.4453" stroke="white" stroke-width="1.00459"/>
<rect x="1038.23" y="305.66" width="92.4223" height="97.4453" stroke="white" stroke-width="1.00459"/>
<rect x="1038.23" y="403.107" width="92.4223" height="97.4453" stroke="white" stroke-width="1.00459"/>
<mask id="path-61-inside-3_592_29" fill="white">
<path d="M1037.31 500.192H1131.31V530.192H1037.31V500.192Z"/>
</mask>
<path d="M1037.31 500.192V499.188H1036.3V500.192H1037.31ZM1037.31 530.192H1036.3V531.197H1037.31V530.192ZM1037.31 500.192V501.197H1131.31V500.192V499.188H1037.31V500.192ZM1131.31 530.192V529.188H1037.31V530.192V531.197H1131.31V530.192ZM1037.31 530.192H1038.31V500.192H1037.31H1036.3V530.192H1037.31Z" fill="white" mask="url(#path-61-inside-3_592_29)"/>
<rect x="1130.65" y="13.3255" width="92.4223" height="97.4453" stroke="white" stroke-width="1.00459"/>
<rect x="1130.65" y="110.771" width="92.4223" height="97.4453" stroke="white" stroke-width="1.00459"/>
<rect x="1130.65" y="208.216" width="92.4223" height="97.4453" stroke="white" stroke-width="1.00459"/>
<rect x="1130.65" y="305.66" width="92.4223" height="97.4453" stroke="white" stroke-width="1.00459"/>
<rect x="1130.65" y="403.107" width="92.4223" height="97.4453" stroke="white" stroke-width="1.00459"/>
<mask id="path-68-inside-4_592_29" fill="white">
<path d="M1130.31 500.192H1223.31V530.192H1130.31V500.192Z"/>
</mask>
<path d="M1130.31 500.192V499.188H1129.3V500.192H1130.31ZM1130.31 530.192H1129.3V531.197H1130.31V530.192ZM1130.31 500.192V501.197H1223.31V500.192V499.188H1130.31V500.192ZM1223.31 530.192V529.188H1130.31V530.192V531.197H1223.31V530.192ZM1130.31 530.192H1131.31V500.192H1130.31H1129.3V530.192H1130.31Z" fill="white" mask="url(#path-68-inside-4_592_29)"/>
<rect x="1222.81" y="13.6947" width="95.9954" height="96.9954" stroke="white" stroke-width="1.00459"/>
<rect x="1222.81" y="110.695" width="95.9954" height="97.9954" stroke="white" stroke-width="1.00459"/>
<rect x="1222.81" y="208.695" width="95.9954" height="96.9954" stroke="white" stroke-width="1.00459"/>
<rect x="1222.81" y="305.695" width="93.9954" height="96.9954" stroke="white" stroke-width="1.00459"/>
<rect x="1222.81" y="402.695" width="93.9954" height="97.9954" stroke="white" stroke-width="1.00459"/>
<path d="M1107.81 197.041C1099.03 197.842 1080.87 207.714 1072.88 212.55C1072.22 213.717 1071.28 216.551 1072.88 218.552C1074.88 221.054 1090.84 224.556 1106.31 226.557C1121.78 228.558 1125.77 242.565 1125.27 246.568C1124.78 250.57 1106.31 282.587 1107.81 320.108C1104.62 349.724 1137.75 404.154 1154.71 427.667C1153.92 434.07 1160.04 444.676 1163.2 449.179L1137.25 452.18C1124.28 453.681 1120.28 462.186 1118.79 467.689C1117.59 472.091 1126.94 472.858 1131.76 472.691C1130.93 474.859 1129.97 479.495 1132.76 480.696C1136.25 482.197 1195.63 479.695 1204.61 479.195C1213.59 478.695 1215.09 462.686 1218.58 463.186C1222.08 463.687 1228.06 467.689 1256.51 476.694C1279.26 483.898 1295.93 473.692 1301.41 467.689C1291.44 465.187 1264.99 434.671 1264.49 425.165C1263.99 415.66 1270.48 380.641 1261 349.124C1259 323.51 1219.25 267.412 1199.62 242.565C1199.62 231.059 1198.23 205.845 1192.64 197.041C1185.65 186.036 1173.68 174.029 1148.23 173.028C1127.87 172.228 1112.8 188.703 1107.81 197.041Z" fill="white"/>
<path d="M1141.33 198.537C1122.58 197.734 1123.87 212.245 1126.87 219.601C1126.87 220.603 1125.57 222.609 1120.38 222.609C1115.2 222.609 1091.29 217.26 1079.99 214.585C1085.97 209.569 1107.42 203.05 1114.9 200.542C1123.87 192.016 1135.34 176.469 1156.79 178.977C1193.19 185.998 1192.69 219.601 1192.69 230.633C1192.69 241.666 1192.69 248.187 1203.16 260.223C1213.64 272.26 1243.06 315.391 1252.53 344.479C1262.01 373.567 1257.52 411.683 1260.51 434.251C1262.91 452.306 1283.45 464.509 1293.43 468.354C1289.27 469.357 1277.67 471.664 1264.5 472.868C1248.05 474.373 1218.13 457.321 1215.13 457.321C1212.14 457.321 1208.65 463.841 1208.15 467.351C1207.65 470.862 1203.16 475.877 1201.67 475.877C1200.47 475.877 1157.95 477.883 1136.84 478.886V475.877C1137.84 469.859 1155.29 467.351 1153.79 465.345C1152.3 463.339 1122.88 470.361 1124.87 467.351C1126.87 464.342 1137.34 458.324 1144.82 458.324C1152.3 458.324 1168.26 454.813 1169.25 452.306C1170.25 449.798 1162.27 434.251 1163.77 435.756C1165.26 437.26 1181.72 462.336 1188.2 458.324C1194.69 454.312 1196.68 421.713 1195.19 415.695C1193.69 409.676 1186.21 384.6 1185.21 381.591C1184.21 378.582 1201.17 344.479 1203.16 332.944C1205.16 321.409 1194.69 299.342 1195.19 301.849C1195.68 304.357 1199.67 332.944 1192.69 344.479C1185.71 356.014 1179.23 382.093 1177.73 393.628C1176.24 405.163 1185.21 424.221 1183.22 427.23C1181.22 430.239 1177.73 429.737 1165.26 420.71C1152.8 411.683 1139.33 377.579 1141.33 358.02C1143.32 338.46 1159.28 282.29 1156.79 283.795C1154.79 284.998 1150.97 293.992 1149.31 298.339C1148.48 296.166 1146.71 288.308 1146.31 274.266C1145.82 256.713 1157.78 242.168 1163.77 237.655C1168.56 234.044 1168.42 224.114 1167.76 219.601C1166.76 212.914 1160.08 199.339 1141.33 198.537Z" fill="#450809"/>
<circle cx="1137.63" cy="212.377" r="5.13616" fill="#450809"/>
<path d="M1223.31 500.692V529.192" stroke="white"/>
</g>
<defs>
<clipPath id="clip0_592_29">
<rect width="654.386" height="1340" fill="white" transform="matrix(0 -1 1 0 0 654.386)"/>
</clipPath>
<clipPath id="clip1_592_29">
<rect width="387.521" height="134.852" fill="white" transform="matrix(0 1 -1 0 185.953 228.539)"/>
</clipPath>
</defs>
</svg>
